<?xml version="1.0" encoding="UTF-8" standalone="no"?>
<!-- Created with Inkscape (http://www.inkscape.org/) -->

<svg
   width="148.69576mm"
   height="210.13095mm"
   viewBox="0 0 148.69575 210.13095"
   version="1.1"
   id="svg1222"
   inkscape:export-filename="/home/michelc/funding.png"
   inkscape:export-xdpi="96"
   inkscape:export-ydpi="96"
   inkscape:version="1.1 (1:1.1+202105261518+ce6663b3b7)"
   sodipodi:docname="fundsbutterfly.svg"
   xmlns:inkscape="http://www.inkscape.org/namespaces/inkscape"
   xmlns:sodipodi="http://sodipodi.sourceforge.net/DTD/sodipodi-0.dtd"
   xmlns:xlink="http://www.w3.org/1999/xlink"
   xmlns="http://www.w3.org/2000/svg"
   xmlns:svg="http://www.w3.org/2000/svg">
  <sodipodi:namedview
     id="namedview1224"
     pagecolor="#ffffff"
     bordercolor="#666666"
     borderopacity="1.0"
     inkscape:pageshadow="2"
     inkscape:pageopacity="0.0"
     inkscape:pagecheckerboard="0"
     inkscape:document-units="mm"
     showgrid="false"
     fit-margin-top="0"
     fit-margin-left="0"
     fit-margin-right="0"
     fit-margin-bottom="0"
     inkscape:zoom="0.75187991"
     inkscape:cx="373.0649"
     inkscape:cy="517.36985"
     inkscape:window-width="1848"
     inkscape:window-height="1035"
     inkscape:window-x="72"
     inkscape:window-y="27"
     inkscape:window-maximized="1"
     inkscape:current-layer="layer1" />
  <defs
     id="defs1219"><linearGradient
   id="linearGradient1726">
  <stop
     style="stop-color:#3e2969;stop-opacity:1"
     offset="0"
     id="stop1722" />
  <stop
     style="stop-color:#40a09c;stop-opacity:1"
     offset="1"
     id="stop1724" />
</linearGradient>
<linearGradient
   xlink:href="#linearGradient180668"
   id="linearGradient183923"
   gradientUnits="userSpaceOnUse"
   gradientTransform="matrix(1.0670893,0.19520463,-0.07372097,1.2700058,23.850036,1223.9605)"
   x1="724.73602"
   y1="-193.57947"
   x2="525.9422"
   y2="-130.36461" />
<linearGradient
   id="linearGradient180668">
  <stop
     style="stop-color:#361534;stop-opacity:1"
     offset="0"
     id="stop180664" />
  <stop
     style="stop-color:#40879c;stop-opacity:1"
     offset="1"
     id="stop180666" />
</linearGradient>
<linearGradient
   xlink:href="#linearGradient180668"
   id="linearGradient184013"
   gradientUnits="userSpaceOnUse"
   gradientTransform="matrix(0.95697444,0.06946328,-0.05930256,0.97887787,93.304246,1248.79)"
   x1="725.03186"
   y1="-389.58276"
   x2="400.94772"
   y2="-283.98657" />
<linearGradient
   xlink:href="#linearGradient180668"
   id="linearGradient184058"
   gradientUnits="userSpaceOnUse"
   gradientTransform="rotate(4.5298417,-15761.135,1456.4619)"
   x1="725.03186"
   y1="-389.58276"
   x2="400.94772"
   y2="-283.98657" />
<linearGradient
   xlink:href="#linearGradient161873"
   id="linearGradient183968"
   gradientUnits="userSpaceOnUse"
   gradientTransform="rotate(5.0896718,-13855.637,1289.3663)"
   x1="725.03186"
   y1="-389.58276"
   x2="400.94772"
   y2="-283.98657" />
<linearGradient
   id="linearGradient161873">
  <stop
     style="stop-color:#361534;stop-opacity:1"
     offset="0"
     id="stop161869" />
  <stop
     style="stop-color:#40879c;stop-opacity:0.36358479"
     offset="1"
     id="stop161871" />
</linearGradient>
<linearGradient
   inkscape:collect="always"
   xlink:href="#linearGradient1726"
   id="linearGradient1528"
   x1="333.10001"
   y1="286.48099"
   x2="91.361046"
   y2="96.632835"
   gradientUnits="userSpaceOnUse"
   gradientTransform="matrix(-0.99999999,0,0,0.99999999,489.03761,-44.455999)" />
<linearGradient
   inkscape:collect="always"
   xlink:href="#linearGradient1726"
   id="linearGradient2446"
   gradientUnits="userSpaceOnUse"
   gradientTransform="matrix(-0.23659231,0.11844161,0.11844161,0.23659231,246.44916,176.46813)"
   x1="333.10001"
   y1="286.48099"
   x2="91.361046"
   y2="96.632835" />
<linearGradient
   inkscape:collect="always"
   xlink:href="#linearGradient1726"
   id="linearGradient2654"
   gradientUnits="userSpaceOnUse"
   gradientTransform="matrix(-0.01562559,0.26412152,0.26412152,0.01562559,48.522993,93.831803)"
   x1="333.10001"
   y1="286.48099"
   x2="91.361046"
   y2="96.632835" />











	





</defs>
  <g
     inkscape:label="Layer 1"
     inkscape:groupmode="layer"
     id="layer1"
     transform="translate(-42.148768,-180.28509)">
    <g
       id="g184396"
       transform="matrix(0.26458333,0,0,0.26458333,-80.201325,-9.7130179)">
      <path
         style="fill:url(#linearGradient183923);fill-opacity:1;stroke:#1f0938;stroke-width:1.17031;stroke-opacity:0.364706"
         d="m 621.03818,1215.2985 c 9.24879,-2.0738 23.91789,-8.4777 46.08239,-20.119 58.85093,-30.91 102.10471,-66.6335 130.40422,-107.7016 10.04274,-14.5741 14.25752,-23.6023 15.63635,-33.4943 1.73832,-12.4711 -4.40708,-21.4098 -16.0776,-23.3853 -9.28383,-1.5717 -17.37754,1.6411 -26.9238,10.6871 -8.74962,8.2912 -14.1749,15.758 -24.08925,33.1543 -14.1034,24.7466 -26.35599,42.3229 -40.47062,58.0547 -13.47201,15.0155 -42.56313,41.9368 -58.27779,53.931 -20.97986,16.0127 -32.71045,25.7419 -34.13728,28.3131 -1.41087,2.5425 -1.09152,2.5653 7.85338,0.56 z"
         id="path158085-1-3" />
      <path
         id="path179585-7-8-8"
         style="fill:url(#linearGradient184013);fill-opacity:1;stroke-width:0.96999"
         d="m 575.31625,764.90533 c -10.61851,-0.79219 -16.29301,1.41034 -21.03041,8.16313 -2.97819,4.24524 -3.18655,5.05521 -3.69952,14.36601 -0.48344,8.77402 -0.10175,12.07758 3.44427,29.82046 l 3.9876,19.95307 -1.74348,29.36879 c -1.73092,29.14461 -1.76526,29.41243 -4.49187,35.06861 -2.21097,4.58592 -2.79784,7.13685 -3.00428,13.0548 -0.14112,4.04538 -0.67253,17.40092 -1.18038,29.67872 -1.05012,25.38883 -0.89519,27.8283 2.1952,34.66468 4.88408,10.80455 17.50687,20.33954 36.94095,27.9005 22.50216,8.7547 31.05373,12.5279 43.02283,18.9882 25.91861,13.9896 47.26065,29.7507 62.60103,46.2296 14.36852,15.4347 22.92785,22.7487 26.96091,23.0416 0.84253,0.06 2.24242,-1.3615 3.11254,-3.1616 5.35142,-11.0704 9.37537,-49.295 7.12086,-67.6492 -1.45327,-11.8305 -3.9588,-24.88456 -7.31422,-38.11075 -10.09839,-39.80484 -40.73125,-117.71328 -58.90835,-149.82152 -24.14239,-42.64478 -56.84226,-69.2296 -88.01371,-71.5551 z m 1.29936,22.36768 c 4.51379,0.4737 11.51395,4.24886 19.87947,10.96168 23.35928,18.74478 58.50849,65.5019 57.81728,76.91206 -0.10327,1.70315 -0.52345,1.88592 -2.71453,1.17585 -1.42581,-0.46199 -5.08777,-2.34309 -8.13831,-4.17973 -13.3483,-8.03659 -37.28413,-28.24572 -49.18706,-41.52837 -13.07563,-14.59115 -24.5823,-35.00577 -22.85516,-40.55041 0.67649,-2.172 2.49005,-3.0753 5.19831,-2.79108 z m 13.3264,64.59001 c 4.6837,0.30314 10.27425,4.38992 16.54779,12.1581 6.74064,8.34668 14.07661,21.0976 17.96817,31.22797 5.86735,15.27365 0.39583,24.19792 -10.66146,17.38814 -6.50731,-4.00764 -25.27145,-29.74775 -30.8105,-42.26458 -2.97365,-6.71955 -2.49904,-13.54478 1.15194,-16.56714 1.73358,-1.43517 3.67517,-2.08045 5.80406,-1.94249 z m 62.62517,42.91857 c 4.51104,0.32743 7.48494,2.38695 12.95411,8.97478 14.99208,18.05866 33.29378,65.4348 40.5737,105.02713 3.89771,21.1979 4.98827,46.5715 1.99211,46.3542 -0.20572,-0.012 -2.24106,-3.1491 -4.52288,-6.9649 -12.53639,-20.9624 -33.78031,-55.40668 -38.88213,-63.04225 -18.01904,-26.96737 -25.01996,-46.37356 -24.04207,-66.63509 0.72031,-14.92067 5.38148,-24.18891 11.92705,-23.71379 z m -68.63143,15.47505 c 6.75795,0.53284 17.84799,7.65172 30.87925,20.58581 11.36636,11.28155 21.65906,29.55245 22.64041,40.19103 0.35839,3.88549 0.22598,4.19496 -1.73801,4.05237 -1.16959,-0.0844 -3.86648,-0.81757 -5.99328,-1.62752 -5.75474,-2.19151 -21.08999,-11.47997 -28.6387,-17.34698 -14.38537,-11.18029 -23.78121,-25.73943 -24.16923,-37.45229 -0.2004,-6.04776 2.3956,-8.76698 7.01956,-8.40242 z m -4.86128,53.87195 c 13.35417,0.88199 39.99107,16.26076 61.58811,36.51591 8.32454,7.8075 8.4018,8.1601 0.88403,4.0008 -3.89739,-2.1561 -10.43575,-5.27258 -14.52946,-6.92485 -4.09371,-1.65228 -12.73418,-4.54078 -19.20098,-6.41913 -19.47119,-5.65575 -29.36788,-10.6766 -34.48705,-17.49292 -3.14443,-4.1872 -3.20153,-6.75913 -0.19121,-8.61683 1.44555,-0.89201 3.46352,-1.22636 5.93656,-1.06298 z" />
      <path
         id="path179573-4-8-7"
         style="fill:url(#linearGradient184058);fill-opacity:1"
         d="m 564.46673,1015.1137 c -27.53711,-2.2618 -32.03169,-0.6993 -42.38278,14.7436 -5.87301,8.7623 -5.30452,8.332 -25.52456,19.3826 -19.65682,10.7428 -23.31446,18.1356 -18.418,37.232 3.22826,12.5905 2.43392,17.9656 -4.47004,30.2336 -4.3488,7.7275 -5.2218,10.1135 -5.70482,15.5983 -1.28238,14.5585 8.02144,26.2439 26.0694,32.745 6.65575,2.3976 26.53572,4.683 37.64493,4.3284 32.95223,-1.0517 71.95876,-7.3258 98.35567,-15.8225 31.80567,-10.2374 65.93787,-28.7252 74.79049,-40.5106 8.43625,-11.2312 3.42542,-20.7665 -23.3556,-44.4464 -24.41927,-21.5913 -53.10812,-37.5526 -86.94154,-48.371 -9.93239,-3.1759 -13.15978,-3.7247 -30.06315,-5.113 z m -14.17964,27.2602 c 11.18879,0.7002 25.86994,4.6153 37.85021,10.4419 6.06997,2.9522 13.44094,6.3526 16.38025,7.5555 7.08513,2.8998 7.25239,3.0563 4.80428,4.4971 -6.18368,3.6393 -25.72211,3.5087 -40.36845,-0.2691 -15.1788,-3.9152 -29.27724,-11.1851 -32.26166,-16.6352 -1.74149,-3.1804 -0.9566,-4.247 3.80114,-5.171 2.72432,-0.5291 6.06461,-0.6525 9.79423,-0.4192 z m -31.0577,32.0456 c 4.17012,0.3406 9.59328,1.9637 18.69543,5.3136 12.3796,4.5558 23.93448,7.82 29.62501,8.3677 2.27901,0.2194 4.96774,0.7999 5.97537,1.2903 1.5967,0.7772 1.31535,1.1435 -2.18924,2.8537 -5.48959,2.6788 -20.09829,6.2164 -28.0638,6.7951 -8.77183,0.6373 -23.36788,-1.2343 -29.01568,-3.7193 -2.63359,-1.1587 -5.7414,-3.5737 -7.32326,-5.6917 -4.79717,-6.4235 -2.59662,-12.1181 5.61831,-14.5315 2.12368,-0.6274 4.17578,-0.8818 6.67786,-0.6779 z m 124.91385,15.9485 c 3.79921,0.3401 7.64657,0.8379 11.50975,1.4937 23.58208,4.0035 31.05305,8.2112 27.37561,15.4194 -1.9477,3.8174 -8.89034,7.4319 -21.82501,11.3625 -18.33105,5.5705 -36.36658,9.1412 -51.57877,10.2103 -7.13643,0.5014 -19.95144,-1.6689 -23.77382,-4.027 -14.55798,-8.9812 -8.36506,-22.0864 14.2571,-30.1674 12.01162,-4.2907 27.57135,-5.7653 44.03514,-4.2915 z m -126.99893,34.1351 c 8.22924,0.533 16.79133,3.9105 33.82976,12.7428 9.46553,4.9068 20.18159,9.7316 23.81151,10.7227 3.63001,0.9911 6.57662,2.0849 6.54932,2.4292 -0.0762,0.9621 -17.92368,3.5727 -26.38721,3.8597 -10.78112,0.3657 -28.09603,-1.9234 -37.34016,-4.9353 -28.01151,-9.1263 -31.45551,-22.8633 -6.20814,-24.7649 1.96357,-0.1478 3.84599,-0.1771 5.74492,-0.054 z" />
      <path
         id="path179593-5-6-0"
         style="fill:url(#linearGradient183968);fill-opacity:1"
         d="m 723.87513,718.17617 c -9.97586,-0.73556 -17.82216,4.07924 -23.8745,14.49774 -4.42036,7.60931 -5.42676,19.93308 -2.93113,35.88134 2.42342,15.48544 1.22264,24.08057 -5.40522,38.67312 -3.7144,8.17795 -4.76249,11.6661 -5.42901,18.0896 -0.87614,8.44593 -0.43734,10.16391 6.94426,27.22339 1.36689,3.15878 4.37075,13.53178 6.67463,23.05223 3.07821,12.71953 5.48427,19.989 9.0766,27.4133 8.14526,16.83437 19.54006,58.81022 25.17144,92.72953 3.74533,22.55838 4.50608,33.66668 3.65473,53.32738 l -0.67953,15.7087 5.21067,-6.0618 c 35.52867,-41.3337 59.75324,-115.4215 60.48194,-184.96882 0.78229,-74.67234 -19.22823,-125.33077 -58.56453,-148.25868 -7.59218,-4.42518 -14.34479,-6.86565 -20.33035,-7.30703 z m 7.26974,37.35079 c 5.78837,0.51561 12.69617,9.05013 20.56541,25.40702 14.3484,29.82449 17.53154,49.65884 9.10057,56.71076 -4.31322,3.60764 -6.87854,3.02223 -11.38066,-2.60001 -4.38834,-5.48024 -7.36137,-12.92394 -14.99844,-37.56074 -5.98202,-19.29768 -7.7207,-27.75306 -7.11259,-34.5798 0.51804,-5.81658 1.43734,-7.58995 3.82571,-7.37723 z m -13.70179,64.03692 c 5.34696,0.47617 11.74917,10.96926 14.20522,23.28369 1.58835,7.96373 -0.34905,27.14449 -2.72035,26.93334 -0.374,-0.0325 -1.08785,-1.60353 -1.5855,-3.48848 -0.49767,-1.8849 -3.00112,-8.31992 -5.56387,-14.29998 -4.94316,-11.53426 -9.24091,-24.57626 -8.99794,-27.30433 0.25596,-2.87371 2.47983,-5.31863 4.66244,-5.12424 z m 44.65139,40.3685 c 7.3411,0.36412 12.45411,10.66151 14.65992,29.78124 3.02179,26.19314 -3.06273,67.33468 -15.59367,105.42092 -2.73565,8.31506 -5.27902,16.12556 -5.65005,17.35806 -0.37096,1.2326 -0.87208,2.0032 -1.11496,1.7127 -0.24312,-0.2906 0.51415,-5.0977 1.68295,-10.6837 1.16881,-5.58588 2.63111,-16.04281 3.25005,-23.23681 1.78157,-20.70719 0.81817,-32.55627 -5.07934,-62.47229 -4.2671,-21.64613 -5.12226,-29.39667 -4.33155,-39.25394 0.82881,-10.33124 3.8993,-16.6045 8.89521,-18.17105 1.13767,-0.3568 2.23301,-0.50697 3.28178,-0.4549 z" />
    </g>
    <path
       id="path1329"
       style="fill:url(#linearGradient1528);fill-opacity:1;stroke-width:0.999999"
       d="m 303.73828,0 c -2.65,0 -5.30079,0.57461252 -7.30078,1.7246094 L 3.0371094,171.02539 c -4.1000013,2.4 -4.00000254,6.20001 0,8.5 L 177.9375,281.125 c 3.99999,2.29999 10.49962,2.4 14.59961,0 L 485.83789,111.82422 c 4.00003,-2.4 4.00003,-6.20001 0,-8.5 L 311.03711,1.7246094 C 309.0371,0.57461252 306.38828,0 303.73828,0 Z m -31.40039,41.925781 c 1.2,1.099994 2.7004,2.099622 4.40039,3.09961 14.79999,8.600012 38.99845,8.600012 53.89844,0 1.59999,-0.899981 3.00077,-2.000013 4.30078,-3 l 81.5,47.298828 c -1.8,0.700006 -3.59923,1.600019 -5.19922,2.5 -14.89992,8.600011 -15.00116,22.601161 -0.20117,31.201171 1.69999,0.99999 3.50038,1.7996 5.40039,2.59961 L 218.83789,239.82422 c -0.99999,-0.79998 -1.99962,-1.3996 -3.09961,-2.09961 -14.90003,-8.60001 -39.00036,-8.60001 -53.90039,0 -2.29999,1.30001 -4.30036,2.70076 -5.90039,4.30078 L 73.636719,194.32422 c 2.7,-0.99999 5.301561,-2.09843 7.601562,-3.39844 14.900013,-8.60001 14.999218,-22.60116 0.199219,-31.20117 -2.200003,-1.30001 -4.70078,-2.39881 -7.300781,-3.29883 z m 68,33.636719 c -1.3,-0.0125 -2.5996,0.263281 -3.59961,0.863281 l -22.70117,13.09961 c -2.00001,1.2 -2.00001,3.099225 0,4.199218 l 12.90039,7.500001 c 2.00001,1.10003 5.19924,1.2 7.19922,0 L 356.83789,88.125 c 2.00001,-1.2 2.00001,-2.999219 0,-4.199219 l -12.90039,-7.5 c -1.00001,-0.549997 -2.29961,-0.85078 -3.59961,-0.863281 z m -95.625,18.175781 c -21.1,0.0125 -42.225,4.686328 -58.375,13.986329 -32.30011,18.6 -32.50077,48.79999 -0.30078,67.5 32.00001,18.6 84.20001,18.6 116.5,0 32.29999,-18.6 32.50041,-48.9 0.40039,-67.5 -16.04999,-9.350004 -37.12461,-13.99883 -58.22461,-13.986329 z m -8.7832,21.277339 c 1.55032,0.006 2.50949,0.42779 3.98828,1.37305 1.72513,1.18386 3.4469,2.32001 5.17187,3.50391 1.29113,0.8513 1.53152,1.33468 0.74024,1.74219 -0.60427,0.20749 -1.40618,0.42081 -2.83008,0.59765 -6.08459,0.96023 -11.72834,2.35003 -16.73047,4.11719 l -2.39648,0.92969 c -2.1905,0.92575 -3.75612,1.9853 -4.89844,3.23047 -2.65569,3.03537 2.66206,5.705 10.41992,5.19726 2.65576,-0.1542 5.0887,-0.54901 7.72266,-0.99609 6.27568,-1.15964 12.32734,-2.60659 19.0332,-3.48242 10.77438,-1.35345 20.84235,-1.0802 28.88477,2.41015 9.09713,3.9072 10.03865,8.47682 4.85351,13.42188 -2.11094,2.04714 -2.11037,2.04784 1.6836,3.48047 1.26648,0.51004 2.53001,0.97042 3.79687,1.48046 2.74553,1.11319 2.77334,1.50349 0.19336,2.73047 -0.19162,0.15156 -0.59805,0.25733 -0.79492,0.35938 -0.59792,0.25663 -1.1939,0.51264 -1.79492,0.7207 -5.7656,2.56479 -5.76615,2.56478 -11.875,0.30274 -4.21686,-1.61885 -4.42174,-1.6143 -9.03125,-0.0996 -3.60726,1.20011 -7.64054,2.16539 -11.6875,2.93554 -2.82894,0.59762 -4.47966,0.43755 -5.77539,-0.46289 h -0.002 c -1.94037,-1.32574 -3.87654,-2.60158 -5.61523,-3.98047 -1.0831,-0.80696 -1.3235,-1.28968 -0.53321,-1.69726 0.3916,-0.20447 1.40599,-0.42133 2.625,-0.59375 6.07779,-1.05778 11.30537,-2.53734 15.67579,-4.53516 0.6043,-0.20787 0.99294,-0.45986 1.58984,-0.71679 1.18741,-0.61134 2.3711,-1.27171 2.9375,-2.01563 2.27032,-2.68532 -1.98853,-4.89016 -8.7207,-4.4043 -3.4712,0.22073 -6.71697,0.72948 -9.95508,1.33594 -5.4635,1.04455 -10.92169,2.18696 -16.60742,2.99219 -18.275,2.58807 -36.6356,-1.80456 -39.01953,-9.3711 -0.81219,-2.76593 0.43753,-5.38088 3.54101,-7.88867 1.35704,-1.10332 1.30188,-1.8834 -1.01172,-2.66406 -2.10346,-0.73629 -4.21303,-1.57042 -6.32031,-2.35547 -1.89532,-0.69192 -1.9517,-1.47146 -0.16406,-2.29101 l 3.57226,-1.6875 c 0.79159,-0.40755 1.7914,-0.76964 2.78711,-1.18165 1.78847,-0.8194 3.84385,-0.76682 5.94727,-0.0312 1.47458,0.55438 3.15789,1.15261 4.63281,1.70703 3.37436,1.29513 3.78375,1.28608 7.39063,0.0859 4.61196,-1.51426 9.43401,-2.88687 14.9082,-3.78515 1.59586,-0.27216 2.73777,-0.41787 3.66797,-0.41407 z M 466.4375,153.02539 183.53711,316.42578 22.837891,223.125 0.03710937,236.32422 l 183.30078063,106.5 6,-3.39844 16.90039,-9.70117 L 489.03711,166.125 Z m -308.09961,27.63672 c -1.3,-0.0125 -2.5996,0.26328 -3.59961,0.86328 L 132.03711,194.625 c -2,1.2 -2,3.09923 0,4.19922 l 12.90039,7.5 c 1.99999,1.09999 5.19921,1.2 7.19922,0 l 22.70117,-13.09961 c 1.99998,-1.2 1.99998,-2.99922 0,-4.19922 l -12.90039,-7.5 c -0.99999,-0.55002 -2.29961,-0.85078 -3.59961,-0.86328 z m 308.09961,29.36328 -283.30078,163.79883 -159.898439,-93 L 0.4375,294.02539 183.03711,400.125 188.9375,396.72461 205.83789,387.02539 489.03711,223.125 Z"
       transform="matrix(0.26458333,0,0,0.26458333,61.453459,284.54963)" />
    <path
       d="m 154.51084,228.7296 c -0.55586,0.54458 -1.08806,1.0773 -1.67942,1.61005 -0.34299,0.31965 -0.56774,0.46175 -0.80439,0.46185 -0.11833,8e-5 -0.27218,-0.0708 -0.41423,-0.17727 -0.80484,-0.48474 -1.77526,-0.76825 -2.95853,-0.82683 -0.13019,-0.0236 -0.27217,-0.0117 -0.42599,-0.0234 -0.35498,1.7e-4 -0.73361,0.0122 -1.12403,0.11887 -1.41973,0.35567 -2.29483,1.38553 -1.73836,2.08339 0.27235,0.36666 0.67476,0.63862 1.12453,0.88687 0.76931,0.41377 1.58595,0.80384 2.24882,1.30048 2.13064,1.59635 0.85431,4.83909 -2.72993,6.89971 -1.31302,0.74612 -2.64989,1.20822 -4.02236,1.42188 -0.60341,0.095 -0.98196,0.28446 -1.25388,0.74606 -0.2601,0.42611 -0.56753,0.87589 -0.85129,1.31383 -0.24829,0.3906 -0.62684,0.58011 -1.11198,0.55668 l -0.99396,-0.035 c -0.23665,1.2e-4 -0.46148,-0.0353 -0.70997,-0.0588 -0.48515,-0.0234 -0.55628,-0.28371 -0.29618,-0.70981 0.201,-0.30773 0.41382,-0.65098 0.61482,-0.95873 0.47295,-0.71018 0.44926,-0.7575 -0.3081,-0.91095 -0.95853,-0.20068 -1.85793,-0.46056 -2.55627,-0.90985 -0.5563,-0.34287 -0.52088,-0.50854 0.10593,-1.1478 0.49673,-0.48538 0.96979,-0.95892 1.46652,-1.44429 0.3548,-0.35515 0.57955,-0.49726 0.81619,-0.49739 0.13018,0.0236 0.27218,0.0709 0.42608,0.20094 0.75753,0.50843 1.70429,0.86294 2.80482,1.05172 l 0.568,0.0707 c 0.55615,0.0471 1.14774,-0.0124 1.81029,-0.16654 1.60903,-0.39127 2.6615,-1.65786 2.04581,-2.47401 -0.20128,-0.28389 -0.50904,-0.48488 -0.85229,-0.6977 -0.86401,-0.48471 -1.85814,-0.87469 -2.60388,-1.47778 -1.1719,-0.98152 -1.51567,-2.25927 -0.19131,-4.04664 1.47808,-2.01225 3.66651,-3.19658 6.32856,-3.73035 1.10033,-0.22536 1.10033,-0.22536 1.62056,-1.01839 0.1892,-0.27224 0.35472,-0.53264 0.54391,-0.80488 0.41384,-0.59183 0.60312,-0.68659 1.32492,-0.66327 0.0829,-0.0119 0.15383,0.0118 0.21299,0.0117 0.15384,0.0118 0.30765,0.0235 0.43782,0.0471 1.52644,0.0939 1.52644,0.0939 0.71066,1.36038 -0.5912,0.88773 -0.57935,0.91139 0.37918,1.11207 0.75737,0.15344 1.42012,0.41344 1.98822,0.72081 0.42607,0.20094 0.42619,0.43759 0.0477,0.80458 z"
       style="fill:url(#linearGradient2446);fill-opacity:1;stroke-width:0.264583"
       id="path2412"
       inkscape:transform-center-x="-10.75901"
       inkscape:transform-center-y="13.176213" />
    <path
       d="m 47.852484,199.58372 c 0.193963,0.75361 0.389478,1.4808 0.555465,2.25925 0.105495,0.45682 0.116283,0.72251 -0.0019,0.92755 -0.05906,0.10253 -0.197378,0.20036 -0.360539,0.27022 -0.822052,0.45495 -1.552524,1.15387 -2.194527,2.14956 -0.08551,0.10097 -0.146133,0.2299 -0.233177,0.35728 -0.177223,0.30757 -0.35601,0.64155 -0.458689,1.03304 -0.401324,1.40751 0.05348,2.68013 0.936025,2.54681 0.453695,-0.0527 0.890347,-0.26538 1.330127,-0.53092 0.742821,-0.45963 1.488758,-0.9721 2.250181,-1.29812 2.447409,-1.04792 4.618544,1.67798 4.612499,5.81234 -0.0098,1.51018 -0.277536,2.89908 -0.778255,4.19469 -0.219263,0.57013 -0.244265,0.99273 0.0197,1.45892 0.239128,0.43822 0.47512,0.92926 0.712674,1.39389 0.214276,0.41025 0.189275,0.83285 -0.07344,1.24137 l -0.526983,0.84348 c -0.118146,0.20505 -0.261143,0.38212 -0.405702,0.58561 -0.262716,0.40852 -0.523709,0.34008 -0.762837,-0.0981 -0.166126,-0.32788 -0.357113,-0.68374 -0.523249,-1.01162 -0.37884,-0.76454 -0.431668,-0.76767 -0.943025,-0.18832 -0.652792,0.73002 -1.327311,1.37923 -2.065444,1.75964 -0.574964,0.31054 -0.700773,0.19708 -0.941303,-0.6653 -0.172236,-0.6728 -0.346036,-1.31919 -0.518263,-1.99199 -0.130346,-0.48479 -0.141134,-0.75048 -0.02301,-0.95553 0.08551,-0.10096 0.197387,-0.20036 0.386962,-0.26866 0.818928,-0.40213 1.599091,-1.04509 2.312524,-1.90404 l 0.345072,-0.45667 c 0.318658,-0.45823 0.562772,-1.00038 0.760309,-1.65131 0.46508,-1.58927 -0.10615,-3.13382 -1.120753,-3.00832 -0.346483,0.0325 -0.674369,0.19865 -1.030229,0.38964 -0.851592,0.50621 -1.686146,1.17246 -2.58118,1.51708 -1.435781,0.52466 -2.714353,0.18397 -3.600826,-1.85632 -1.004469,-2.28581 -0.93682,-4.77324 -0.069,-7.34585 0.354608,-1.06571 0.354608,-1.06571 -0.07237,-1.91261 -0.141285,-0.29992 -0.284132,-0.57341 -0.425417,-0.87332 -0.305858,-0.6542 -0.293358,-0.8655 0.0875,-1.47908 0.03114,-0.0777 0.08707,-0.12737 0.116583,-0.17864 0.08707,-0.12737 0.174098,-0.25474 0.25958,-0.3557 0.844089,-1.27529 0.844089,-1.27529 1.533476,0.0642 0.473547,0.95567 0.499961,0.95723 1.152753,0.22722 0.511358,-0.57936 1.06773,-1.02353 1.617852,-1.36204 0.386952,-0.26866 0.592002,-0.15051 0.720786,0.3607 z"
       style="fill:url(#linearGradient2654);fill-opacity:1;stroke-width:0.264583"
       id="path2412-7"
       inkscape:transform-center-x="28.360179"
       inkscape:transform-center-y="11.729339" />
  </g>
</svg>
