<?xml version="1.0" encoding="UTF-8" standalone="no"?>
<!-- Created with Inkscape (http://www.inkscape.org/) -->

<svg
   width="150.70432mm"
   height="150.70432mm"
   viewBox="0 0 150.70432 150.70432"
   version="1.1"
   id="svg9653"
   sodipodi:docname="phx-sacred-pause.svg"
   inkscape:version="1.1 (1:1.1+202105261518+ce6663b3b7)"
   xmlns:inkscape="http://www.inkscape.org/namespaces/inkscape"
   xmlns:sodipodi="http://sodipodi.sourceforge.net/DTD/sodipodi-0.dtd"
   xmlns:xlink="http://www.w3.org/1999/xlink"
   xmlns="http://www.w3.org/2000/svg"
   xmlns:svg="http://www.w3.org/2000/svg">
  <sodipodi:namedview
     id="namedview33"
     pagecolor="#ffffff"
     bordercolor="#666666"
     borderopacity="1.0"
     inkscape:pageshadow="2"
     inkscape:pageopacity="0.0"
     inkscape:pagecheckerboard="0"
     inkscape:document-units="mm"
     showgrid="false"
     inkscape:zoom="0.37044117"
     inkscape:cx="-206.51052"
     inkscape:cy="359.03136"
     inkscape:window-width="1848"
     inkscape:window-height="1035"
     inkscape:window-x="72"
     inkscape:window-y="27"
     inkscape:window-maximized="1"
     inkscape:current-layer="g9904" />
  <defs
     id="defs9650">
    <linearGradient
       xlink:href="#linearGradient56968"
       id="linearGradient8791"
       x1="2179.1511"
       y1="66.3237"
       x2="2334.5925"
       y2="-49.296471"
       gradientUnits="userSpaceOnUse"
       gradientTransform="matrix(1.3977525,0,0,1.3977525,-1872.7639,-483.50681)" />
    <linearGradient
       id="linearGradient56968">
      <stop
         style="stop-color:#8f541c;stop-opacity:1"
         offset="0"
         id="stop56952" />
      <stop
         style="stop-color:#b09042;stop-opacity:1"
         offset="0.12773934"
         id="stop56954" />
      <stop
         style="stop-color:#d5bf6a;stop-opacity:1"
         offset="0.24002911"
         id="stop56956" />
      <stop
         style="stop-color:#966e2b;stop-opacity:1"
         offset="0.44441992"
         id="stop56958" />
      <stop
         style="stop-color:#c6aa56;stop-opacity:1"
         offset="0.58005458"
         id="stop56960" />
      <stop
         style="stop-color:#d1a546;stop-opacity:1"
         offset="0.7485435"
         id="stop56962" />
      <stop
         style="stop-color:#9f7a34;stop-opacity:1"
         offset="0.87265646"
         id="stop56964" />
      <stop
         style="stop-color:#906230;stop-opacity:1"
         offset="1"
         id="stop56966" />
    </linearGradient>
    <linearGradient
       xlink:href="#linearGradient56968"
       id="linearGradient7079"
       gradientUnits="userSpaceOnUse"
       gradientTransform="matrix(2.6775605,0,0,2.6775605,1428.1986,-152.36256)"
       x1="48.331177"
       y1="29.17609"
       x2="261.53192"
       y2="136.40536" />
    <linearGradient
       id="linearGradient9447">
      <stop
         style="stop-color:#ffba26;stop-opacity:1"
         offset="0"
         id="stop9443" />
      <stop
         style="stop-color:#4f3106;stop-opacity:1"
         offset="0.59191859"
         id="stop9547" />
      <stop
         style="stop-color:#c06a00;stop-opacity:1"
         offset="1"
         id="stop9445" />
    </linearGradient>
    <linearGradient
       xlink:href="#linearGradient56968"
       id="linearGradient11992"
       x1="-17.294577"
       y1="-603.89331"
       x2="301.55008"
       y2="-182.53545"
       gradientUnits="userSpaceOnUse"
       gradientTransform="matrix(0.23908616,0,0,0.23908616,71.389079,277.67677)" />
    <linearGradient
       xlink:href="#linearGradient9447"
       id="linearGradient94152-2"
       x1="429.6311"
       y1="398.61551"
       x2="378.98492"
       y2="364.66324"
       gradientUnits="userSpaceOnUse"
       gradientTransform="matrix(0.26458333,0,0,0.26458333,0.74763401,122.95339)" />
  </defs>
  <g
     id="layer1"
     transform="translate(-31.879833,-118.89396)">
    <g
       id="g9904"
       transform="matrix(0.26458333,0,0,0.26458333,-387.77241,213.88928)">
      <path
         style="fill:none;fill-opacity:1;stroke:#3d677f;stroke-width:41;stroke-linecap:round;stroke-linejoin:round;stroke-miterlimit:4;stroke-dasharray:none;stroke-opacity:1"
         id="cyan-border-8-5"
         width="447.40363"
         height="449.28769"
         d="m 2131.216,-42.70297 a 262.31711,263.62186 0 0 1 -292.0163,229.90702 262.31711,263.62186 0 0 1 -228.7939,-293.4494 262.31711,263.62186 0 0 1 291.9777,-229.95667 262.31711,263.62186 0 0 1 228.8432,293.410489" />
      <path
         style="display:inline;fill:#000000;fill-opacity:0;stroke:url(#linearGradient7079);stroke-width:34;stroke-linecap:round;stroke-miterlimit:4;stroke-dasharray:none;stroke-opacity:1"
         id="goldcircle-2"
         width="447.40363"
         height="449.28769"
         clip-path="none"
         d="M 1943.6453,-331.92175 A 267.75607,267.75607 0 0 1 2128.5832,-1.5518908 267.75607,267.75607 0 0 1 1798.2654,183.47898 267.75607,267.75607 0 0 1 1613.1416,-146.78671 267.75607,267.75607 0 0 1 1943.3551,-332.00351" />
      <path
         style="display:inline;opacity:0;fill:#000000;fill-opacity:0;stroke:#000000;stroke-width:1px;stroke-linecap:butt;stroke-linejoin:miter;stroke-opacity:1"
         d="m 1590.8997,-84.30791 c 22.1527,380.54509 538.0489,384.17087 559.8901,1.89896"
         id="path24852-0" />
      <text
         xml:space="preserve"
         style="font-style:normal;font-variant:normal;font-weight:normal;font-stretch:normal;font-size:32px;line-height:1.25;font-family:sans-serif;-inkscape-font-specification:'sans-serif, Normal';font-variant-ligatures:normal;font-variant-caps:normal;font-variant-numeric:normal;font-variant-east-asian:normal;text-align:center;text-anchor:middle;display:inline;fill:#ffffff;fill-opacity:1;stroke:none"
         id="text15613-4"><textPath
           xlink:href="#path24852-0"
           startOffset="50%"
           id="textPath25105-0">pause.period.ml</textPath></text>
    </g>
    <path
       id="path10561"
       style="fill:url(#linearGradient11992);fill-opacity:1;stroke-width:0.239086"
       d="m 107.43085,134.40112 c -0.0633,9e-4 -0.12798,0.006 -0.19426,0.0159 -0.0633,0.002 -0.12674,0.003 -0.19005,0.005 -1.26231,0.0144 -1.70099,1.3987 -2.24564,2.29841 -1.71261,3.19023 -3.45292,6.42147 -5.556416,9.39627 -5.057871,7.37817 -11.531923,13.71358 -18.714095,19.01575 -4.82303,3.77722 -8.752327,8.95527 -10.188713,14.98585 -1.447808,5.72755 -1.13571,11.6642 -0.466498,17.48972 1.391517,11.61022 5.526367,22.87672 11.990732,32.62218 4.394471,6.70436 9.917748,12.6784 16.174271,17.67183 2.768529,2.19751 5.638759,4.32575 8.803229,5.91411 1.18019,0.22716 2.10526,-0.75748 3.08291,-1.24026 5.57625,-3.42999 10.52888,-7.73763 15.019,-12.49365 6.07804,-6.51296 11.03382,-14.1935 14.42781,-22.47223 2.98527,-7.17267 4.87673,-14.80293 5.60452,-22.51612 0.0811,-1.46221 0.15787,-3.12236 0.17231,-4.66359 0.005,-2.72952 -0.01,-5.4144 -0.42634,-8.11259 -0.9683,-5.13089 -3.34933,-10.02989 -6.96058,-13.82076 -1.10345,-1.16594 -2.46905,-2.34346 -3.83378,-3.3841 -5.34986,-4.21347 -10.56976,-8.67458 -14.87285,-13.9828 -3.82338,-4.61422 -6.96262,-9.75287 -9.67598,-15.08531 -0.37746,-0.7875 -0.99952,-1.66133 -1.94958,-1.64326 z m -0.28718,8.52866 c 0.0602,-0.005 0.12153,-0.004 0.18351,0.003 1.40255,0.2525 1.83527,1.82098 2.56271,2.83401 5.58326,8.9729 13.28388,16.42342 21.60694,22.8472 3.25921,2.59401 6.16338,5.81957 7.64282,9.77032 1.25823,2.9991 1.78827,6.26644 1.69649,9.51021 0.0885,4.52964 -0.13695,9.08625 -1.10204,13.52331 -1.32502,7.0283 -3.57845,13.91348 -7.0451,20.18737 -3.35582,6.31789 -7.45947,12.28993 -12.60246,17.29032 -3.34894,3.28924 -6.92862,6.36567 -10.80931,9.0129 -0.76299,0.41086 -1.53881,1.20018 -2.47305,0.87883 -0.9986,-0.37424 -1.79064,-1.1383 -2.69532,-1.68715 -13.289816,-9.32763 -23.19542,-23.32164 -27.721386,-38.9024 -1.988833,-7.02287 -2.957559,-14.34975 -2.758363,-21.64944 0.327541,-6.27932 3.012106,-12.56334 7.880504,-16.65011 2.436562,-2.03294 5.013392,-3.89506 7.365909,-6.03086 3.374909,-3.02096 6.560541,-6.20423 9.55037,-9.60173 2.863726,-3.33168 5.242976,-7.03621 7.661966,-10.69071 0.26126,-0.32406 0.63444,-0.61139 1.05581,-0.6444 z m 0.11907,20.60297 c -0.0908,0.005 -0.17726,0.0371 -0.2657,0.0644 -1.59042,0.6128 -2.62753,2.05723 -3.87674,3.14594 -4.728597,4.64211 -9.576966,9.4749 -12.255972,15.648 -1.891855,4.2307 -3.197426,8.78458 -3.300977,13.44159 -0.09949,3.84141 -0.01036,7.69115 1.021721,11.42104 1.321189,4.95961 3.657116,9.59328 6.816289,13.67508 1.227483,1.675 2.713709,3.13467 4.027108,4.73548 1.280261,1.77311 2.075771,3.96171 3.935111,5.2557 1.78006,1.42214 4.37584,1.89039 6.43665,0.79618 2.14195,-0.98784 3.57378,-2.98485 4.62669,-5.02128 1.66917,-2.50467 4.00207,-4.48506 5.64281,-7.01475 3.90297,-5.49968 6.5426,-12.02845 6.86532,-18.80796 0.15567,-2.94835 0.11904,-6.04468 -0.29839,-8.90689 -0.60361,-3.72817 -1.87549,-7.40632 -3.54053,-10.79951 -2.85568,-5.85365 -7.58065,-10.39192 -12.17004,-14.92046 -1.12951,-0.95979 -2.0957,-2.27842 -3.57089,-2.7084 -0.0314,-0.005 -0.0622,-0.006 -0.0925,-0.005 z m 0.0379,4.9531 c 1.41403,0 2.53282,1.11879 2.53282,2.53282 0,1.41402 -1.11879,2.53282 -2.53282,2.53282 -1.41402,0 -2.53282,-1.1188 -2.53282,-2.53282 0,-1.41403 1.1188,-2.53282 2.53282,-2.53282 z m -4.98952,3.67921 c 0.5255,2.267 2.57021,3.97341 4.98952,3.97341 2.07981,0 3.88259,-1.26124 4.6818,-3.05535 2.66233,2.78074 4.84919,5.34947 6.71589,8.98207 2.27035,4.18766 3.82443,8.84127 3.95893,13.63258 0.18241,4.05206 0.007,8.19639 -1.31918,12.06451 -0.98228,3.23396 -2.67269,6.17632 -4.19101,9.17587 -0.70893,-3.9312 -0.99692,-7.93711 -2.67057,-11.61623 -1.14536,-2.39559 -2.88033,-4.84449 -5.53867,-5.65541 -1.67411,-0.28825 -3.60531,-0.31131 -5.00868,0.80084 -2.98219,2.02771 -4.414056,5.5719 -5.214593,8.95733 -0.577297,2.50504 -1.025594,5.03735 -1.556862,7.55223 -1.997627,-4.49629 -4.530785,-8.92158 -5.038088,-13.90389 -0.365203,-3.90698 -0.436329,-7.88441 0.258698,-11.75865 0.767373,-3.66762 2.200307,-7.19537 4.114897,-10.41145 2.236339,-3.57699 3.473785,-6.67073 5.817918,-8.73786 z m 4.80974,12.90038 c -1.321,0.2262 -2.52604,1.84099 -1.67688,3.09551 0.56089,1.01653 2.07366,1.52711 2.97925,0.7168 0.90007,-0.58982 1.35338,-1.97351 0.51786,-2.81394 -0.42486,-0.56178 -1.08801,-1.03054 -1.82023,-0.99837 z m 0.3194,18.73278 c 1.58095,0.20405 2.33561,1.77965 2.97877,3.04228 1.90407,3.78102 1.87721,8.15018 1.65213,12.27558 -0.25338,2.54385 -1.03928,5.08241 -2.47025,7.21227 -0.58027,0.7659 -1.3264,1.66813 -2.34977,1.72684 -1.31612,-0.0667 -2.00917,-1.38249 -2.69159,-2.32782 -2.1526,-3.41078 -2.26767,-7.60216 -2.15503,-11.51022 0.13635,-3.35758 0.95524,-6.83342 3.05021,-9.5275 0.50292,-0.55571 1.22206,-0.93647 1.98553,-0.89143 z" />
    <circle
       style="opacity:0.8;fill:url(#linearGradient94152-2);fill-opacity:1;stroke-width:10.8744;stroke-linecap:round;stroke-linejoin:round;stroke-miterlimit:4;stroke-dasharray:none"
       id="path93984-6"
       cx="107.10331"
       cy="224.7036"
       r="7.4898868" />
  </g>
</svg>
