<?xml version="1.0" encoding="UTF-8" standalone="no"?>
<!-- Created with Inkscape (http://www.inkscape.org/) -->

<svg
   width="150.70432mm"
   height="150.70432mm"
   viewBox="0 0 150.70432 150.70432"
   version="1.1"
   id="svg9653"
   xmlns:xlink="http://www.w3.org/1999/xlink"
   xmlns="http://www.w3.org/2000/svg"
   xmlns:svg="http://www.w3.org/2000/svg">
  <defs
     id="defs9650">
    <linearGradient
       xlink:href="#linearGradient56968"
       id="linearGradient8791"
       x1="2179.1511"
       y1="66.3237"
       x2="2334.5925"
       y2="-49.296471"
       gradientUnits="userSpaceOnUse"
       gradientTransform="matrix(1.3977525,0,0,1.3977525,-1317.8458,-27.842432)" />
    <linearGradient
       id="linearGradient56968">
      <stop
         style="stop-color:#8f541c;stop-opacity:1"
         offset="0"
         id="stop56952" />
      <stop
         style="stop-color:#b09042;stop-opacity:1"
         offset="0.12773934"
         id="stop56954" />
      <stop
         style="stop-color:#d5bf6a;stop-opacity:1"
         offset="0.24002911"
         id="stop56956" />
      <stop
         style="stop-color:#966e2b;stop-opacity:1"
         offset="0.44441992"
         id="stop56958" />
      <stop
         style="stop-color:#c6aa56;stop-opacity:1"
         offset="0.58005458"
         id="stop56960" />
      <stop
         style="stop-color:#d1a546;stop-opacity:1"
         offset="0.7485435"
         id="stop56962" />
      <stop
         style="stop-color:#9f7a34;stop-opacity:1"
         offset="0.87265646"
         id="stop56964" />
      <stop
         style="stop-color:#906230;stop-opacity:1"
         offset="1"
         id="stop56966" />
    </linearGradient>
    <linearGradient
       xlink:href="#linearGradient56968"
       id="linearGradient7079"
       gradientUnits="userSpaceOnUse"
       gradientTransform="matrix(2.6775605,0,0,2.6775605,1428.1986,-152.36256)"
       x1="48.331177"
       y1="29.17609"
       x2="261.53192"
       y2="136.40536" />
    <linearGradient
       xlink:href="#linearGradient9447"
       id="linearGradient94152-2"
       x1="429.6311"
       y1="398.61551"
       x2="378.98492"
       y2="364.66324"
       gradientUnits="userSpaceOnUse"
       gradientTransform="translate(1564.4912,-336.37692)" />
    <linearGradient
       id="linearGradient9447">
      <stop
         style="stop-color:#ffba26;stop-opacity:1"
         offset="0"
         id="stop9443" />
      <stop
         style="stop-color:#4f3106;stop-opacity:1"
         offset="0.59191859"
         id="stop9547" />
      <stop
         style="stop-color:#c06a00;stop-opacity:1"
         offset="1"
         id="stop9445" />
    </linearGradient>
  </defs>
  <g
     id="layer1"
     transform="translate(-31.879833,-118.89396)">
    <g
       id="g9904"
       transform="matrix(0.26458333,0,0,0.26458333,-387.77241,213.88928)">
      <path
         id="path1008"
         style="fill:url(#linearGradient8791);fill-opacity:1;stroke-width:4.62226"
         d="m 1888.8248,-282.10506 c -3.4953,-0.81377 -55.8898,55.14511 -68.4243,73.07897 -15.3831,22.01013 -18.4036,60.01939 -7.0024,88.13485 5.3643,13.22872 7.7656,25.06964 5.3344,26.31159 -2.4313,1.24202 -14.3796,6.77246 -26.5519,12.2904 -70.8126,32.09892 -77.1003,129.878173 -9.3665,145.647438 9.9042,2.305817 25.0461,1.868481 33.6498,-0.971875 19.7704,-6.527038 50.9419,-53.4938681 52.099,-66.7044591 0.7882,-8.9997089 -3.6786,-10.8018729 -13.8109,4.52904496 -24.1855,36.59431814 -44.2856,50.63840814 -70.5046,44.53425114 -32.5001,-7.566381 -44.0379,-45.8585791 -23.8138,-79.030345 8.4392,-13.84166 65.8914,-53.551775 74.5586,-51.533935 6.8074,1.58482 6.6076,-11.128801 -0.3303,-21.13008 -11.8036,-17.01466 -15.0479,-44.08915 -8.3891,-69.97498 4.8028,-18.67009 11.8378,-30.77592 30.3273,-52.17549 20.7082,-23.96768 24.4681,-26.57154 26.8904,-18.62396 1.5491,5.08181 8.507,24.64492 15.4626,43.4723 18.3756,49.73874 21.03,72.15051 3.6527,116.17998 -17.6893,34.26969 -3.2711,22.98751 12.2031,7.19078 23.3507,-41.48445 15.7034,-88.0903 -2.1404,-127.68688 -6.2029,-13.76482 -13.4774,-35.79529 -16.1643,-48.95683 -2.6866,-13.16155 -6.1422,-24.22292 -7.6794,-24.58077 z m 42.5578,216.34587 c -6.9265,-0.28638 -12.5308,2.84092 -18.643,10.40124 -5.6022,6.929471 -8.8544,12.93907 -14.4444,26.685605 -7.952,19.5547364 -15.2344,33.6535019 -24.0485,46.568088 -8.4128,12.326566 -27.1,34.889071 -37.4363,45.200367 -13.7994,13.76598 -21.4404,22.033947 -22.2384,24.06209 -0.7891,2.005501 -0.5554,1.994843 5.7848,-0.322138 6.5556,-2.395973 16.6605,-8.491341 31.7389,-19.148117 40.0358,-28.295863 68.2283,-58.6741421 84.998,-91.585547 5.9511,-11.679471 8.1723,-18.725468 8.2419,-26.142337 0.088,-9.350641 -5.2458,-15.359441 -13.953,-15.719251 z" />
      <path
         style="fill:none;fill-opacity:1;stroke:#3d677f;stroke-width:41;stroke-linecap:round;stroke-linejoin:round;stroke-miterlimit:4;stroke-dasharray:none;stroke-opacity:1"
         id="cyan-border-8-5"
         width="447.40363"
         height="449.28769"
         d="m 2131.216,-42.70297 a 262.31711,263.62186 0 0 1 -292.0163,229.90702 262.31711,263.62186 0 0 1 -228.7939,-293.4494 262.31711,263.62186 0 0 1 291.9777,-229.95667 262.31711,263.62186 0 0 1 228.8432,293.410489" />
      <path
         style="display:inline;fill:#000000;fill-opacity:0;stroke:url(#linearGradient7079);stroke-width:34;stroke-linecap:round;stroke-miterlimit:4;stroke-dasharray:none;stroke-opacity:1"
         id="goldcircle-2"
         width="447.40363"
         height="449.28769"
         clip-path="none"
         d="M 1943.6453,-331.92175 A 267.75607,267.75607 0 0 1 2128.5832,-1.5518908 267.75607,267.75607 0 0 1 1798.2654,183.47898 267.75607,267.75607 0 0 1 1613.1416,-146.78671 267.75607,267.75607 0 0 1 1943.3551,-332.00351" />
      <path
         style="display:inline;opacity:0;fill:#000000;fill-opacity:0;stroke:#000000;stroke-width:1px;stroke-linecap:butt;stroke-linejoin:miter;stroke-opacity:1"
         d="m 1590.8997,-84.30791 c 22.1527,380.54509 538.0489,384.17087 559.8901,1.89896"
         id="path24852-0" />
      <text
         xml:space="preserve"
         style="font-style:normal;font-variant:normal;font-weight:normal;font-stretch:normal;font-size:32px;line-height:1.25;font-family:sans-serif;-inkscape-font-specification:'sans-serif, Normal';font-variant-ligatures:normal;font-variant-caps:normal;font-variant-numeric:normal;font-variant-east-asian:normal;text-align:center;text-anchor:middle;display:inline;fill:#ffffff;fill-opacity:1;stroke:none"
         id="text15613-4"><textPath
           xlink:href="#path24852-0"
           startOffset="50%"
           id="textPath25105-0">pause.period.ml</textPath></text>
      <circle
         style="opacity:0.8;fill:url(#linearGradient94152-2);fill-opacity:1;stroke-width:41.1;stroke-linecap:round;stroke-linejoin:round;stroke-miterlimit:4;stroke-dasharray:none"
         id="path93984-6"
         cx="1966.4655"
         cy="48.19083"
         r="28.308233" />
    </g>
  </g>
</svg>
