<?xml version="1.0" encoding="UTF-8" standalone="no"?>
<!-- Created with Inkscape (http://www.inkscape.org/) -->

<svg
   version="1.1"
   id="svg2"
   width="2000"
   height="2666.6667"
   viewBox="0 0 2000 2666.6667"
   xmlns:xlink="http://www.w3.org/1999/xlink"
   xmlns="http://www.w3.org/2000/svg"
   xmlns:svg="http://www.w3.org/2000/svg">
  <defs
     id="defs6">
    <linearGradient
       xlink:href="#linearGradient56968"
       id="linearGradient969"
       x1="928.14319"
       y1="2394.5083"
       x2="1301.585"
       y2="423.62897"
       gradientUnits="userSpaceOnUse" />
    <linearGradient
       id="linearGradient1013">
      <stop
         style="stop-color:#b02b00;stop-opacity:1"
         offset="0"
         id="stop1007" />
      <stop
         style="stop-color:#532a08;stop-opacity:1"
         offset="0.46945262"
         id="stop1499" />
      <stop
         style="stop-color:#cd8618;stop-opacity:1"
         offset="0.72121179"
         id="stop1049" />
      <stop
         style="stop-color:#ffb813;stop-opacity:1"
         offset="1"
         id="stop1011" />
    </linearGradient>
    <linearGradient
       xlink:href="#linearGradient56968"
       id="linearGradient93222"
       x1="445.36871"
       y1="295.82675"
       x2="683.64679"
       y2="295.82675"
       gradientUnits="userSpaceOnUse" />
    <linearGradient
       id="linearGradient56968">
      <stop
         style="stop-color:#8f541c;stop-opacity:1"
         offset="0"
         id="stop56952" />
      <stop
         style="stop-color:#b09042;stop-opacity:1"
         offset="0.12773934"
         id="stop56954" />
      <stop
         style="stop-color:#d5bf6a;stop-opacity:1"
         offset="0.24002911"
         id="stop56956" />
      <stop
         style="stop-color:#966e2b;stop-opacity:1"
         offset="0.44441992"
         id="stop56958" />
      <stop
         style="stop-color:#c6aa56;stop-opacity:1"
         offset="0.58005458"
         id="stop56960" />
      <stop
         style="stop-color:#d1a546;stop-opacity:1"
         offset="0.7485435"
         id="stop56962" />
      <stop
         style="stop-color:#9f7a34;stop-opacity:1"
         offset="0.87265646"
         id="stop56964" />
      <stop
         style="stop-color:#906230;stop-opacity:1"
         offset="1"
         id="stop56966" />
    </linearGradient>
    <filter
       style="color-interpolation-filters:sRGB"
       id="filter12441-4-7"
       x="-0.0035613894"
       y="-0.0038209285"
       width="1.0123222"
       height="1.0103571">
      <feFlood
         flood-opacity="0.89336279197832147"
         flood-color="rgb(36,9,63)"
         result="flood"
         id="feFlood12431-4-93" />
      <feComposite
         in="flood"
         in2="SourceGraphic"
         operator="in"
         result="composite1"
         id="feComposite12433-4-7" />
      <feGaussianBlur
         stdDeviation="0.01"
         id="feGaussianBlur60980-87" />
      <feOffset
         dx="1"
         dy="0.5"
         result="offset"
         id="feOffset12437-7-41" />
      <feComposite
         in="SourceGraphic"
         in2="offset"
         operator="over"
         result="fbSourceGraphic"
         id="feComposite12439-6-90" />
    </filter>
    <filter
       style="color-interpolation-filters:sRGB"
       id="filter1362"
       x="-0.0035613894"
       y="-0.0038209285"
       width="1.0123222"
       height="1.0103571">
      <feFlood
         flood-opacity="0.89336279197832147"
         flood-color="rgb(36,9,63)"
         result="flood"
         id="feFlood1352" />
      <feComposite
         in="flood"
         in2="SourceGraphic"
         operator="in"
         result="composite1"
         id="feComposite1354" />
      <feGaussianBlur
         stdDeviation="0.01"
         id="feGaussianBlur1356" />
      <feOffset
         dx="1"
         dy="0.5"
         result="offset"
         id="feOffset1358" />
      <feComposite
         in="SourceGraphic"
         in2="offset"
         operator="over"
         result="fbSourceGraphic"
         id="feComposite1360" />
    </filter>
    <filter
       style="color-interpolation-filters:sRGB"
       id="filter1393"
       x="-0.0035613894"
       y="-0.0038209285"
       width="1.0123222"
       height="1.0103571">
      <feFlood
         flood-opacity="0.89336279197832147"
         flood-color="rgb(36,9,63)"
         result="flood"
         id="feFlood1383" />
      <feComposite
         in="flood"
         in2="SourceGraphic"
         operator="in"
         result="composite1"
         id="feComposite1385" />
      <feGaussianBlur
         stdDeviation="0.01"
         id="feGaussianBlur1387" />
      <feOffset
         dx="1"
         dy="0.5"
         result="offset"
         id="feOffset1389" />
      <feComposite
         in="SourceGraphic"
         in2="offset"
         operator="over"
         result="fbSourceGraphic"
         id="feComposite1391" />
    </filter>
    <filter
       style="color-interpolation-filters:sRGB"
       id="filter1424"
       x="-0.0035613894"
       y="-0.0038209285"
       width="1.0123222"
       height="1.0103571">
      <feFlood
         flood-opacity="0.89336279197832147"
         flood-color="rgb(36,9,63)"
         result="flood"
         id="feFlood1414" />
      <feComposite
         in="flood"
         in2="SourceGraphic"
         operator="in"
         result="composite1"
         id="feComposite1416" />
      <feGaussianBlur
         stdDeviation="0.01"
         id="feGaussianBlur1418" />
      <feOffset
         dx="1"
         dy="0.5"
         result="offset"
         id="feOffset1420" />
      <feComposite
         in="SourceGraphic"
         in2="offset"
         operator="over"
         result="fbSourceGraphic"
         id="feComposite1422" />
    </filter>
    <linearGradient
       xlink:href="#linearGradient9447"
       id="linearGradient94152"
       x1="429.6311"
       y1="398.61551"
       x2="378.98492"
       y2="364.66324"
       gradientUnits="userSpaceOnUse"
       gradientTransform="translate(0,6)" />
    <linearGradient
       id="linearGradient9447">
      <stop
         style="stop-color:#ffba26;stop-opacity:1"
         offset="0"
         id="stop9443" />
      <stop
         style="stop-color:#4f3106;stop-opacity:1"
         offset="0.59191859"
         id="stop9547" />
      <stop
         style="stop-color:#c06a00;stop-opacity:1"
         offset="1"
         id="stop9445" />
    </linearGradient>
    <linearGradient
       xlink:href="#linearGradient56968"
       id="linearGradient1823"
       gradientUnits="userSpaceOnUse"
       x1="425.34253"
       y1="878.10895"
       x2="708.51868"
       y2="1013.9222" />
    <linearGradient
       xlink:href="#linearGradient56968"
       id="linearGradient1825"
       gradientUnits="userSpaceOnUse"
       x1="408.53503"
       y1="574.57349"
       x2="833.01624"
       y2="855.05396" />
    <linearGradient
       xlink:href="#linearGradient56968"
       id="linearGradient1827"
       gradientUnits="userSpaceOnUse"
       x1="724.29858"
       y1="663.30322"
       x2="1026.4866"
       y2="625.76245" />
    <linearGradient
       xlink:href="#linearGradient1013"
       id="linearGradient930"
       x1="341.06747"
       y1="889.62933"
       x2="661.85059"
       y2="351.82834"
       gradientUnits="userSpaceOnUse"
       gradientTransform="translate(16.5,16.983929)" />
    <linearGradient
       xlink:href="#linearGradient56968"
       id="linearGradient14939"
       x1="160"
       y1="511.6506"
       x2="864.00073"
       y2="511.6506"
       gradientUnits="userSpaceOnUse"
       gradientTransform="translate(16.5,16.983929)" />
  </defs>
  <g
     id="g8">
    <path
       style="fill:url(#linearGradient969);fill-opacity:1;stroke-width:1.33333"
       d="m 1085.3333,2395.793 c -15.0245,-6.8831 -20.4896,-11.1966 -22.7098,-17.9239 -1.6906,-5.1224 0.6042,-11.426 6.0074,-16.5021 3.7683,-3.5402 4.1246,-3.3784 16.0789,7.2997 12.6233,11.2757 15.1623,11.8157 20.0506,4.2643 2.4749,-3.8235 12.306,-32.7955 14.5597,-42.9075 l 0.8863,-3.9765 -5.7609,5.7038 c -3.1685,3.1371 -8.8711,7.2255 -12.6724,9.0854 -6.6101,3.234 -7.1048,3.2885 -11.3423,1.2522 -15.824,-7.6042 -21.3646,-20.561 -17.7229,-41.4446 3.9432,-22.6119 14.9074,-50.7264 22.6013,-57.9544 4.158,-3.9063 9.5221,-2.7412 15.9008,3.4537 3.9538,3.8399 4.79,5.6009 4.79,10.0877 0,4.6324 -3.7165,15.6408 -8.1374,24.1032 -5.5298,10.5851 -12.5619,35.5 -10.5792,37.4827 5.1822,5.1823 36.8096,-41.3941 44.6923,-65.8167 3.1569,-9.7809 5.5761,-12.4229 10.4776,-11.4426 8.4346,1.6869 16.6114,15.745 14.7936,25.4344 -1.2065,6.4314 -21.9867,68.06 -31.9229,94.6749 -6.1723,16.5332 -14.0238,28.196 -21.9106,32.5468 -6.6972,3.6945 -22.4811,5.1445 -28.0801,2.5795 z m -236.95907,-59.3362 c -8.68528,-9.6262 -10.1776,-13.6976 -8.37071,-22.837 1.92047,-9.714 5.80836,-24.6772 9.94791,-38.2864 5.09777,-16.7595 9.6552,-33.912 11.4536,-43.1074 l 1.65081,-8.4406 -4.75785,-4.226 c -9.50684,-8.4442 -14.84339,-20.7082 -9.84551,-22.626 3.8538,-1.4788 24.75165,2.0102 35.54752,5.9349 28.02485,10.1881 46.42016,22.7209 60.94228,41.52 10.71501,13.8709 13.63669,28.0887 8.12195,39.5241 -3.27279,6.7864 -18.83036,22.8467 -28.6609,29.587 -3.52184,2.4146 -7.00333,4.8736 -7.73666,5.4642 -6.91052,5.5662 -29.3844,16.8751 -41.6246,20.9458 -4.5602,1.5165 -11.16535,2.7573 -14.67808,2.7573 -5.91064,0 -6.80455,-0.4629 -11.98976,-6.2099 z m 26.71193,-24.6796 c 20.28292,-8.4768 50.12777,-31.5248 52.36525,-40.4396 1.8006,-7.1741 -6.2129,-17.0446 -22.64862,-27.897 -15.97082,-10.5455 -16.11744,-10.5494 -18.03556,-0.4734 -1.54706,8.1268 -10.49558,39.6008 -16.92706,59.5363 -4.53186,14.0475 -4.8463,13.4916 5.24599,9.2737 z m 107.13813,26.761 c -3.42809,-2.2707 -7.42444,-5.7207 -8.88074,-7.6667 -1.45632,-1.946 -3.40439,-4.4233 -4.32904,-5.5053 -3.01274,-3.5254 -1.97547,-18.3818 1.9437,-27.8391 9.29454,-22.4284 28.97052,-46.8929 43.04179,-53.5168 13.4044,-6.31 23.6188,-3.6709 36.4483,9.4172 7.4521,7.6023 9.1087,13.8296 6.1183,22.9985 -1.239,3.7991 -2.8562,7.6686 -3.5937,8.5991 -0.9409,1.1869 -0.6436,2.4621 0.9964,4.2744 2.2058,2.4373 2.2133,3.0929 0.1343,11.6416 -1.2117,4.9824 -3.0623,13.2589 -4.1125,18.3923 -2.8959,14.1549 -4.9756,21.2297 -6.5591,22.3129 -4.754,3.252 -10.2612,-1.072 -14.6043,-11.4664 -1.1137,-2.6656 -2.3295,-4.8465 -2.7017,-4.8465 -0.3722,0 -3.2529,2.4306 -6.4014,5.4014 -13.303,12.552 -26.26052,15.2483 -37.50031,7.8034 z m 21.36681,-22.8098 c 10.1226,-5.0554 19.8981,-14.9749 24.4792,-24.8397 2.2703,-4.8888 4.9415,-10.5145 5.936,-12.5019 2.4982,-4.9917 0.3428,-13.0534 -3.49,-13.0534 -7.9926,0 -21.8062,13.4472 -32.18711,31.3333 -11.27587,19.4281 -9.36102,26.3648 5.26191,19.0617 z m -669.85506,-160.254 c -6.51724,-7.404 -12.40271,-18.9398 -12.40271,-24.3101 0,-5.5788 5.09335,-30.0871 13.1447,-63.25 8.3465,-34.3785 14.49728,-64.4647 15.65613,-76.5809 1.13599,-11.877 2.24484,-14 7.31229,-14 4.78472,0 10.10243,2.6008 19.48256,9.5285 10.48376,7.7428 13.54211,11.3164 14.38187,16.8051 2.65361,17.344 9.73219,42.6242 15.75824,56.2786 l 3.12041,7.0706 7.92848,-9.8414 c 4.36067,-5.4128 13.12674,-16.7564 19.48014,-25.208 14.07988,-18.7296 31.58738,-39.0812 38.01165,-44.1865 7.42371,-5.8996 12.64255,-5.2423 20.46232,2.5776 4.51961,4.5196 6.64175,7.8712 7.33977,11.592 1.28167,6.8319 -3.67977,31.9652 -12.77541,64.7168 -3.76767,13.5667 -9.76431,36.6667 -13.32585,51.3333 -9.37874,38.6222 -11.40288,43.3334 -18.61819,43.3334 -7.57209,0 -14.8002,-13.4766 -15.73288,-29.3334 -0.75244,-12.7922 3.18257,-34.4853 11.00464,-60.6666 l 1.99176,-6.6667 -2.97797,3.4757 c -1.6379,1.9118 -6.67276,8.5118 -11.18859,14.6667 -17.67036,24.0844 -26.89091,31.8576 -37.7894,31.8576 -7.25976,0 -15.41792,-4.3401 -18.17312,-9.6681 -2.03476,-3.9348 -6.90287,-20.352 -11.26048,-37.9748 -0.94876,-3.837 -1.92836,-6.773 -2.17689,-6.5244 -0.24854,0.2485 -1.6783,6.9878 -3.17727,14.9762 -4.82869,25.7335 -16.66017,69.8283 -21.51683,80.1911 -3.57184,7.6213 -7.1246,7.5724 -13.95937,-0.1923 z m 329.44724,2.9374 c -2.26188,-1.607 -6.36701,-5.957 -9.12252,-9.6667 -4.89493,-6.5901 -4.99548,-6.9595 -4.37688,-16.0784 0.34823,-5.1333 5.7744,-32.4333 12.05816,-60.6667 6.28375,-28.2333 12.68413,-58.5333 14.22307,-67.3333 1.53893,-8.8 3.22634,-18.4 3.74981,-21.3333 0.85645,-4.7994 1.38297,-5.375 5.25829,-5.7492 3.0791,-0.2972 5.98058,0.736 10.17986,3.6252 12.54581,8.6317 15.26689,13.9845 31.4114,61.7904 13.75758,40.7381 17.77072,51.6641 18.97686,51.6657 2.59778,0 13.1938,-52.9215 19.21975,-95.9988 1.28229,-9.1667 2.82077,-18.0167 3.41885,-19.6667 2.43402,-6.715 16.45454,-1.5924 26.25227,9.5919 4.41852,5.0439 4.42944,5.0908 3.54055,15.2337 -2.65811,30.3312 -15.31099,89.3392 -26.10474,121.7423 -11.50781,34.5467 -17.88886,41.1957 -30.88913,32.1865 -6.71572,-4.654 -7.52753,-6.3724 -18.37657,-38.8986 -5.04904,-15.1374 -12.1302,-35.0224 -15.73592,-44.1891 L 700.31053,2058 l -1.40901,5.3334 c -0.77496,2.9333 -2.97088,12.8333 -4.87983,22 -7.54109,36.2121 -14.23686,61.5042 -18.97277,71.6666 -2.42329,5.2 -5.94373,5.6188 -11.86564,1.4118 z m 175.80681,-0.5003 c -9.38177,-4.6752 -20.49178,-17.0515 -26.59272,-29.6237 -4.76584,-9.821 -4.99021,-10.8927 -4.94518,-23.6211 0.0723,-20.4337 4.76602,-39.4219 15.21134,-61.5365 8.08678,-17.1211 14.52342,-26.5852 27.3644,-40.2354 11.8193,-12.5638 25.53888,-21.6816 37.67482,-25.0376 7.05708,-1.9516 9.63816,-2.0785 16.46088,-0.8097 15.27985,2.8416 24.19184,8.7007 33.87525,22.2708 9.16064,12.8375 12.87291,23.942 13.64224,40.8079 1.64197,35.9974 -15.06979,72.511 -45.58255,99.5937 -21.96209,19.4931 -49.5107,26.9609 -67.10848,18.1916 z m 27.81822,-31.3368 c 24.28456,-12.2893 49.14538,-53.3863 49.14538,-81.2413 0,-13.306 -5.43032,-29.5863 -11.22278,-33.6463 -2.28476,-1.6015 -8.60648,-1.1559 -12.46379,0.8784 -5.66527,2.9879 -18.10053,16.544 -24.55447,26.7679 -14.00177,22.1805 -21.03562,41.7776 -22.014,61.3333 -0.73669,14.7253 0.70708,22.4525 5.07014,27.1357 3.18368,3.4174 7.51576,3.0858 16.03952,-1.2277 z m 247.62759,30.8989 c -8.1268,-5.1538 -13.1085,-11.8568 -13.0801,-17.5994 0.012,-2.4975 2.0369,-9.508 4.4992,-15.5791 l 4.4767,-11.0383 -3.8159,-4.0849 c -2.0988,-2.2468 -4.5102,-6.4024 -5.3588,-9.2347 -1.2975,-4.3305 -1.1911,-5.6865 0.6686,-8.5248 2.8775,-4.3916 7.5603,-7.3892 16.0038,-10.2444 3.7605,-1.2716 7.2908,-3.1045 7.845,-4.0733 0.9421,-1.6467 24.0763,-66.5801 27.5439,-77.3109 2.2065,-6.8283 7.251,-11.4454 18.243,-16.6974 10.2322,-4.889 17.2127,-6.5422 22.2675,-5.2736 9.1604,2.2991 20.336,42.9534 22.5927,82.1872 l 0.3452,6 8.9757,0.7715 c 9.9174,0.8523 14.3576,3.5615 14.3576,8.7601 0,3.7023 -7.6049,9.6978 -15.6823,12.3636 l -5.363,1.7699 -0.614,28.8341 c -0.6149,28.8736 -1.5792,35.3086 -6.0695,40.5008 -3.0604,3.539 -9.218,2.9287 -13.4539,-1.3333 -4.3028,-4.3292 -7.1717,-16.0737 -10.1409,-41.5144 -1.06,-9.0829 -2.2576,-16.8447 -2.6613,-17.2483 -0.664,-0.664 -33.9701,7.2732 -35.0496,8.3527 -0.2504,0.2505 -3.0793,7.3711 -6.2864,15.8236 -6.2003,16.3412 -10.9475,26.866 -15.2996,33.9197 -3.3711,5.4638 -6.8987,5.5755 -14.9436,0.4736 z m 65.3345,-88.9588 c 4.2704,-0.6492 4.41,-0.8593 3.7169,-5.5946 -0.3961,-2.7062 -1.425,-12.5879 -2.2865,-21.9596 -0.8615,-9.3718 -1.9213,-16.6844 -2.3552,-16.2506 -1.3991,1.3991 -14.7137,43.758 -14.0779,44.787 0.5717,0.9249 3.8845,0.708 15.0027,-0.9822 z m 119.1013,90.8432 c -12.4627,-5.5973 -26.3223,-22.7454 -31.102,-38.4816 -5.1274,-16.881 -1.8363,-46.153 11.6643,-103.7456 2.5188,-10.7448 4.9568,-23.3448 5.4179,-28 1.0408,-10.5089 3.4169,-13.6525 9.5652,-12.6546 5.6784,0.9214 16.577,9.206 21.0979,16.0374 5.0441,7.6223 4.5497,13.9406 -3.9851,50.9262 -9.5877,41.548 -10.6861,48.3114 -9.843,60.6117 1.0032,14.6359 4.8793,21.2819 12.4123,21.2819 9.2653,0 25.8007,-20.6256 35.3896,-44.1439 10.4361,-25.5959 13.7505,-52.0852 10.5028,-83.9389 -1.9376,-19.0035 -1.3831,-21.2506 5.244,-21.2506 8.008,0 24.4877,14.6132 29.8085,26.4324 3.9591,8.7943 4.6591,28.1539 1.6362,45.2451 -1.2638,7.144 -4.8671,20.8188 -8.0078,30.3881 -13.1549,40.0828 -31.9958,66.8675 -55.0089,78.2014 -7.5081,3.6976 -10.6408,4.4552 -19.632,4.7473 -7.3082,0.2375 -12.1121,-0.2873 -15.1599,-1.6563 z m 138.7959,-0.085 c -10.2268,-2.7539 -17.2391,-6.7169 -25.1897,-14.2364 -11.266,-10.6548 -14.9335,-21.5947 -11.0114,-32.8459 2.943,-8.4418 11.2112,-6.5996 25.2206,5.6196 11.121,9.7 17.8644,12.8562 27.4681,12.8562 13.2973,0 35.1781,-13.4822 35.1781,-21.6755 0,-5.9413 -23.3618,-31.7004 -26.8148,-29.5663 -0.9373,0.5794 -1.2488,0.4232 -0.7537,-0.3777 1.1379,-1.8409 -8.2237,-11.3329 -10.0587,-10.1989 -0.7982,0.4934 -1.0833,0.3014 -0.6334,-0.4266 0.4498,-0.728 -1.6591,-3.9706 -4.6868,-7.206 -13.4312,-14.3525 -15.5446,-22.1998 -10.4346,-38.7441 2.043,-6.6143 4.0196,-9.8273 9,-14.6293 21.3244,-20.5608 62.5524,-36.5112 78.6286,-30.4202 8.2288,3.1179 15.0006,13.3535 15.0574,22.7594 0.025,4.1989 -0.5674,5.1312 -4.428,6.9632 -2.4516,1.1633 -9.8016,3.3533 -16.3333,4.8665 -18.8869,4.3759 -38.7875,12.4819 -44.8188,18.2559 -5.0487,4.8334 -3.7795,6.7021 16.252,23.9276 19.1747,16.4886 28.7835,28.1116 33.4981,40.5194 12.7011,33.4263 -20.1725,66.8444 -65.4472,66.5315 -6.9814,-0.048 -15.843,-0.9359 -19.6925,-1.9724 z m -908.9862,-1.3117 c -5.79104,-2.2239 -14.56571,-9.9962 -17.26753,-15.2948 -4.74964,-9.3148 -3.36814,-19.8271 8.58596,-65.3334 9.91582,-37.7472 13.29656,-54.3968 14.55334,-71.6734 1.61002,-22.1324 3.22126,-22.9427 47.6346,-23.9542 52.85074,-1.2037 74.81399,3.7904 68.50586,15.5772 -3.36046,6.2791 -8.43723,7.777 -40.69363,12.0058 -23.36572,3.0633 -38.12573,6.2492 -39.64625,8.5576 -0.53878,0.8178 -1.00304,4.487 -1.03172,8.1537 -0.0287,3.6667 -1.14132,11.6167 -2.47254,17.6667 l -2.42037,11 10.11877,-0.021 c 5.56532,-0.013 17.00563,-0.5912 25.42288,-1.2873 13.07912,-1.0817 15.76515,-0.9637 18.47526,0.812 2.60438,1.7065 3.02297,2.8188 2.34205,6.2233 -1.14693,5.7347 -5.51872,10.0654 -13.99231,13.8607 -8.64509,3.8721 -25.55205,7.9745 -37.46244,9.0903 -15.0268,1.4074 -13.85076,0.3861 -17.99918,15.6322 -7.72898,28.4054 -7.73415,28.392 10.55194,27.0496 16.39047,-1.2033 26.79954,-2.8333 43.73762,-6.8494 7.8597,-1.8636 15.31656,-3.1907 16.57078,-2.949 2.90827,0.5603 4.32859,5.936 2.94755,11.1562 -3.90221,14.7497 -41.42289,30.2332 -77.45577,31.9633 -10.36066,0.4975 -14.97863,0.1608 -19.00487,-1.3853 z m 442.95039,-3.7406 c -3.34967,-3.2556 -7.401,-8.4882 -9.00296,-11.6284 -3.68007,-7.2136 -3.11748,-12.1592 3.96606,-34.8642 10.23866,-32.8183 16.82287,-63.7432 18.31231,-86.0099 0.79268,-11.8503 0.69677,-12.4452 -2.73056,-16.9387 -4.26244,-5.5884 -5.65271,-11.4426 -3.61953,-15.2417 3.13388,-5.8556 20.23049,-13.3747 38.56019,-16.9584 35.7481,-6.9893 71.0128,6.462 80.0143,30.5208 3.8837,10.38 3.8954,25.3408 0.029,36.7908 -7.9755,23.6168 -39.9957,48.5889 -74.5364,58.13 -6.9431,1.9179 -13.8537,3.9801 -15.3568,4.5827 -2.1677,0.869 -4.0362,5.5792 -9.03349,22.7717 -8.03211,27.6335 -10.99408,33.8172 -16.459,34.3611 -3.27024,0.3254 -5.22808,-0.7392 -10.14278,-5.5158 z m 54.21281,-91.021 c 12.5511,-6.3495 27.2947,-17.4983 31.7129,-23.981 8.0356,-11.7901 8.1962,-22.8988 0.4297,-29.718 -7.877,-6.9161 -17.5953,-7.1362 -32.1165,-0.7278 -4.3289,1.9105 -8.0271,3.6245 -8.2183,3.8089 -0.1911,0.1844 0.5589,2.9044 1.6667,6.0443 2.7964,7.9258 2.5039,16.8881 -1.1219,34.3737 -1.7108,8.25 -2.8249,15 -2.4759,15 0.349,0 4.9045,-2.1601 10.1233,-4.8001 z m 535.8199,93.4648 c -13.0328,-6.6484 -18.8461,-17.6666 -17.0224,-32.2631 0.9224,-7.3835 7.5127,-35.0051 14.7294,-61.7349 5.7346,-21.2407 10.0269,-43.9894 10.8852,-57.691 1.3957,-22.2836 2.853,-22.8761 56.41,-22.9344 38.6061,-0.043 47.0044,0.7835 56.4094,5.5446 3.221,1.6305 3.6856,2.5724 3.3334,6.7558 -0.6979,8.285 -6.6032,10.3043 -45.7232,15.6352 -8.7892,1.1976 -20.3392,3.1354 -25.6667,4.306 l -9.6863,2.1284 v 6.3438 c 0,5.8002 -2.844,23.5022 -4.7312,29.4481 -0.7148,2.2524 0.1107,2.4633 9.6414,2.4624 5.7328,-7e-4 16.8874,-0.6141 24.7881,-1.3633 18.5443,-1.7586 22.8003,-0.053 21.0636,8.4382 -1.1749,5.7446 -9.6204,11.9202 -20.9845,15.3446 -10.3686,3.1245 -28.8915,6.6597 -37.7774,7.21 l -6,0.3716 -2.8821,8.9822 c -1.5852,4.9403 -3.9484,13.5056 -5.2517,19.034 -2.1906,9.2914 -2.2054,10.216 -0.1962,12.2251 3.5802,3.5801 33.22,0.2163 68.0715,-7.7257 8.7395,-1.9916 10.2003,-1.1364 10.2381,5.9937 0.091,16.9788 -36.9489,34.1333 -78.4026,36.312 -13.5612,0.7127 -14.5791,0.5773 -21.2458,-2.8233 z M 940.63877,1920.0614 c -12.37329,-2.8658 -21.9721,-17.437 -21.9721,-33.3542 0,-6.904 3.13212,-23.7254 5.15586,-27.6902 0.65982,-1.2927 2.01968,-4.1478 3.02191,-6.3446 1.00223,-2.1969 4.387,-7.7017 7.52172,-12.2329 12.20823,-17.6467 22.05696,-24.0504 34.70323,-22.564 12.68625,1.4909 23.01853,9.3727 28.52224,21.7573 3.04127,6.8436 3.33977,21.9303 0.6272,31.7006 -6.53744,23.5473 -26.13268,45.2801 -43.3089,48.0333 -2.70046,0.4328 -6.10993,0.9761 -7.5766,1.2072 -1.46666,0.2312 -4.47921,5e-4 -6.69456,-0.5125 z m 11.09411,-21.9423 c 11.49563,-6.0056 22.93379,-28.6797 22.93379,-45.4621 0,-8.0595 -1.99227,-16.657 -3.85984,-16.657 -1.97116,0 -10.85331,10.3559 -15.43843,18 -6.29219,10.4902 -10.03507,22.9344 -10.03507,33.3647 0,7.8696 0.83312,12.6353 2.20887,12.6353 0.32463,0 2.21043,-0.8464 4.19068,-1.8809 z m 203.76682,21.2444 c -10.5792,-3.7484 -19.4997,-16.344 -19.4997,-27.5333 0,-9.912 4.9747,-26.2784 12.8019,-42.1174 5.8416,-11.8206 8.903,-16.3366 14.6119,-21.5544 13.4879,-12.3272 26.6502,-13.7633 36.8874,-4.0249 3.0093,2.8628 5.602,5.0537 5.7614,4.8691 1.9943,-2.3107 9.5596,-43.5464 10.4177,-56.7832 0.3012,-4.646 1.1724,-9.072 1.936,-9.8356 3.6906,-3.6907 14.8276,4.0124 20.9803,14.5112 2.887,4.9262 3.4384,7.188 2.8316,11.6149 -1.108,8.0843 -24.1086,99.786 -28.0086,111.6685 -1.8374,5.5982 -4.5609,12.5703 -6.0522,15.4935 -2.302,4.5123 -3.2231,5.2173 -6.0985,4.6676 -4.0601,-0.7761 -11.2044,-7.7536 -12.2647,-11.9784 -0.418,-1.6652 -1.0207,-3.0277 -1.3393,-3.0277 -0.3186,0 -3.7036,2.3301 -7.5221,5.1781 -12.726,9.4915 -18.232,11.4071 -25.4431,8.852 z m 14.1815,-26.0321 c 8.9349,-4.2187 18.6096,-12.1784 23.3188,-19.1851 5.5818,-8.3052 6.1119,-19.104 1.2903,-26.2824 -7.255,-10.8012 -20.0977,-2.5245 -27.9372,18.0045 -3.212,8.4112 -6.7964,25.7198 -5.8416,28.208 0.9786,2.5503 2.4423,2.4314 9.1697,-0.745 z m -392.16403,21.355 c -5.11656,-4.0444 -6.9382,-6.4646 -7.62618,-10.132 -1.00022,-5.3314 0.26914,-30.4157 2.20088,-43.4924 2.20046,-14.8957 5.2066,-53.3484 5.24274,-67.062 0.046,-17.468 0.58822,-19.3333 5.61939,-19.3333 5.91473,0 12.93843,3.8184 20.046,10.898 5.61565,5.5935 6.33333,6.9648 6.33333,12.1009 0,3.1859 -1.24065,11.4646 -2.75701,18.3968 -7.6004,34.7468 -12.06768,63.9867 -9.76044,63.8858 0.65127,-0.028 2.56084,-2.8784 4.24349,-6.3334 6.58227,-13.5146 26.1616,-33.4582 34.94063,-35.5906 7.1708,-1.7419 8.15489,0.6685 12.55729,30.7576 2.22708,15.2213 4.02391,20.1332 7.80394,21.3329 9.99534,3.1724 20.90349,-22.6327 20.94925,-49.5589 0.0463,-27.2272 -5.01081,-37.3406 -20.24307,-40.4826 -5.91054,-1.2192 -8.4885,-2.5804 -11.6009,-6.1252 -6.53383,-7.4416 -6.7826,-18.9748 -0.4196,-19.4532 8.03472,-0.6042 11.06248,-0.5194 17.54344,0.4912 8.61261,1.343 20.80124,7.5331 26.47052,13.4432 15.12277,15.7654 21.13604,50.3583 13.6861,78.7331 -8.35541,31.8233 -26.6636,52.8471 -46.00876,52.8328 -6.80198,0 -13.98104,-3.1645 -17.79258,-7.8305 -3.60287,-4.4106 -7.20128,-13.9626 -8.75443,-23.2387 l -1.59861,-9.5479 -9.84447,13.3111 c -21.00227,28.3977 -28.24519,32.2619 -41.23095,21.9973 z m 238.61463,1.8451 c -1.5006,-1.9077 -3.1195,-5.5533 -3.5975,-8.1012 -0.9229,-4.9199 0.1151,-15.6089 1.7683,-18.2075 0.5444,-0.8558 1.0371,-1.8561 1.0947,-2.2228 0.058,-0.3666 1.4689,-4.8666 3.1362,-10 2.6432,-8.138 3.0593,-12.3781 3.249,-33.1078 0.2022,-22.0984 0.4055,-23.9123 2.8842,-25.7262 4.6575,-3.4085 11.8844,0.2412 16.3783,8.2714 1.0207,1.8238 2.3541,1.3644 9.5634,-3.2952 4.6075,-2.978 10.4334,-5.8003 12.9463,-6.2716 6.8293,-1.2812 19.1676,0.069 20.5476,2.2493 3.5015,5.5313 -0.064,10.2748 -16.2011,21.5536 -13.286,9.2861 -18.8417,18.0849 -23.1719,36.6983 -3.5458,15.2421 -9.6901,32.2214 -13.4379,37.1352 -4.4527,5.8376 -11.0242,6.2817 -15.1596,1.0245 z m 75.2955,-1.9364 c -8.3285,-9.2185 -8.308,-8.3643 -0.9417,-39.3099 8.2211,-34.5368 13.4222,-67.5102 14.4696,-91.733 0.799,-18.4791 1.8549,-22.2188 6.2733,-22.2188 3.4323,0 12.6914,8.0552 16.2614,14.1469 3.2116,5.4801 3.6414,7.5215 3.4526,16.3989 -0.5909,27.7832 -13.5452,92.4414 -23.7325,118.4542 -3.3829,8.6382 -4.1641,9.6666 -7.3427,9.6666 -2.4657,0 -5.0551,-1.6581 -8.44,-5.4049 z M 911.98489,1651 c -0.008,-0.55 -0.1583,-37.3 -0.33333,-81.6666 l -0.31823,-80.6667 -81.66666,-0.3436 L 748,1487.9795 v -88.6461 -88.6462 l 81.66667,-0.3436 81.66666,-0.3436 v -61.9666 -61.9667 l -19.18702,-4.9219 c -50.27282,-12.896 -94.88675,-32.667 -136.7764,-60.6133 -42.1027,-28.0884 -80.06418,-64.5703 -112.23955,-107.8648 C 631.46037,996.96377 614.84312,969.77887 605.59797,951.26576 533.33672,806.56485 546.229,633.00746 639.094,500.3383 691.33419,425.7067 769.11448,367.56076 857.33333,337.18988 c 98.72775,-33.98874 205.25537,-31.29633 305.99997,7.73394 14.2286,5.51238 49.4931,22.59746 58,28.10004 3.3,2.13454 10.2,6.46146 15.3334,9.61536 11.2404,6.90609 29.6925,20.21647 43.3333,31.25845 11.5234,9.32795 46.0814,43.36223 54.7733,53.94322 3.2414,3.94581 6.5142,7.84581 7.2728,8.66666 6.7762,7.33122 29.5068,40.31414 38.4048,55.7267 39.5591,68.52128 59.591,142.92833 59.5244,221.09909 -0.064,75.17824 -17.519,145.31638 -52.2132,209.80357 -4.398,8.1747 -8.7421,15.7631 -9.6536,16.8631 -0.9116,1.1 -3.3662,5 -5.4548,8.66667 -4.9868,8.75457 -15.8976,24.00032 -30.3598,42.42222 -18.0023,22.931 -47.189,51.727 -70.9606,70.0104 -5.8666,4.5122 -11.3161,8.7406 -12.1099,9.3963 -1.396,1.1531 -24.3847,16.2582 -33.8901,22.2679 -30.7884,19.466 -83.4737,40.7419 -123.6666,49.9403 L 1088,1185.8315 v 62.4176 62.4176 h 82 82 V 1399.3334 1488 h -82 -82 v 82 82 h -88 c -48.4,0 -88.0068,-0.45 -88.01511,-1 z m 114.87381,-635.0686 c 73.143,-7.4264 138.4601,-44.43863 184.5888,-104.59806 10.2953,-13.42676 23.5692,-36.74352 31.4754,-55.28902 18.6901,-43.84168 24.9531,-93.99299 17.7287,-141.96516 -10.2229,-67.88275 -47.3576,-130.02467 -102.0631,-170.7941 -20.1632,-15.02669 -32.392,-22.01151 -60.5885,-34.60671 -4.4362,-1.98164 -21.344,-7.44058 -32.6667,-10.54697 -24.2127,-6.64277 -57.4212,-9.5552 -84.66663,-7.42536 -64.71762,5.05915 -121.18087,31.13401 -167.35118,77.28317 -40.92497,40.90623 -67.0333,93.03731 -74.79469,149.34415 -2.21299,16.05464 -2.24945,57.36111 -0.0629,71.33334 8.15536,52.11524 27.02158,95.14273 58.03305,132.35384 57.47231,68.96185 142.18705,103.86408 230.36785,94.91088 z m -170.53162,-261.9729 0.33959,-136.73592 57.91596,0.0824 c 31.85377,0.0453 58.03309,0.22028 58.17628,0.38872 0.14318,0.16845 0.481,61.50627 0.7507,136.30627 l 0.49039,136 -59.00625,0.34721 -59.00627,0.3472 0.3396,-136.73592 z m 169.89512,135.81928 c -0.4889,-0.48888 -0.8889,-61.98888 -0.8889,-136.66666 V 617.33334 H 1084.6667 1144 v 136.66667 136.66667 h -58.4444 c -32.1445,0 -58.8445,-0.4 -59.3334,-0.8889 z"
       id="path863" />
  </g>
</svg>
