<?xml version="1.0" encoding="UTF-8" standalone="no"?>
<!-- Created with Inkscape (http://www.inkscape.org/) -->

<svg
   version="1.1"
   id="svg2"
   width="3384.5864"
   height="742.54529"
   viewBox="0 0 3384.5863 742.54532"
   sodipodi:docname="phx-transformation.svg"
   xmlns:inkscape="http://www.inkscape.org/namespaces/inkscape"
   xmlns:sodipodi="http://sodipodi.sourceforge.net/DTD/sodipodi-0.dtd"
   xmlns:xlink="http://www.w3.org/1999/xlink"
   xmlns="http://www.w3.org/2000/svg"
   xmlns:svg="http://www.w3.org/2000/svg">
  <sodipodi:namedview
     id="namedview1134540"
     pagecolor="#ffffff"
     bordercolor="#666666"
     borderopacity="1.0"
     inkscape:pageshadow="2"
     inkscape:pageopacity="0.0"
     inkscape:pagecheckerboard="0"
     showgrid="false" />
  <defs
     id="defs6">
    <linearGradient
       id="linearGradient180668">
      <stop
         style="stop-color:#361534;stop-opacity:1"
         offset="0"
         id="stop180664" />
      <stop
         style="stop-color:#40879c;stop-opacity:1"
         offset="1"
         id="stop180666" />
    </linearGradient>
    <linearGradient
       id="linearGradient161873">
      <stop
         style="stop-color:#361534;stop-opacity:1"
         offset="0"
         id="stop161869" />
      <stop
         style="stop-color:#40879c;stop-opacity:0.36358479"
         offset="1"
         id="stop161871" />
    </linearGradient>
    <linearGradient
       xlink:href="#linearGradient180668"
       id="linearGradient179613"
       gradientUnits="userSpaceOnUse"
       x1="724.73602"
       y1="-193.57947"
       x2="525.9422"
       y2="-130.36461"
       gradientTransform="matrix(1.5369204,0.58869673,-0.52130302,1.7356125,-991.46926,-346.04813)" />
    <linearGradient
       xlink:href="#linearGradient161873"
       id="linearGradient179615"
       gradientUnits="userSpaceOnUse"
       x1="725.03186"
       y1="-389.58276"
       x2="400.94772"
       y2="-283.98657"
       gradientTransform="rotate(-54.052397,311.11798,275.0441)" />
    <linearGradient
       xlink:href="#linearGradient180668"
       id="linearGradient179626"
       gradientUnits="userSpaceOnUse"
       x1="725.03186"
       y1="-389.58276"
       x2="400.94772"
       y2="-283.98657"
       gradientTransform="matrix(0.76947004,-0.57318504,-0.57639729,-0.79340081,-466.99919,-34.5256)" />
    <linearGradient
       xlink:href="#linearGradient161873"
       id="linearGradient179639"
       gradientUnits="userSpaceOnUse"
       x1="725.03186"
       y1="-389.58276"
       x2="400.94772"
       y2="-283.98657"
       gradientTransform="rotate(178.68212,323.23844,-228.77363)" />
    <linearGradient
       xlink:href="#linearGradient161873"
       id="linearGradient181266"
       gradientUnits="userSpaceOnUse"
       gradientTransform="matrix(0.58267833,0.81270288,0.81270288,-0.58267833,466.91948,-900.13036)"
       x1="725.03186"
       y1="-389.58276"
       x2="400.94772"
       y2="-283.98657" />
    <linearGradient
       xlink:href="#linearGradient180668"
       id="linearGradient181268"
       gradientUnits="userSpaceOnUse"
       gradientTransform="matrix(0.49929889,-0.81934477,-0.83127295,-0.52029219,176.6516,222.3237)"
       x1="725.03186"
       y1="-389.58276"
       x2="400.94772"
       y2="-283.98657" />
    <linearGradient
       xlink:href="#linearGradient180668"
       id="linearGradient181270"
       gradientUnits="userSpaceOnUse"
       gradientTransform="rotate(-54.052397,654.61223,-211.3924)"
       x1="725.03186"
       y1="-389.58276"
       x2="400.94772"
       y2="-283.98657" />
    <linearGradient
       xlink:href="#linearGradient180668"
       id="linearGradient181272"
       gradientUnits="userSpaceOnUse"
       gradientTransform="matrix(1.5369204,0.58869673,-0.52130302,1.7356125,-431.4129,-317.75849)"
       x1="724.73602"
       y1="-193.57947"
       x2="525.9422"
       y2="-130.36461" />
    <linearGradient
       xlink:href="#linearGradient180668"
       id="linearGradient183251"
       gradientUnits="userSpaceOnUse"
       gradientTransform="matrix(0.04051759,-0.9586363,-0.97923292,-0.05311836,1005.3219,697.25828)"
       x1="725.03186"
       y1="-389.58276"
       x2="400.94772"
       y2="-283.98657" />
    <linearGradient
       xlink:href="#linearGradient180668"
       id="linearGradient183253"
       gradientUnits="userSpaceOnUse"
       gradientTransform="rotate(-76.763648,1112.4012,-418.09818)"
       x1="725.03186"
       y1="-389.58276"
       x2="400.94772"
       y2="-283.98657" />
    <linearGradient
       xlink:href="#linearGradient180668"
       id="linearGradient183255"
       gradientUnits="userSpaceOnUse"
       gradientTransform="matrix(1.5369204,0.58869673,-0.52130302,1.7356125,121.69239,-20.9296)"
       x1="724.73602"
       y1="-193.57947"
       x2="525.9422"
       y2="-130.36461" />
    <linearGradient
       xlink:href="#linearGradient161873"
       id="linearGradient183257"
       gradientUnits="userSpaceOnUse"
       gradientTransform="matrix(-0.09728588,-0.99525648,-0.99525648,0.09728588,1114.038,752.4877)"
       x1="725.03186"
       y1="-389.58276"
       x2="400.94772"
       y2="-283.98657" />
    <linearGradient
       xlink:href="#linearGradient180668"
       id="linearGradient183923"
       gradientUnits="userSpaceOnUse"
       gradientTransform="matrix(1.0670893,0.19520463,-0.07372097,1.2700058,23.850036,1223.9605)"
       x1="724.73602"
       y1="-193.57947"
       x2="525.9422"
       y2="-130.36461" />
    <linearGradient
       xlink:href="#linearGradient161873"
       id="linearGradient183968"
       gradientUnits="userSpaceOnUse"
       gradientTransform="rotate(5.0896718,-13855.637,1289.3663)"
       x1="725.03186"
       y1="-389.58276"
       x2="400.94772"
       y2="-283.98657" />
    <linearGradient
       xlink:href="#linearGradient180668"
       id="linearGradient184013"
       gradientUnits="userSpaceOnUse"
       gradientTransform="matrix(0.95697444,0.06946328,-0.05930256,0.97887787,93.304246,1248.79)"
       x1="725.03186"
       y1="-389.58276"
       x2="400.94772"
       y2="-283.98657" />
    <linearGradient
       xlink:href="#linearGradient180668"
       id="linearGradient184058"
       gradientUnits="userSpaceOnUse"
       gradientTransform="rotate(4.5298417,-15761.135,1456.4619)"
       x1="725.03186"
       y1="-389.58276"
       x2="400.94772"
       y2="-283.98657" />
  </defs>
  <g
     id="g184596"
     transform="translate(685.95694,509.59213)"
     style="fill:#40a09c;fill-opacity:1">
    <path
       style="fill:#40a09c;fill-opacity:1;stroke-width:2.39707"
       d="m -566.62246,-334.485 v -19.17653 h 8.38973 8.38973 v 19.17653 19.17653 h -8.38973 -8.38973 z"
       id="path184488" />
    <path
       style="fill:#40a09c;fill-opacity:1;stroke-width:2.39707"
       d="m -503.1002,-207.47943 c -16.05031,-1.15509 -29.51493,-3.73568 -40.75013,-7.81002 -9.22871,-3.34675 -27.05382,-9.85876 -39.6113,-14.47109 -12.55756,-4.61248 -27.92874,-9.1505 -34.1582,-10.08468 -6.22952,-0.93418 -11.32636,-2.69056 -11.32636,-3.9031 0,-5.87484 12.66153,-26.06885 21.15763,-33.74463 14.70923,-13.28889 29.91554,-19.27593 49.55583,-19.51115 25.08403,-0.30038 36.65294,6.60842 60.6111,36.19616 20.08277,24.80169 26.54713,35.34766 29.40676,47.97406 2.01653,8.90413 5.98143,8.29557 -34.88533,5.35445 z"
       id="path184486" />
    <path
       style="fill:#40a09c;fill-opacity:1;stroke-width:2.39707"
       d="m -660.43787,-109.81988 c -4.29907,-9.50833 -5.62659,-16.56575 -5.51243,-29.30421 0.13333,-14.8481 1.76139,-20.64203 14.14658,-50.33839 7.69788,-18.45741 14.40592,-34.04232 14.90676,-34.63312 2.43684,-2.87498 36.09008,5.63678 60.68623,15.34909 15.16145,5.98683 28.30509,10.88718 29.20803,10.88973 0.90295,0.002 4.49518,1.08946 7.98276,2.41542 l 6.34106,2.41092 -19.25638,21.06909 c -15.44295,16.89662 -23.35282,23.31364 -39.94157,32.40302 -11.37685,6.23357 -27.87736,17.09655 -36.66778,24.13981 -25.39969,20.351465 -25.23601,20.322775 -31.89326,5.59864 z"
       id="path184484" />
    <path
       style="fill:#40a09c;fill-opacity:1;stroke-width:2.39707"
       d="m -631.90604,-56.412261 c -13.73309,-26.225255 -13.74133,-26.25387 -8.38973,-29.034542 2.94629,-1.530827 12.54909,-8.546066 21.33943,-15.589317 8.79042,-7.04326 25.36096,-17.94459 36.82351,-24.22521 17.69132,-9.69343 24.50199,-15.40752 45.06627,-37.8102 13.32395,-14.51499 24.38176,-26.69276 24.57293,-27.06161 0.19102,-0.36855 10.63451,0.0524 23.20742,0.93613 l 22.85993,1.60694 1.47689,39.81392 c 0.8123,21.89765 1.87465,44.4694 2.36073,50.159441 l 0.88385,10.345439 -5.11677,-4.79241 c -10.77668,-10.09352 -28.08477,-12.36557 -55.53815,-7.290603 -19.23773,3.556273 -30.12394,9.583996 -41.0419,22.724939 -20.31184,24.447381 -28.04957,32.240244 -38.97091,39.248442 -6.27679,4.027821 -12.39665,7.300041 -13.59968,7.271501 -1.20295,-0.02996 -8.37317,-11.864805 -15.93382,-26.30286 z"
       id="path184482" />
    <path
       style="fill:#40a09c;fill-opacity:1;stroke-width:2.39707"
       d="m -602.7288,-2.0960094 c -2.54419,-4.1725436 -4.5993,-8.6651706 -4.56686,-9.9835566 0.03,-1.318387 5.84555,-5.897758 12.91787,-10.176371 7.07239,-4.278689 18.63756,-14.357979 25.70052,-22.398564 31.89986,-36.315481 32.12241,-36.448818 66.09918,-39.603357 l 17.30158,-1.606334 11.74322,12.7058 c 11.35498,12.285789 11.79327,13.299224 13.26095,30.662075 0.83485,9.875914 1.51787,24.745516 1.51787,33.0435609 V 5.6346047 l -13.40035,-5.92622238 C -501.8323,-13.416455 -538.50525,-13.478479 -579.36632,-0.47289583 l -18.73659,5.96352673 z"
       id="path184480" />
    <path
       style="fill:#40a09c;fill-opacity:1;stroke-width:2.39707"
       d="m -541.61874,73.588666 c -19.46657,-6.946773 -27.36978,-14.436557 -41.3437,-39.181549 l -7.58986,-13.439977 18.13665,-5.384185 c 39.90771,-11.8472764 70.10506,-11.0504765 98.71734,2.604862 16.96906,8.098639 17.13243,8.808545 6.35223,27.608812 -14.72503,25.679847 -46.68205,37.637838 -74.27266,27.792037 z"
       id="path852-7-3" />
  </g>
  <g
     id="g201687"
     transform="translate(794.65705,513.92705)">
    <path
       style="fill:#40a09c;fill-opacity:1;stroke-width:2.50266"
       d="M 107.31494,33.282151 C 86.742674,26.116862 78.390573,18.391482 63.622936,-7.1318778 l -8.020962,-13.8627402 19.166808,-5.55355 c 42.174448,-12.21994 74.086988,-11.39808 104.324438,2.6868 17.9329,8.35339 18.10555,9.08562 6.71303,28.4773402 C 170.24485,31.103521 136.47269,43.437658 107.31494,33.282151 Z M 42.733853,-44.783238 c -2.68869,-4.30379 -4.86053,-8.93774 -4.82625,-10.29759 0.0317,-1.35986 6.17757,-6.08328 13.651591,-10.49648 7.474104,-4.4132 19.696172,-14.80962 27.160301,-23.10305 33.711755,-37.457882 33.946955,-37.595412 69.853585,-40.849102 l 18.2843,-1.65694 12.41024,13.10547 c 11.99994,12.67232 12.46312,13.71756 14.01416,31.626572 0.88228,10.18657 1.60408,25.52398 1.60408,34.08304 v 15.56195 l -14.16148,-6.11272 c -31.36315,-13.53768 -70.1191,-13.60166 -113.301062,-0.18698 l -19.800825,6.15112 z m -30.83449,-56.024802 c -14.5131298,-27.05011 -14.5218398,-27.0797 -8.8662698,-29.94777 3.11364,-1.57905 13.2618698,-8.81488 22.5514998,-16.07977 9.28971,-7.2648 26.801459,-18.50904 38.915074,-24.98714 18.696184,-9.99843 25.893692,-15.89225 47.626023,-38.99955 14.08073,-14.97164 25.76663,-27.53247 25.96865,-27.91292 0.20187,-0.38092 11.23855,0.0541 24.5256,0.96565 l 24.15836,1.6574 1.56078,41.0663 c 0.85844,22.58654 1.98113,45.86822 2.49482,51.73724 l 0.93405,10.67086 -5.4074,-4.94308 c -11.38879,-10.4111 -29.67998,-12.75461 -58.6927,-7.52001 -20.33042,3.66821 -31.834958,9.88547 -43.373057,23.43976 -21.465546,25.216472 -29.642776,33.254462 -41.18444,40.483032 -6.63331,4.1546 -13.10078,7.52967 -14.37214,7.50031 -1.27128,-0.0309 -8.84877,-12.23802 -16.83885,-27.130312 z m -30.15243,-55.08759 c -4.54325,-9.80742 -5.94618,-17.08683 -5.82554,-30.22591 0.14091,-15.31524 1.86145,-21.29143 14.9501102,-51.92182 8.13511996,-19.03801 15.22417,-35.11322 15.75346,-35.7226 2.57525,-2.96534 38.1399798,5.81416 64.1331798,15.8319 16.022609,6.17514 29.912797,11.22964 30.867037,11.23227 0.95423,0.002 4.75049,1.12373 8.43617,2.49147 l 6.70123,2.48669 -20.350135,21.73183 c -16.320104,17.42812 -24.679251,24.04699 -42.210233,33.42228 -12.023049,6.42965 -29.460779,17.63433 -38.750489,24.89914 -26.84238,20.99163 -26.66941,20.96204 -33.70479,5.77475 z m 166.274387,-100.7315 c -16.96196,-1.19142 -31.19137,-3.85318 -43.06472,-8.05568 -9.752896,-3.45203 -28.590465,-10.1688 -41.861207,-14.92629 -13.27082,-4.75749 -29.51509,-9.43834 -36.09837,-10.4019 -6.58336,-0.96357 -11.96969,-2.77519 -11.96969,-4.02588 0,-6.05963 13.3807,-26.88886 22.35937,-34.80608 15.544704,-13.7069 31.614732,-19.88227 52.370581,-20.12489 26.508786,-0.30983 38.734816,6.81629 64.053786,37.33473 21.22346,25.58185 28.055,36.45955 31.07705,49.4832 2.13107,9.18413 6.32117,8.55643 -36.8668,5.52279 z M 80.891018,-387.62766 v -19.77974 h 8.866266 8.866265 v 19.77974 19.77974 h -8.866265 -8.866266 z"
       id="path852" />
    <path
       id="path179585"
       style="fill:url(#linearGradient179626);fill-opacity:1;stroke-width:0.96999"
       d="m 199.59766,114.23149 c -8.52642,6.37808 -14.49502,7.57266 -22.12057,4.42691 -4.79377,-1.97758 -5.40494,-2.54844 -10.84437,-10.12251 -5.12583,-7.13739 -6.58064,-10.127846 -13.13229,-26.993699 L 146.13244,62.575389 128.86906,38.752102 C 111.73711,15.111022 111.56412,14.903754 106.22364,11.601368 101.89354,8.9238288 100.02695,7.088842 96.67039,2.210344 94.37597,-1.124424 86.745889,-12.098687 79.715313,-22.176943 65.176934,-43.017546 63.995681,-45.157561 62.92481,-52.583325 c -1.692388,-11.735604 3.822299,-26.56253 16.141254,-43.388148 14.26363,-19.481717 19.444356,-27.261597 26.061396,-39.144767 14.32898,-25.73256 23.84677,-50.49755 27.91868,-72.64017 3.81396,-20.73987 7.097,-31.50917 10.33986,-33.92481 0.67742,-0.50461 2.62275,-0.0581 4.32434,0.99158 10.46495,6.45573 34.41309,36.51894 42.38241,53.20569 5.13685,10.75588 10.0442,23.10908 14.32771,36.06444 12.89149,38.98993 28.96092,121.147543 30.90211,157.992867 2.57822,48.936522 -10.69477,88.934786 -35.72491,107.658133 z M 188.66485,94.674576 c 3.55081,-2.826674 7.42242,-9.773913 10.86544,-19.932127 9.61412,-28.365354 14.10441,-86.688102 7.38579,-95.936146 -1.00299,-1.380614 -1.45552,-1.308497 -2.92097,0.468283 -0.95364,1.156262 -3.02949,4.711388 -4.61376,7.900404 -6.93213,13.953874 -16.24485,43.863785 -19.13736,61.463362 -3.17744,19.333243 -1.90073,42.732586 2.53714,46.478522 1.73847,1.467406 3.75322,1.253714 5.88372,-0.442298 z M 165.16649,33.052488 c 3.78577,-2.774323 6.30143,-9.226288 7.41327,-19.149348 1.19461,-10.661795 0.52264,-25.357158 -1.6441,-35.990781 -3.26679,-16.03241 -12.67889,-20.614093 -18.33928,-8.926618 -3.33119,6.878203 -5.30931,38.670227 -3.24823,52.201906 1.10644,7.264248 5.17681,12.763359 9.88033,13.348236 2.23326,0.27771 4.21724,-0.222319 5.93801,-1.483395 z m 29.71939,-69.861856 c 3.62717,-2.701906 5.02701,-6.037469 6.0954,-14.5328 2.92862,-23.287344 -7.11819,-73.072032 -22.27148,-110.367092 -8.11319,-19.96799 -20.83865,-41.94704 -23.24783,-40.15241 -0.16527,0.12304 -0.19591,3.86008 -0.0679,8.30423 0.70338,24.41489 1.31533,64.87889 1.12003,74.05998 -0.68981,32.426057 3.84338,52.552237 15.56379,69.108842 8.6309,12.192288 17.54482,17.499811 22.80797,13.57925 z m -66.18493,23.860121 c 5.41114,-4.083388 10.93288,-16.049117 14.96409,-33.961472 3.51621,-15.623928 2.36855,-36.562994 -2.52498,-46.060084 -1.78726,-3.46861 -2.06533,-3.65826 -3.64446,-2.48194 -0.94033,0.70044 -2.82009,2.76849 -4.17771,4.59508 -3.67334,4.94225 -11.60747,21.020052 -14.81686,30.025889 -6.11596,17.161887 -6.20824,34.489531 -0.23676,44.573212 3.08332,5.206626 6.73433,6.103208 10.43668,3.309315 z M 95.63233,-55.754465 c 10.7846,-7.92495 24.97212,-35.215048 32.28813,-63.906175 2.81997,-11.05905 2.69554,-11.39777 -1.4061,-3.84841 -2.12638,3.91373 -5.96301,10.05732 -8.52588,13.65175 -2.56283,3.59444 -8.29435,10.676247 -12.7363,15.737337 -13.374902,15.239183 -19.018747,24.794347 -19.669049,33.294039 -0.399466,5.221138 0.935531,7.420323 4.472381,7.367664 1.698484,-0.02528 3.579687,-0.82862 5.576818,-2.296217 z" />
    <path
       id="path179573"
       style="fill:url(#linearGradient179615);fill-opacity:1"
       d="m -34.125124,-182.20645 c -16.284553,22.32082 -17.294022,26.97099 -9.510954,43.85449 4.416063,9.57956 4.345271,8.87003 3.235545,31.88603 -1.078814,22.3749 3.323544,29.34986 22.172568,35.12577 12.427518,3.80818 16.600361,7.2879 23.470859,19.57474 4.32766,7.739365 5.908752,9.728055 10.337534,12.999356 11.755841,8.68342 26.577819,6.834848 41.533746,-5.178202 5.515439,-4.430164 17.828763,-20.204084 23.317155,-29.869424 16.279663,-28.66933 31.258411,-65.22764 37.767551,-92.18354 7.84287,-32.4792 9.85789,-71.24444 4.41495,-84.94261 -5.18696,-13.05394 -15.93638,-13.74831 -50.104695,-3.23727 -31.154913,9.58405 -59.730948,25.74667 -86.599766,48.98036 -7.887775,6.82062 -10.038375,9.28889 -20.034493,22.9903 z m 15.872057,26.31082 c 6.430044,-9.18338 17.423901,-19.6713 28.641316,-26.85786 5.683498,-3.6412 12.427732,-8.15898 14.986423,-10.04018 6.1681,-4.5349 6.388646,-4.5961 6.342094,-1.75583 -0.117615,7.17423 -10.414014,23.77996 -21.272759,34.30975 -11.253458,10.91254 -24.806639,19.15444 -31.013331,18.86024 -3.621832,-0.17168 -4.122922,-1.39748 -2.431465,-5.93937 0.968545,-2.6007 2.604372,-5.51562 4.747722,-8.57675 z m 11.157882,43.20881 c 2.464269,-3.38127 6.676482,-7.16312 14.279864,-13.18468 10.341099,-8.18973 19.150114,-16.34906 22.583769,-20.91975 1.375066,-1.83051 3.27216,-3.82238 4.216008,-4.42664 1.495538,-0.95745 1.661441,-0.52646 1.294029,3.35578 -0.57552,6.08114 -5.171759,20.39209 -8.83011,27.4914 -4.028718,7.81799 -13.234555,19.29858 -18.29907,22.82289 -2.361754,1.64352 -6.042718,3.0368 -8.674846,3.28264 -7.982275,0.74554 -11.694831,-4.10084 -9.47221,-12.36944 0.574825,-2.13848 1.424228,-4.02327 2.902566,-6.0522 z m 78.724629,-98.28655 c 2.270756,-3.06501 4.701019,-6.0887 7.274516,-9.04366 15.709234,-18.0378 23.19436,-22.2201 27.42876,-15.32435 2.24256,3.65203 1.70804,11.46101 -1.68008,24.54819 -4.801687,18.54734 -11.156008,35.80003 -18.173412,49.33915 -3.292048,6.35156 -11.824339,16.15641 -15.829187,18.18919 -15.253183,7.74191 -23.208801,-4.37455 -18.312668,-27.89244 2.599686,-12.48718 9.452131,-26.53439 19.292071,-39.81608 z m -37.070749,126.1732 c 4.744493,-6.74487 12.090021,-12.29107 28.509195,-22.2274 9.121515,-5.52003 18.824944,-12.14987 21.562943,-14.73103 2.737999,-2.58116 5.207466,-4.52555 5.486988,-4.32286 0.781326,0.56658 -6.294278,17.1582 -10.461189,24.53055 -5.307919,9.3911 -16.287031,22.97419 -23.676083,29.2931 -22.389963,19.14728 -35.908378,14.92565 -24.370208,-7.61145 0.897349,-1.75275 1.853479,-3.3744 2.948354,-4.93091 z" />
    <path
       style="fill:url(#linearGradient179613);fill-opacity:1;stroke:#1f0938;stroke-width:1.72465;stroke-opacity:0.364706"
       d="m -17.603184,-193.85241 c 98.241772,-25.20971 174.653204,-61.7372 230.369904,-110.12532 19.77244,-17.17172 29.01232,-28.4082 34.27918,-41.68644 6.64013,-16.7404 0.31641,-30.94565 -16.54406,-37.16363 -13.41243,-4.94644 -26.58774,-2.91623 -43.82774,6.75328 -15.8013,8.86259 -26.35129,17.57677 -46.84395,38.69271 -29.15128,30.03785 -53.20828,50.70485 -79.460841,68.26343 -25.057173,16.75902 -69.9469545,16.58349 -74.065704,46.21366 -5.27851,26.16574 0.651288,2.0246 -3.906789,29.05231 z"
       id="path158085" />
    <path
       id="path179593"
       style="fill:url(#linearGradient179639);fill-opacity:1"
       d="m 38.754799,122.07783 c 9.99571,-0.38236 17.255597,-6.0427 22.107355,-17.07156 3.543585,-8.05515 3.168427,-20.414201 -1.091572,-35.984414 -4.13631,-15.11813 -3.902296,-23.79355 1.055643,-39.0346 2.778549,-8.54142 3.430817,-12.12478 3.376238,-18.58257 -0.07177,-8.4908698 -0.69964,-10.1492598 -9.939041,-26.27836 -1.710748,-2.98644 -5.853526,-12.95946 -9.205534,-22.16328 -4.478386,-12.29659 -7.680755,-19.25212 -12.079104,-26.22913 -9.973121,-15.8202 -25.9812406,-56.262146 -35.3629506,-89.341166 -6.23943,-21.9996 -8.2350804,-32.95361 -9.5830904,-52.58648 l -1.07785,-15.68639 -4.50162,6.60528 c -30.69396,45.04064 -46.49897,121.369196 -39.4616,190.563466 7.55594,74.29309 33.09496,122.401975 74.74431,140.796684 8.038583,3.5503 15.021396,5.22194 21.018816,4.99252 z M 27.362092,85.771658 C 21.552439,85.905311 13.735233,78.194951 4.0897534,62.818416 -13.497397,34.781536 -18.874127,15.426446 -11.282827,7.4776462 c 3.8836304,-4.06653 6.4982604,-3.77108 11.59970036,1.31364 C 5.2893934,13.747516 9.0745234,20.812936 19.413373,44.443536 c 8.09831,18.5096 10.769696,26.71811 10.927327,33.570064 0.134307,5.838095 -0.581343,7.702908 -2.978608,7.758058 z m 6.469732,-65.166032 c -5.36677,0.12346 -12.899983,-9.5895 -16.714961,-21.55290975 -2.46712,-7.73666005 -2.68244,-27.01382025 -0.30233,-27.06857025 0.37527,-0.009 1.25992,1.47203 1.96485,3.28966 0.70494,1.81762 3.91079,7.933 7.12499,13.58972 6.199495,10.91058025 11.925909,23.39139 11.988903,26.12962 0.06635,2.88426 -1.870802,5.56208 -4.061452,5.61248 z m -48.877601,-35.1332 c -7.3359,0.45746 -13.56615,-9.20509 -17.89192,-27.95918 -5.92611,-25.6923 -4.47097,-67.255836 3.7312,-106.502646 1.79073,-8.56845 3.44652,-16.61405 3.67763,-17.88033 0.2311,-1.26628 0.64312,-2.08806 0.91722,-1.82627 0.2741,0.26177 0.058,5.12342 -0.48013,10.80492 -0.53811,5.68149 -0.82428,16.23626 -0.63652,23.45443 0.54049,20.7767 2.8203,32.44422 12.01955,61.515216 6.6562404,21.03474 8.3709404,28.64133 8.6852204,38.52529 0.32935,10.35923 -2.02184,16.936 -6.8117004,19.05037 -1.09073,0.48148 -2.16257,0.75285 -3.21055,0.8182 z" />
  </g>
  <g
     id="g201698"
     transform="translate(1049.1128,511.07078)">
    <path
       style="fill:#40a09c;fill-opacity:1;stroke-width:2.50266"
       d="m 565.99152,-383.20745 v -19.77974 h 8.86626 8.86627 v 19.77974 19.77974 h -8.86627 -8.86626 z"
       id="path181911" />
    <path
       style="fill:#40a09c;fill-opacity:1;stroke-width:2.50266"
       d="m 633.12182,-252.20692 c -16.96196,-1.19142 -31.19137,-3.85318 -43.06472,-8.05568 -9.7529,-3.45203 -28.59046,-10.1688 -41.86121,-14.92629 -13.27082,-4.75749 -29.51509,-9.43834 -36.09837,-10.4019 -6.58336,-0.96357 -11.96969,-2.77519 -11.96969,-4.02588 0,-6.05963 13.3807,-26.88886 22.35937,-34.80608 15.54471,-13.7069 31.61474,-19.88227 52.37058,-20.12489 26.50879,-0.30983 38.73482,6.81629 64.05379,37.33473 21.22346,25.58185 28.055,36.45955 31.07705,49.4832 2.13107,9.18413 6.32117,8.55643 -36.8668,5.52279 z"
       id="path181909" />
    <path
       style="fill:#40a09c;fill-opacity:1;stroke-width:2.50266"
       d="m 466.84743,-151.47542 c -4.54325,-9.80742 -5.94618,-17.08683 -5.82554,-30.22591 0.14091,-15.31524 1.86145,-21.29143 14.95011,-51.92182 8.13512,-19.03801 15.22417,-35.11322 15.75346,-35.7226 2.57525,-2.96534 38.13998,5.81416 64.13318,15.8319 16.02261,6.17514 29.9128,11.22964 30.86704,11.23227 0.95423,0.002 4.75049,1.12373 8.43617,2.49147 l 6.70123,2.48669 -20.35014,21.73183 c -16.3201,17.42812 -24.67925,24.04699 -42.21023,33.42228 -12.02305,6.42965 -29.46078,17.63433 -38.75049,24.89914 -26.84238,20.99163 -26.66941,20.96204 -33.70479,5.77475 z"
       id="path181907" />
    <path
       id="path179585-7"
       style="fill:url(#linearGradient181268);fill-opacity:1;stroke-width:0.96999"
       d="m 850.51344,111.01219 c -5.52271,9.10382 -10.61155,12.44371 -18.86021,12.37779 -5.1855,-0.0415 -5.9658,-0.34236 -13.84293,-5.33282 -7.42299,-4.70273 -9.89054,-6.9322 -22.27389,-20.124379 L 781.61029,83.097348 756.69062,67.458189 c -24.72964,-15.519318 -24.96759,-15.646858 -31.15554,-16.71256 -5.01722,-0.864023 -7.43458,-1.86786 -12.37194,-5.137216 -3.375,-2.234817 -14.55536,-9.55958 -24.84465,-16.277528 C 667.0415,15.43899 665.14568,13.895966 661.37562,7.4094167 c -5.95817,-10.25128 -6.38815,-26.0647157 -1.25497,-46.2763017 5.94353,-23.4022 7.83907,-32.55498 9.53228,-46.05046 3.66661,-29.223975 3.23292,-55.751415 -1.27089,-77.810235 -4.21849,-20.66139 -5.20086,-31.87705 -3.09661,-35.33011 0.43957,-0.72132 2.41074,-1.03467 4.3814,-0.69746 12.11983,2.07395 45.57271,21.00053 59.2039,33.49646 8.78635,8.05458 17.95718,17.6764 26.77461,28.08999 26.53658,31.34031 72.16322,101.527985 87.742,134.9741747 20.69112,44.4219293 23.33859,86.4816993 7.1261,113.2067153 z M 833.06046,96.962539 c 2.23615,-3.949428 3.22892,-11.840429 2.62345,-22.549169 -1.69072,-29.902609 -19.33618,-85.673062 -29.02568,-91.73769 -1.4465,-0.905376 -1.83923,-0.669267 -2.53393,1.526613 -0.45206,1.428989 -1.04786,5.502453 -1.32464,9.0525407 -1.21109,15.533778 1.33675,46.7561753 5.23551,64.1605233 4.28282,19.118785 14.21715,40.343021 19.73385,42.157625 2.16108,0.710838 3.94975,-0.240773 5.29144,-2.610443 z M 788.2232,48.598562 C 790.69683,44.609823 790.61725,37.685224 787.93766,28.06633 785.05859,17.731345 778.94,4.3534497 772.95398,-4.6984193 c -9.02514,-13.6475947 -19.46771,-14.3771827 -20.34686,-1.420941 -0.51738,7.624881 9.53675,37.8500433 16.5085,49.6292203 3.74266,6.323453 9.57412,9.901463 14.1551,8.68501 2.17509,-0.577573 3.82814,-1.783239 4.95248,-3.596308 z m 1.43812,-75.90687 c 2.35363,-3.862271 2.40456,-7.479297 0.21858,-15.757797 -5.99223,-22.69296 -33.92725,-65.108625 -61.92774,-94.031225 -14.99165,-15.48531 -35.01298,-31.111 -36.57626,-28.54566 -0.10727,0.17592 1.26179,3.65329 3.04242,7.72713 9.78237,22.3805 25.48156,59.679915 28.73372,68.267925 11.48606,30.33142 23.2166,47.3022 40.27807,58.274706 12.56405,8.080153 22.816,9.669215 26.23119,4.064929 z m -52.46049,46.879069 c 3.49155,-5.810641 4.13806,-18.97309931 1.17841,-37.093359 -2.58151,-15.805261 -11.47613,-34.795977 -19.56609,-41.774087 -2.95469,-2.5486 -3.2835,-2.62051 -4.30818,-0.93901 -0.61017,1.00126 -1.5802,3.62221 -2.15626,5.82396 -1.55866,5.95734 -2.90481,23.835644 -2.51359,33.38825 0.74551,18.2038367 7.13965,34.308825 16.44871,41.427858 4.80665,3.675856 8.52805,3.142082 10.917,-0.833612 z M 690.52428,-7.7627263 c 7.03859,-11.3829097 9.99155,-41.9985087 6.04764,-71.3438687 -1.52019,-11.31123 -1.76226,-11.57884 -2.74321,-3.04339 -0.50856,4.42495 -1.76942,11.55753 -2.8022,15.84956 -1.03273,4.29204 -3.70016,13.00336 -5.92722,19.35834 -6.70578,19.135121 -8.36697,30.107576 -5.79161,38.2337747 1.58197,4.991717 3.64251,6.532114 6.90306,5.160658 1.5658,-0.658619 3.01011,-2.107137 4.31353,-4.215083 z" />
    <path
       style="fill:#40a09c;fill-opacity:1;stroke-width:2.50266"
       d="m 440.989,-78.904725 c 3.93447,-3.20494 8.26103,-5.93829 9.61453,-6.07404 1.35318,-0.13831 6.8069,5.3698 12.11862,12.23442 5.31174,6.86471 17.15261,17.693284 26.31298,24.063678 41.3734,28.771812 41.53921,28.987997 49.25001,64.207542 l 3.92657,17.934415 -11.45366,13.949231 c -11.07512,13.488067 -12.05437,14.078105 -29.62965,17.852762 -9.99674,2.147059 -25.12405,4.77792 -33.61616,5.846426 l -15.4402,1.942738 4.29699,-14.813799 c 9.51643,-32.807827 4.74164,-71.268576 -13.95889,-112.438043 l -8.57491,-18.87803 z"
       id="path181903" />
    <path
       style="fill:#40a09c;fill-opacity:1;stroke-width:2.50266"
       d="m 381.74244,-19.16508 c 6.3088,-20.850866 13.68234,-29.515165 38.57345,-45.325205 l 13.51934,-8.58714 6.34108,18.92087 c 13.95281,41.633287 14.45078,73.552523 1.62782,104.346336 -7.60498,18.262866 -8.32944,18.46564 -28.1755,7.88443 -27.10816,-14.45322 -40.82776,-47.686677 -31.88619,-77.239291 z"
       id="path852-8" />
    <path
       id="path179573-4"
       style="fill:url(#linearGradient181270);fill-opacity:1"
       d="m 501.51919,-105.00556 c -16.28456,22.320819 -17.29403,26.970989 -9.51096,43.854489 4.41606,9.57957 4.34527,8.87003 3.23555,31.88604 -1.07882,22.3748929 3.32354,29.34985289 22.17256,35.1257629 12.42752,3.80818 16.60033,7.2879001 23.47083,19.5747401 4.3277,7.73937 5.9088,9.728059 10.3376,12.99936 11.75575,8.68342 26.57775,6.834848 41.53365,-5.1782 5.5155,-4.43017 17.8288,-20.20409 23.3172,-29.8694301 16.2796,-28.6693299 31.2584,-65.2276429 37.7675,-92.1835429 7.8429,-32.479199 9.8579,-71.244439 4.415,-84.942609 -5.187,-13.05394 -15.9364,-13.74831 -50.1047,-3.23727 -31.1549,9.58405 -59.73095,25.74667 -86.59974,48.98036 -7.88778,6.82062 -10.03838,9.28889 -20.03449,22.9903 z m 15.87205,26.310819 c 6.43005,-9.18338 17.42393,-19.6713 28.64133,-26.857859 5.6835,-3.6412 12.4277,-8.15898 14.9864,-10.04018 6.16805,-4.5349 6.38865,-4.5961 6.34205,-1.75583 -0.1176,7.17423 -10.41395,23.779959 -21.27265,34.309749 -11.2535,10.91254 -24.80669,19.15444 -31.01338,18.86024 -3.62184,-0.17168 -4.12293,-1.39748 -2.43147,-5.93937 0.96855,-2.6007 2.60437,-5.51562 4.74772,-8.57675 z m 11.15788,43.20882 c 2.46427,-3.38127 6.67645,-7.16312 14.27985,-13.18468 10.3411,-8.18974 19.15005,-16.34907 22.58375,-20.91976 1.3751,-1.83051 3.2722,-3.82238 4.216,-4.42664 1.4955,-0.95745 1.6614,-0.52646 1.294,3.35578 -0.5755,6.08114 -5.1717,20.3921 -8.8301,27.49141 -4.02865,7.81799 -13.23445,19.298573 -18.29905,22.822883 -2.3617,1.64352 -6.0427,3.0368 -8.6748,3.28264 -7.98228,0.74554 -11.69483,-4.10084 -9.47221,-12.369433 0.57482,-2.13848 1.42423,-4.02327 2.90256,-6.0522 z m 78.7246,-98.286559 c 2.2707,-3.06501 4.701,-6.0887 7.2745,-9.04366 15.7092,-18.0378 23.1944,-22.2201 27.4288,-15.32435 2.2425,3.65203 1.708,11.46101 -1.6801,24.54819 -4.8017,18.54734 -11.156,35.800029 -18.1734,49.339149 -3.2921,6.35156 -11.8244,16.15641 -15.8292,18.18919 -15.2532,7.74191 -23.2088,-4.37455 -18.3127,-27.89244 2.5997,-12.487179 9.4521,-26.534389 19.2921,-39.816079 z m -37.0708,126.1732019 c 4.7445,-6.7448699 12.0901,-12.2910699 28.5092,-22.2273929 9.1215,-5.52003 18.825,-12.14987 21.563,-14.73103 2.738,-2.58116 5.2074,-4.52555 5.487,-4.32286 0.7813,0.56658 -6.2943,17.1582 -10.4612,24.530543 -5.3079,9.3911 -16.2871,22.9741899 -23.6761,29.2930999 -22.39,19.1472801 -35.90835,14.9256501 -24.3702,-7.61145 0.8973,-1.75275 1.8535,-3.3744 2.9483,-4.93091 z" />
    <path
       style="fill:url(#linearGradient181272);fill-opacity:1;stroke:#1f0938;stroke-width:1.72465;stroke-opacity:0.364706"
       d="m 466.84743,-151.47542 c 14.53886,-0.10853 38.60583,-4.59279 75.60575,-14.08735 98.24177,-25.20971 174.6532,-61.7372 230.3699,-110.12532 19.77244,-17.17172 29.01232,-28.4082 34.27918,-41.68644 6.64013,-16.7404 0.31641,-30.94565 -16.54406,-37.16363 -13.41243,-4.94644 -26.58774,-2.91623 -43.82774,6.75328 -15.8013,8.86259 -26.35129,17.57677 -46.84395,38.69271 -29.15128,30.03785 -53.20828,50.70485 -79.46084,68.26343 -25.05717,16.75902 -77.38535,45.33242 -104.82815,57.24056 -36.63745,15.89792 -57.37373,25.86094 -60.34479,28.99333 -2.93789,3.09749 -2.4664,3.22435 11.5947,3.11943 z"
       id="path158085-1" />
    <path
       id="path179593-5"
       style="fill:url(#linearGradient181266);fill-opacity:1"
       d="m 360.01386,-65.86755 c -5.70402,-8.21733 -5.54569,-17.4217 0.35037,-27.92939 4.30631,-7.67454 14.40781,-14.80519 29.41093,-20.76215 14.56752,-5.78398 21.35924,-11.1868 30.55738,-24.31177 5.15483,-7.35554 7.62608,-10.03113 12.81922,-13.87003 6.82811,-5.04746 8.53079,-5.54282 26.9742,-7.85681 3.41496,-0.42845 13.87496,-3.11396 23.2449,-5.96891 12.51852,-3.81429 20.0019,-5.43707 28.22151,-6.11711 18.63769,-1.54196 60.57865,-13.06443 92.6521,-25.45525 21.33083,-8.24067 31.28384,-13.2317 47.78264,-23.95811 l 13.18282,-8.56961 -2.57174,7.56839 c -17.53769,51.60628 -69.02861,110.12579 -128.55179,146.103 -63.90938,38.62834 -117.70701,47.144264 -157.44622,24.92201 -7.66993,-4.28903 -13.20389,-8.86389 -16.62632,-13.79426 z m 35.86126,-12.72411 c 3.38607,4.72279 14.24714,6.33382 32.33333,4.79678 32.97757,-2.80255 51.67655,-10.14267 53.46432,-20.98773 0.91461,-5.54821 -0.89344,-7.4599 -8.02363,-8.47937 -6.95004,-0.99372 -14.87159,0.22949 -39.97036,6.17494 -19.65961,4.657 -27.825,7.45742 -33.39509,11.45097 -4.74589,3.40263 -5.80576,5.09565 -4.40857,7.04441 z m 48.18361,-44.34872 c 3.12792,4.36276 15.41852,4.54286 27.27193,0.39876 7.66554,-2.67995 23.19912,-14.09762 21.81191,-16.03246 -0.21843,-0.30528 -1.93375,-0.12178 -3.81002,0.4077 -1.87626,0.52948 -8.69039,1.64439 -15.14302,2.47689 -12.44574,1.60566 -25.8618,4.53343 -28.08775,6.12935 -2.34464,1.68109 -3.31983,4.83895 -2.04305,6.61976 z m 57.46046,17.93482 c 4.0449,6.13704 15.51184,5.30629 33.09871,-2.51231 24.09325,-10.71115 56.43126,-36.86258 82.86159,-67.01262 5.77033,-6.58244 11.20397,-12.74271 12.07688,-13.68869 0.87294,-0.94599 1.2819,-1.76928 0.90791,-1.83091 -0.37397,-0.0616 -4.12893,3.03393 -8.34539,6.87974 -4.21649,3.84581 -12.47863,10.42018 -18.35945,14.60981 -16.92734,12.05938 -27.62136,17.25232 -56.38235,27.37926 -20.81041,7.32752 -27.91964,10.53052 -36.00673,16.22175 -8.47593,5.96499 -12.31778,11.79784 -11.12759,16.89653 0.27101,1.16107 0.69857,2.18072 1.27642,3.05744 z" />
  </g>
  <g
     id="g201709"
     transform="translate(1109.2383,391.47951)">
    <path
       style="fill:#40a09c;fill-opacity:1;stroke-width:2.50266"
       d="m 1281.2339,-366.69977 v -19.77974 h 8.8663 8.8662 v 19.77974 19.77974 h -8.8662 -8.8663 z"
       id="path181911-5" />
    <path
       style="fill:#40a09c;fill-opacity:1;stroke-width:2.50266"
       d="m 1348.3642,-235.69924 c -16.962,-1.19142 -31.1914,-3.85318 -43.0647,-8.05568 -9.7529,-3.45203 -28.5905,-10.1688 -41.8612,-14.92629 -13.2708,-4.75749 -29.5151,-9.43834 -36.0984,-10.4019 -6.5834,-0.96357 -11.9697,-2.77519 -11.9697,-4.02588 0,-6.05963 13.3807,-26.88886 22.3594,-34.80608 15.5447,-13.7069 31.6147,-19.88227 52.3706,-20.12489 26.5087,-0.30983 38.7347,6.81629 64.0537,37.33473 21.2235,25.58185 28.055,36.45955 31.0771,49.4832 2.131,9.18413 6.3211,8.55643 -36.8668,5.52279 z"
       id="path181909-3" />
    <path
       style="fill:#40a09c;fill-opacity:1;stroke-width:2.50266"
       d="m 1182.0898,-134.96774 c -4.5432,-9.80742 -5.9462,-17.08683 -5.8255,-30.22591 0.1409,-15.31524 1.8614,-21.29143 14.9501,-51.92182 8.1351,-19.03801 15.2242,-35.11322 15.7534,-35.7226 2.5753,-2.96534 38.14,5.81416 64.1332,15.8319 16.0226,6.17514 29.9128,11.22964 30.8671,11.23227 0.9542,0.002 4.7505,1.12373 8.4361,2.49147 l 6.7012,2.48669 -20.3501,21.73183 c -16.3201,17.42812 -24.6792,24.04699 -42.2102,33.42228 -12.0231,6.42965 -29.4608,17.63433 -38.7505,24.89914 -26.8424,20.99163 -26.6694,20.96204 -33.7048,5.77475 z"
       id="path181907-8" />
    <path
       id="path179585-7-8"
       style="fill:url(#linearGradient183251);fill-opacity:1;stroke-width:0.96999"
       d="m 1541.1927,273.79345 c -0.4283,10.63937 -3.2658,16.02456 -10.5164,19.95799 -4.5582,2.4727 -5.3867,2.58696 -14.695,2.03098 -8.7717,-0.52395 -12.0099,-1.28115 -29.2303,-6.83452 l -19.3656,-6.24501 -29.3754,-1.62914 c -29.1512,-1.61615 -29.4212,-1.61266 -35.3522,0.44878 -4.8089,1.67145 -7.4102,1.96261 -13.3129,1.49037 -4.035,-0.32279 -17.3636,-1.32337 -29.6188,-2.22405 -25.3422,-1.86252 -27.7479,-2.2956 -34.1857,-6.14817 -10.1745,-6.08849 -18.2022,-19.71955 -23.4893,-39.89141 -6.1218,-23.35619 -8.8915,-32.28343 -13.9395,-44.91325 -10.9313,-27.34942 -24.1463,-50.35503 -38.7611,-67.4806 -13.6889,-16.04065 -19.9753,-25.380683 -19.8045,-29.420803 0.036,-0.84391 1.609,-2.07191 3.4969,-2.730335 11.6101,-4.049199 50.044,-3.671944 68.0196,0.668345 11.5865,2.79767 24.268,6.78082 37.0232,11.627923 38.3876,14.5876 112.2782,53.93565 142.0951,75.66817 39.6015,28.86432 62.2692,64.39188 61.0119,95.62473 z m -22.072,-3.85084 c 0.046,-4.53833 -2.9032,-11.92445 -8.6145,-21.00326 -15.9482,-25.35114 -58.3753,-65.62078 -69.7895,-66.23993 -1.7039,-0.0925 -1.9335,0.30424 -1.4789,2.5621 0.2958,1.46928 1.7454,5.32245 3.2209,8.56323 6.4561,14.18036 23.793,40.2718 35.6261,53.61679 12.9988,14.65953 31.9623,28.4271 37.6682,27.34586 2.2352,-0.42351 3.3401,-2.12178 3.3677,-4.84479 z m -62.6404,-20.63097 c 0.2349,-4.68765 -3.1852,-10.70919 -10.1844,-17.83061 -7.5203,-7.65159 -19.3479,-16.39873 -28.9663,-21.42411 -14.5018,-7.57684 -23.9936,-3.16265 -18.4941,8.60135 3.2366,6.92325 26.66,28.51004 38.4607,35.44524 6.335,3.72309 13.1697,4.03279 16.5901,0.75168 1.6241,-1.55789 2.4874,-3.41284 2.594,-5.54355 z m -35.4692,-67.12568 c 0.191,-4.51886 -1.5146,-7.70892 -7.4332,-13.89613 -16.2242,-16.96037 -61.1944,-40.56393 -99.6934,-52.32735 -20.6125,-6.29821 -45.6947,-10.28558 -45.8216,-7.28412 -0.01,0.20583 2.8719,2.58665 6.4015,5.29027 19.3898,14.85306 51.1764,39.89947 58.1779,45.84167 24.728,20.98697 43.2054,30.16303 63.4457,31.51037 14.9051,0.99214 24.6459,-2.57761 24.923,-9.13465 z m -23.2281,66.40938 c 0.2441,-6.77455 -5.5588,-18.60647 -16.9165,-33.03238 -9.9066,-12.58288 -26.8794,-24.8989 -37.3358,-27.0914 -3.8189,-0.80076 -4.1415,-0.7046 -4.2246,1.26277 -0.05,1.1715 0.3697,3.93456 0.9309,6.14011 1.5184,5.96775 8.9908,22.26528 13.9553,30.43591 9.4604,15.57034 22.8486,26.57079 34.4401,28.29676 5.985,0.89123 8.9835,-1.37652 9.1506,-6.01177 z m -54.0744,-1.33621 c 0.6522,-13.36739 -11.577,-41.58941 -29.2273,-65.36269 -6.8034,-9.16346 -7.1448,-9.28052 -3.8733,-1.33612 1.6959,4.11858 4.0436,10.97074 5.2165,15.22657 1.1729,4.25591 3.0535,13.17024 4.1794,19.80938 3.3901,19.99066 7.2453,30.39697 13.431,36.26253 3.7998,3.60304 6.3483,3.95413 8.5383,1.17626 1.0516,-1.33401 1.6147,-3.30051 1.7354,-5.77594 z" />
    <path
       style="fill:#40a09c;fill-opacity:1;stroke-width:2.50266"
       d="m 1192.2338,-110.90813 c 4.9687,-1.03133 10.068,-1.46348 11.3318,-0.96027 1.2647,0.50083 3.5667,7.90238 5.1175,16.4424 1.5509,8.54017 7.0697,23.60687 12.264,33.48178 23.4606,44.6002 23.5081,44.868471 14.1219,79.679002 l -4.7794,17.726189 -16.5931,7.101961 c -16.0446,6.867144 -17.1855,6.93958 -34.523,2.190719 -9.8615,-2.701103 -24.4993,-7.337016 -32.5284,-10.301952 l -14.5984,-5.390805 10.6399,-11.167139 c 23.5639,-24.73168 37.0495,-61.065792 39.424,-106.221065 l 1.0889,-20.70563 z"
       id="path181903-3" />
    <path
       style="fill:#40a09c;fill-opacity:1;stroke-width:2.50266"
       d="m 1108.2425,-107.74633 c 19.2048,-10.2828 30.5453,-11.19546 59.3254,-4.77417 l 15.6316,3.48756 -8.8953,17.862911 c -19.573,39.305294 -41.7912,62.227744 -72.6329,74.935025 -18.2914,7.536253 -18.947,7.167405 -25.4983,-14.347953 -8.9483,-29.388291 4.8501,-62.589118 32.0695,-77.163373 z"
       id="path852-8-1" />
    <path
       id="path179573-4-8"
       style="fill:url(#linearGradient183253);fill-opacity:1"
       d="m 1108.6478,232.10287 c -6.4041,26.87739 -5.54,31.55675 8.1581,44.12619 7.7723,7.13179 7.433,6.5046 15.2955,28.16444 7.6435,21.05654 14.3974,25.79097 34.0149,23.84167 12.9342,-1.28519 18.127,0.31361 29.2086,8.99515 6.9802,5.46841 9.2065,6.69245 14.555,8.0002 14.1967,3.4714 27.1557,-3.95642 36.3139,-20.81228 3.3774,-6.21613 8.6458,-25.52099 9.977,-36.5559 3.9485,-32.73172 3.6512,-72.2385 -0.7518,-99.61739 -5.305,-32.98888 -18.413,-69.52631 -28.7225,-80.06092 -9.8248,-10.039135 -20.0088,-6.52946 -47.4696,16.35852 -25.039,20.86943 -45.1591,46.81167 -60.9743,78.61757 -4.6428,9.33714 -5.6737,12.44435 -9.6048,28.94275 z m 24.7996,18.14276 c 2.3859,-10.9539 8.4781,-24.87321 16.0511,-35.83344 3.837,-5.5532 8.314,-12.32453 9.948,-15.04774 3.9389,-6.56466 4.1188,-6.70629 5.1724,-4.06826 2.6614,6.66336 -0.4253,25.95679 -6.3766,39.86253 -6.1678,14.41124 -15.488,27.2468 -21.327,29.37174 -3.4074,1.24 -4.3429,0.30271 -4.5361,-4.54007 -0.1106,-2.77302 0.273,-6.09348 1.0682,-9.74476 z m 26.9751,35.55059 c 0.9678,-4.07053 3.3932,-9.18542 8.0823,-17.67566 6.3773,-11.54729 11.3529,-22.47497 12.7557,-28.01697 0.5618,-2.21948 1.5427,-4.78935 2.18,-5.71115 1.0099,-1.46061 1.3294,-1.12709 2.4893,2.59598 1.817,5.83182 3.1025,20.80767 2.4687,28.76898 -0.6978,8.76719 -4.7573,22.91184 -8.0685,28.11826 -1.5441,2.4279 -4.4017,5.13434 -6.7348,6.37734 -7.0756,3.76959 -12.3714,0.73238 -13.5135,-7.7532 -0.2954,-2.19463 -0.2395,-4.26122 0.3408,-6.70358 z m 34.6733,-121.06021 c 0.9113,-3.70404 1.9857,-7.43159 3.2188,-11.15103 7.527,-22.70431 12.8171,-29.45226 19.3855,-24.72604 3.4786,2.50306 6.0005,9.91291 7.9279,23.29344 2.7315,18.9631 3.531,37.33137 2.285,52.53003 -0.5846,7.13011 -4.6698,19.46893 -7.5793,22.89029 -11.0814,13.03069 -23.0982,4.92526 -27.6616,-18.65942 -2.4231,-12.52267 -1.5254,-28.12631 2.4237,-44.17727 z m 14.5175,130.70258 c 1.7725,-8.05368 6.4072,-16.00588 17.7169,-31.51097 6.283,-8.61371 12.6744,-18.47588 14.2036,-21.91401 1.5291,-3.43813 3.0564,-6.18516 3.3925,-6.10614 0.9395,0.221 0.8184,18.25794 -0.1791,26.66743 -1.2705,10.71225 -6.1542,27.48107 -10.5306,36.16282 -13.2614,26.30714 -27.3615,27.63209 -25.4193,2.38775 0.151,-1.96328 0.407,-3.82837 0.816,-5.68688 z" />
    <path
       style="fill:url(#linearGradient183255);fill-opacity:1;stroke:#1f0938;stroke-width:1.72465;stroke-opacity:0.364706"
       d="m 1019.9527,145.35347 c 14.5389,-0.10853 38.6058,-4.59279 75.6058,-14.08735 98.2417,-25.20971 174.6531,-61.7372 230.3698,-110.12532 19.7725,-17.1717203 29.0123,-28.4082003 34.2792,-41.68644 6.6401,-16.7404 0.3164,-30.94565 -16.5441,-37.16363 -13.4124,-4.94644 -26.5877,-2.91623 -43.8277,6.75328 -15.8013,8.86259 -26.3513,17.57677 -46.8439,38.69271 -29.1513,30.03785 -53.2083,50.70485 -79.4609,68.26343 -25.0571,16.75902 -77.3853,45.33242 -104.8281,57.24056 -36.6374,15.89792 -57.3737,25.86094 -60.3448,28.99333 -2.9379,3.09749 -2.4664,3.22435 11.5947,3.11943 z"
       id="path158085-1-9" />
    <path
       id="path179593-5-6"
       style="fill:url(#linearGradient183257);fill-opacity:1"
       d="m 1624.4089,83.948433 c 0.8214,9.969228 -3.9257,17.856587 -14.2917,23.998347 -7.571,4.48576 -19.8856,5.59825 -35.8548,3.2399 -15.5057,-2.28995 -24.0902,-1.01524 -38.6251,5.738 -8.1457,3.78464 -11.6247,4.86276 -18.0422,5.58449 -8.4381,0.94885 -10.1598,0.52485 -27.2822,-6.70969 -3.1704,-1.33956 -13.5689,-4.25405 -23.1088,-6.47591 -12.7456,-2.96854 -20.0355,-5.31197 -27.4905,-8.84021 -16.9038,-8.000023 -58.9762,-19.033075 -92.9427,-24.372355 -22.5899,-3.550947 -33.7044,-4.216049 -53.357,-3.195396 l -15.7023,0.814687 6.0167,-5.262615 c 41.0264,-35.883248 114.903,-60.7447178 184.4415,-62.0720378 74.6628,-1.42513 125.4916,18.1485698 148.7573,57.2860558 4.4904,7.553821 6.9889,14.285171 7.4818,20.266734 z m -37.412,-6.947975 c -0.5654,-5.783664 -9.1591,-12.617796 -25.5831,-20.345906 -29.9469,-14.091119 -49.8079,-17.103389 -56.787,-8.612039 -3.5704,4.34409 -2.9629,6.904307 2.6979,11.357853 5.5178,4.341005 12.9868,7.249807 37.6884,14.674497 19.3485,5.815716 27.8185,7.481496 34.6398,6.814726 5.8119,-0.568109 7.5773,-1.502625 7.344,-3.889131 z m -63.9166,14.252583 c -0.5222,-5.342726 -11.07,-11.654354 -23.4051,-14.004268 -7.9771,-1.519726 -27.1405,0.582656 -26.9089,2.952105 0.036,0.373666 1.6128,1.073948 3.502,1.55541 1.8891,0.481411 8.3454,2.92931 14.3473,5.440537 11.5764,4.843673 24.6549,9.02904 27.3808,8.762558 2.8714,-0.280698 5.2971,-2.525505 5.0839,-4.706342 z m -40.7514,-44.302288 c -0.4273,-7.3377 -10.7683,-12.36185 -29.9063,-14.40298 -26.2182,-2.79621 -67.3058,3.64226 -105.2828,16.50054 -8.2913,2.80722 -16.0796,5.417727 -17.3089,5.799313 -1.2294,0.381545 -1.9957,0.889333 -1.7028,1.129993 0.2927,0.240585 5.0932,-0.558011 10.6689,-1.774857 5.5757,-1.216847 16.0196,-2.769119 23.208,-3.449989 20.6911,-1.95977 32.548,-1.09835 62.5137,4.541384 21.6821,4.080667 29.4397,4.869053 39.2898,3.993522 10.3237,-0.91775 16.5703,-4.042116 18.0938,-9.051316 0.347,-1.14068 0.4877,-2.23733 0.4266,-3.28561 z" />
  </g>
  <g
     id="g184396"
     transform="translate(2550.55,-596.43773)">
    <path
       style="fill:url(#linearGradient183923);fill-opacity:1;stroke:#1f0938;stroke-width:1.17031;stroke-opacity:0.364706"
       d="m 621.03818,1215.2985 c 9.24879,-2.0738 23.91789,-8.4777 46.08239,-20.119 58.85093,-30.91 102.10471,-66.6335 130.40422,-107.7016 10.04274,-14.5741 14.25752,-23.6023 15.63635,-33.4943 1.73832,-12.4711 -4.40708,-21.4098 -16.0776,-23.3853 -9.28383,-1.5717 -17.37754,1.6411 -26.9238,10.6871 -8.74962,8.2912 -14.1749,15.758 -24.08925,33.1543 -14.1034,24.7466 -26.35599,42.3229 -40.47062,58.0547 -13.47201,15.0155 -42.56313,41.9368 -58.27779,53.931 -20.97986,16.0127 -32.71045,25.7419 -34.13728,28.3131 -1.41087,2.5425 -1.09152,2.5653 7.85338,0.56 z"
       id="path158085-1-3" />
    <path
       id="path179585-7-8-8"
       style="fill:url(#linearGradient184013);fill-opacity:1;stroke-width:0.96999"
       d="m 575.31625,764.90533 c -10.61851,-0.79219 -16.29301,1.41034 -21.03041,8.16313 -2.97819,4.24524 -3.18655,5.05521 -3.69952,14.36601 -0.48344,8.77402 -0.10175,12.07758 3.44427,29.82046 l 3.9876,19.95307 -1.74348,29.36879 c -1.73092,29.14461 -1.76526,29.41243 -4.49187,35.06861 -2.21097,4.58592 -2.79784,7.13685 -3.00428,13.0548 -0.14112,4.04538 -0.67253,17.40092 -1.18038,29.67872 -1.05012,25.38883 -0.89519,27.8283 2.1952,34.66468 4.88408,10.80455 17.50687,20.33954 36.94095,27.9005 22.50216,8.7547 31.05373,12.5279 43.02283,18.9882 25.91861,13.9896 47.26065,29.7507 62.60103,46.2296 14.36852,15.4347 22.92785,22.7487 26.96091,23.0416 0.84253,0.06 2.24242,-1.3615 3.11254,-3.1616 5.35142,-11.0704 9.37537,-49.295 7.12086,-67.6492 -1.45327,-11.8305 -3.9588,-24.88456 -7.31422,-38.11075 -10.09839,-39.80484 -40.73125,-117.71328 -58.90835,-149.82152 -24.14239,-42.64478 -56.84226,-69.2296 -88.01371,-71.5551 z m 1.29936,22.36768 c 4.51379,0.4737 11.51395,4.24886 19.87947,10.96168 23.35928,18.74478 58.50849,65.5019 57.81728,76.91206 -0.10327,1.70315 -0.52345,1.88592 -2.71453,1.17585 -1.42581,-0.46199 -5.08777,-2.34309 -8.13831,-4.17973 -13.3483,-8.03659 -37.28413,-28.24572 -49.18706,-41.52837 -13.07563,-14.59115 -24.5823,-35.00577 -22.85516,-40.55041 0.67649,-2.172 2.49005,-3.0753 5.19831,-2.79108 z m 13.3264,64.59001 c 4.6837,0.30314 10.27425,4.38992 16.54779,12.1581 6.74064,8.34668 14.07661,21.0976 17.96817,31.22797 5.86735,15.27365 0.39583,24.19792 -10.66146,17.38814 -6.50731,-4.00764 -25.27145,-29.74775 -30.8105,-42.26458 -2.97365,-6.71955 -2.49904,-13.54478 1.15194,-16.56714 1.73358,-1.43517 3.67517,-2.08045 5.80406,-1.94249 z m 62.62517,42.91857 c 4.51104,0.32743 7.48494,2.38695 12.95411,8.97478 14.99208,18.05866 33.29378,65.4348 40.5737,105.02713 3.89771,21.1979 4.98827,46.5715 1.99211,46.3542 -0.20572,-0.012 -2.24106,-3.1491 -4.52288,-6.9649 -12.53639,-20.9624 -33.78031,-55.40668 -38.88213,-63.04225 -18.01904,-26.96737 -25.01996,-46.37356 -24.04207,-66.63509 0.72031,-14.92067 5.38148,-24.18891 11.92705,-23.71379 z m -68.63143,15.47505 c 6.75795,0.53284 17.84799,7.65172 30.87925,20.58581 11.36636,11.28155 21.65906,29.55245 22.64041,40.19103 0.35839,3.88549 0.22598,4.19496 -1.73801,4.05237 -1.16959,-0.0844 -3.86648,-0.81757 -5.99328,-1.62752 -5.75474,-2.19151 -21.08999,-11.47997 -28.6387,-17.34698 -14.38537,-11.18029 -23.78121,-25.73943 -24.16923,-37.45229 -0.2004,-6.04776 2.3956,-8.76698 7.01956,-8.40242 z m -4.86128,53.87195 c 13.35417,0.88199 39.99107,16.26076 61.58811,36.51591 8.32454,7.8075 8.4018,8.1601 0.88403,4.0008 -3.89739,-2.1561 -10.43575,-5.27258 -14.52946,-6.92485 -4.09371,-1.65228 -12.73418,-4.54078 -19.20098,-6.41913 -19.47119,-5.65575 -29.36788,-10.6766 -34.48705,-17.49292 -3.14443,-4.1872 -3.20153,-6.75913 -0.19121,-8.61683 1.44555,-0.89201 3.46352,-1.22636 5.93656,-1.06298 z" />
    <path
       id="path179573-4-8-7"
       style="fill:url(#linearGradient184058);fill-opacity:1"
       d="m 564.46673,1015.1137 c -27.53711,-2.2618 -32.03169,-0.6993 -42.38278,14.7436 -5.87301,8.7623 -5.30452,8.332 -25.52456,19.3826 -19.65682,10.7428 -23.31446,18.1356 -18.418,37.232 3.22826,12.5905 2.43392,17.9656 -4.47004,30.2336 -4.3488,7.7275 -5.2218,10.1135 -5.70482,15.5983 -1.28238,14.5585 8.02144,26.2439 26.0694,32.745 6.65575,2.3976 26.53572,4.683 37.64493,4.3284 32.95223,-1.0517 71.95876,-7.3258 98.35567,-15.8225 31.80567,-10.2374 65.93787,-28.7252 74.79049,-40.5106 8.43625,-11.2312 3.42542,-20.7665 -23.3556,-44.4464 -24.41927,-21.5913 -53.10812,-37.5526 -86.94154,-48.371 -9.93239,-3.1759 -13.15978,-3.7247 -30.06315,-5.113 z m -14.17964,27.2602 c 11.18879,0.7002 25.86994,4.6153 37.85021,10.4419 6.06997,2.9522 13.44094,6.3526 16.38025,7.5555 7.08513,2.8998 7.25239,3.0563 4.80428,4.4971 -6.18368,3.6393 -25.72211,3.5087 -40.36845,-0.2691 -15.1788,-3.9152 -29.27724,-11.1851 -32.26166,-16.6352 -1.74149,-3.1804 -0.9566,-4.247 3.80114,-5.171 2.72432,-0.5291 6.06461,-0.6525 9.79423,-0.4192 z m -31.0577,32.0456 c 4.17012,0.3406 9.59328,1.9637 18.69543,5.3136 12.3796,4.5558 23.93448,7.82 29.62501,8.3677 2.27901,0.2194 4.96774,0.7999 5.97537,1.2903 1.5967,0.7772 1.31535,1.1435 -2.18924,2.8537 -5.48959,2.6788 -20.09829,6.2164 -28.0638,6.7951 -8.77183,0.6373 -23.36788,-1.2343 -29.01568,-3.7193 -2.63359,-1.1587 -5.7414,-3.5737 -7.32326,-5.6917 -4.79717,-6.4235 -2.59662,-12.1181 5.61831,-14.5315 2.12368,-0.6274 4.17578,-0.8818 6.67786,-0.6779 z m 124.91385,15.9485 c 3.79921,0.3401 7.64657,0.8379 11.50975,1.4937 23.58208,4.0035 31.05305,8.2112 27.37561,15.4194 -1.9477,3.8174 -8.89034,7.4319 -21.82501,11.3625 -18.33105,5.5705 -36.36658,9.1412 -51.57877,10.2103 -7.13643,0.5014 -19.95144,-1.6689 -23.77382,-4.027 -14.55798,-8.9812 -8.36506,-22.0864 14.2571,-30.1674 12.01162,-4.2907 27.57135,-5.7653 44.03514,-4.2915 z m -126.99893,34.1351 c 8.22924,0.533 16.79133,3.9105 33.82976,12.7428 9.46553,4.9068 20.18159,9.7316 23.81151,10.7227 3.63001,0.9911 6.57662,2.0849 6.54932,2.4292 -0.0762,0.9621 -17.92368,3.5727 -26.38721,3.8597 -10.78112,0.3657 -28.09603,-1.9234 -37.34016,-4.9353 -28.01151,-9.1263 -31.45551,-22.8633 -6.20814,-24.7649 1.96357,-0.1478 3.84599,-0.1771 5.74492,-0.054 z" />
    <path
       id="path179593-5-6-0"
       style="fill:url(#linearGradient183968);fill-opacity:1"
       d="m 723.87513,718.17617 c -9.97586,-0.73556 -17.82216,4.07924 -23.8745,14.49774 -4.42036,7.60931 -5.42676,19.93308 -2.93113,35.88134 2.42342,15.48544 1.22264,24.08057 -5.40522,38.67312 -3.7144,8.17795 -4.76249,11.6661 -5.42901,18.0896 -0.87614,8.44593 -0.43734,10.16391 6.94426,27.22339 1.36689,3.15878 4.37075,13.53178 6.67463,23.05223 3.07821,12.71953 5.48427,19.989 9.0766,27.4133 8.14526,16.83437 19.54006,58.81022 25.17144,92.72953 3.74533,22.55838 4.50608,33.66668 3.65473,53.32738 l -0.67953,15.7087 5.21067,-6.0618 c 35.52867,-41.3337 59.75324,-115.4215 60.48194,-184.96882 0.78229,-74.67234 -19.22823,-125.33077 -58.56453,-148.25868 -7.59218,-4.42518 -14.34479,-6.86565 -20.33035,-7.30703 z m 7.26974,37.35079 c 5.78837,0.51561 12.69617,9.05013 20.56541,25.40702 14.3484,29.82449 17.53154,49.65884 9.10057,56.71076 -4.31322,3.60764 -6.87854,3.02223 -11.38066,-2.60001 -4.38834,-5.48024 -7.36137,-12.92394 -14.99844,-37.56074 -5.98202,-19.29768 -7.7207,-27.75306 -7.11259,-34.5798 0.51804,-5.81658 1.43734,-7.58995 3.82571,-7.37723 z m -13.70179,64.03692 c 5.34696,0.47617 11.74917,10.96926 14.20522,23.28369 1.58835,7.96373 -0.34905,27.14449 -2.72035,26.93334 -0.374,-0.0325 -1.08785,-1.60353 -1.5855,-3.48848 -0.49767,-1.8849 -3.00112,-8.31992 -5.56387,-14.29998 -4.94316,-11.53426 -9.24091,-24.57626 -8.99794,-27.30433 0.25596,-2.87371 2.47983,-5.31863 4.66244,-5.12424 z m 44.65139,40.3685 c 7.3411,0.36412 12.45411,10.66151 14.65992,29.78124 3.02179,26.19314 -3.06273,67.33468 -15.59367,105.42092 -2.73565,8.31506 -5.27902,16.12556 -5.65005,17.35806 -0.37096,1.2326 -0.87208,2.0032 -1.11496,1.7127 -0.24312,-0.2906 0.51415,-5.0977 1.68295,-10.6837 1.16881,-5.58588 2.63111,-16.04281 3.25005,-23.23681 1.78157,-20.70719 0.81817,-32.55627 -5.07934,-62.47229 -4.2671,-21.64613 -5.12226,-29.39667 -4.33155,-39.25394 0.82881,-10.33124 3.8993,-16.6045 8.89521,-18.17105 1.13767,-0.3568 2.23301,-0.50697 3.28178,-0.4549 z" />
  </g>
</svg>
