<svg width="676.08601" height="675.34186" viewBox="0 0 178.88109 178.6842" xmlns:xlink="http://www.w3.org/1999/xlink" xmlns="http://www.w3.org/2000/svg">
  <defs>
    <linearGradient id="f">
      <stop style="stop-color:#1f00d7;stop-opacity:1" offset="0"/>
      <stop style="stop-color:#224eff;stop-opacity:1" offset=".56285"/>
      <stop style="stop-color:#00f5ee;stop-opacity:1" offset="1"/>
    </linearGradient>
    <linearGradient id="e">
      <stop style="stop-color:#1f00d7;stop-opacity:1" offset="0"/>
      <stop style="stop-color:#224eff;stop-opacity:1" offset=".14907"/>
      <stop style="stop-color:#00f5ee;stop-opacity:1" offset="1"/>
    </linearGradient>
    <linearGradient id="b">
      <stop style="stop-color:#77ff1b;stop-opacity:1" offset="0"/>
      <stop style="stop-color:#0a7600;stop-opacity:1" offset="1"/>
    </linearGradient>
    <linearGradient id="c">
      <stop style="stop-color:#77ff1b;stop-opacity:1" offset="0"/>
      <stop style="stop-color:#0a7600;stop-opacity:1" offset="1"/>
    </linearGradient>
    <linearGradient id="d">
      <stop style="stop-color:#77ff1b;stop-opacity:1" offset="0"/>
      <stop style="stop-color:#0a7600;stop-opacity:1" offset="1"/>
    </linearGradient>
    <linearGradient id="a">
      <stop style="stop-color:#77ff1b;stop-opacity:1" offset="0"/>
      <stop style="stop-color:#0a7600;stop-opacity:1" offset="1"/>
    </linearGradient>
    <linearGradient xlink:href="#a" id="h" x1="272.181" y1="618.46686" x2="652.52435" y2="200.69147" gradientUnits="userSpaceOnUse"/>
    <linearGradient xlink:href="#b" id="g" x1="272.181" y1="618.46686" x2="652.52435" y2="200.69147" gradientUnits="userSpaceOnUse"/>
    <linearGradient xlink:href="#c" id="i" x1="272.181" y1="618.46686" x2="652.52435" y2="200.69147" gradientUnits="userSpaceOnUse"/>
    <linearGradient xlink:href="#d" id="j" x1="272.181" y1="618.46686" x2="652.52435" y2="200.69147" gradientUnits="userSpaceOnUse"/>
    <radialGradient xlink:href="#f" id="k" cx="184.39577" cy="375.41989" fx="184.39577" fy="375.41989" r="311.26251" gradientTransform="matrix(-.14123 1.36056 -1.59203 -.16516 849.60603 86.14584)" gradientUnits="userSpaceOnUse"/>
  </defs>
  <path style="fill:#2c4356;stroke-width:.264583" d="M91.286 317.18756c-40.70126-1.78692-77.30507-35.03912-82.9129-75.41509-5.54102-34.02438 10.49549-70.36174 39.65268-88.86706 30.80035-20.26879 74.24435-19.00495 103.17145 4.1786 24.03564 18.39514 37.71425 49.31148 34.50907 79.49229-3.28982 38.71285-34.62738 73.10754-73.09417 79.31385-7.02719 1.25266-14.19922 1.67386-21.32612 1.29741zm11.2448-5.67102c-9.00995-10.04546-25.07013-12.42999-36.80322-5.93817 11.47301 5.3823 24.304 6.43229 36.80322 5.93817zm9.78958-1.20802c32.33963-5.7854 59.67652-32.32681 66.244-64.5562 2.26696-9.25922 2.07498-18.96504 1.41809-28.39358-1.48024-13.22096-14.63471-3.44352-22.37603-6.56255-5.05521-6.41247-12.02265-1.05821-8.25735 5.95783 2.38141 12.44119-12.19016 3.52319-16.70832 6.58149.13951 9.49285 20.803 9.30273 13.15857 20.15065-6.96646 8.46368-13.03681 18.23512-12.52735 29.58013-3.58353 9.91876-14.01263 21.71081-25.44488 19.69425-9.63904-4.7507-9.1164-16.49152-10.40675-25.53905-3.75943-6.71115-.43494-20.62354-11.85548-18.93868-10.64178 1.05058-23.35455-4.17719-25.98407-15.46019-3.66177-14.46091 7.75138-29.7494 22.40898-31.1901 12.8129-1.09703 25.00092 6.73556 37.87587 3.86505 5.69007-10.21069-10.89106-12.70938-17.88996-11.09206-9.28883 3.75913-23.95303-4.74399-12.65877-13.42303 6.01283-6.00062 5.17608-18.24257 16.92772-16.03083 11.41797 1.66908 5.64267-9.0342 7.93588-15.78311-1.10316-7.44678-14.8972-4.06238-21.40246-4.91965-5.58952.13388-.65116 11.29027-7.50594 13.84513-6.52222 3.91329-13.70694 7.13741-18.60321 12.21402-6.12883-10.05179 11.27514-12.85398 16.97894-17.74649 3.88826-13.3084-14.10568-3.44404-20.16006-1.7485-10.10503 1.65696-12.77434 11.01498-8.6608 19.30226 1.26103 12.32162-11.8526 14.80483-19.27422 20.62101-4.383 8.01436-14.89738 6.532-19.54595 12.62687-4.92304 11.80591 13.81414 4.81155 14.17422 15.87672 1.32135 8.66224-.86918 19.01184 8.69795 23.95677 10.9203 6.25544 6.33975 18.71108 4.03691 28.27369 4.56234 8.19486-10.10971 16.7422 1.21379 21.34002 7.14483 9.64584 18.2691 9.89207 28.00953 4.67189 12.77533-2.8652 27.18918 1.15525 35.59217 11.47213 1.07303 1.26104 2.98755 2.30577 4.58898 1.35411zm39.16628-37.88813c-3.90579-7.05067 9.81832-10.18426 6.72835-17.71748 10.60849-2.66822 2.94725 15.25637-3.16796 17.16774-1.02423.67336-2.38539 1.01408-3.56039.54974zm-37.77637 14.85071c9.58124-5.06903 16.49311-14.67409 15.30529-25.80857-.0649-9.20704 13.21231-16.04545 11.07842-23.49059-9.59293-1.29485-19.03305-16.60105-7.61158-21.8599 4.315.56747 16.01934 4.66252 10.00732-4.51178-.54169-12.69118 15.07161-9.45566 21.5896-5.63347 5.44622-1.73314 16.68909-.42497 10.74861-8.51675-9.1218-23.37218-29.16376-42.42665-53.32098-49.53351-6.28224 6.2954 3.60532 24.29997-11.27912 21.8486-8.61492-1.53002-12.76352 5.81015-14.15957 12.5133-3.29004 2.21446-8.20565 8.19386-.3549 6.83814 10.2894-.27378 23.9496-2.45949 30.21767 7.94445 5.55862 10.78021-7.49122 17.62258-16.65368 14.25647-11.30803-.70588-23.45107-8.04402-34.28833-1.6573-9.11967 4.77597-13.8622 17.86226-7.82241 26.63512 6.02401 7.69008 15.95616 5.75124 24.32849 7.08474 10.41515 2.72411 8.15051 15.74082 11.50342 23.75963 1.18702 6.90234-.0635 19.85843 9.38323 20.55912zm-77.66156-5.40921c1.41107-9.61138 3.83434-19.74358 3.8447-29.0569-5.96387-8.10636-17.32244-14.05642-14.41492-26.12597 3.75657-9.70249-15.31994-16.77376-12.42126-4.00537-.3471 12.23678.98224 24.70291 5.7511 36.13473 4.1778 7.21168 8.32382 22.60498 17.24038 23.05351zM23.71556 193.4595c6.95561-7.47832 16.94225-11.42587 24.3763-17.73772 3.57892-5.8116.06225-20.60675-6.89564-10.55774-9.02613 8.03179-16.52181 17.93719-21.07497 29.17228 1.26777.39213 2.47749-.50038 3.59431-.87682z" transform="translate(-7.2873 -138.63616)"/>
  <path style="fill:url(#g);fill-opacity:1;stroke-width:1.41235" d="M472.09116 650.48484c-16.43594-5.82978-21.7898-17.32907-25.78624-55.38511-1.15803-11.0272-2.80304-21.8475-3.65559-24.04512-.85255-2.19762-3.6592-14.80015-6.23699-28.00564-5.58559-28.61385-8.82718-37.85335-16.23179-46.26543-8.70766-9.89241-15.42793-12.04563-45.12988-14.45986-28.73096-2.33529-35.30202-3.62693-47.53589-9.34384-28.41132-13.27667-36.98011-48.98731-19.95691-83.17095 6.43263-12.91713 20.00614-26.1703 33.5249-32.73373 22.5159-10.93156 37.29646-11.00286 82.04851-.39581 18.92752 4.48617 36.34803 7.73005 56.3619 10.4952 15.26001 2.10833 33.33182-3.06771 44.28363-12.68352 8.01431-7.03667 11.39004-14.5278 11.45199-25.41324.12203-21.44182-17.03078-39.7597-44.53766-47.56281-7.82283-2.21917-14.63365-2.57565-49.21064-2.57565-31.06339 0-40.26622-.40297-40.72877-1.78339-.96657-2.88463 6.22344-13.8347 12.1838-18.55539 3.98626-3.15719 5.78042-5.82998 6.48901-9.66685 1.4203-7.69063 8.25698-21.33665 14.1121-28.16777 2.78911-3.25403 8.4592-7.57405 12.60021-9.60006 7.07304-3.46051 8.58941-3.65822 25.03286-3.26387 15.42321.36988 18.07493.084 22.30923-2.40492 8.83917-5.19575 10.46421-10.73391 11.58187-39.47129 1.00239-25.77341 2.55603-34.26191 7.0084-38.29125 2.23297-2.0208 3.41446-1.88196 13.53535 1.59052 65.0953 22.33423 125.06501 70.90191 163.09609 132.08666 4.06077 6.53302 11.47425 20.45824 16.4744 30.94494 5.00013 10.48671 10.70162 22.44348 12.66996 26.57061l3.57879 7.50387-2.81581 3.79493c-3.4966 4.71246-8.98282 6.58392-29.04048 9.90628l-15.78219 2.61417-8.52105-3.83827c-16.35154-7.36548-39.26106-10.45606-51.76388-6.98312-17.43549 4.84311-26.14724 23.9344-18.11041 39.68789 3.63449 7.12416 3.11918 11.13905-1.78158 13.88085-3.43156 1.91982-5.28163 1.88155-18.36056-.37982-7.99946-1.38312-16.17508-2.85097-18.16805-3.26188-5.00846-1.03267-15.188 6.84659-19.42919 15.03878-7.2755 14.0532-1.22058 35.40483 14.65138 51.66551 7.11479 7.28904 22.07839 16.10703 27.33268 16.10703 5.63725 0 5.35947 9.4337-.62383 21.18527-1.77977 3.49556-8.6866 13.34671-15.34854 21.89144-6.66193 8.54472-14.1594 19.34921-16.66104 24.00996-4.2586 7.93411-4.6109 9.6891-5.52845 27.54085-1.21339 23.60742-5.08 36.88969-15.24302 52.3616-8.20407 12.48966-23.00812 26.96939-34.85461 34.09106-10.7755 6.47782-12.90901 7.00235-19.28401 4.74117z" transform="matrix(.26458 0 0 .26458 -21.59207 -23.65327)"/>
  <path style="fill:url(#h);fill-opacity:1;stroke-width:1.41235" d="M132.05482 297.98254c0-.78973 3.44864-8.31227 7.66365-16.71675 15.09901-30.10657 36.51979-58.38051 66.2312-87.42061 13.22792-12.92904 17.02708-15.88895 20.39409-15.88895 8.33522 0 13.49525 10.7443 13.56585 28.24702.0861 21.34114-1.06757 22.64582-44.29899 50.09824-22.94901 14.57286-37.1526 24.88419-45.90141 33.32289-8.21384 7.92268-17.65439 12.39215-17.65439 8.35816z" transform="matrix(.26458 0 0 .26458 -21.59207 -23.65327)"/>
  <path style="fill:url(#i);fill-opacity:1;stroke-width:1.41235" d="M179.33994 626.57918c-8.4027-3.91289-18.37855-14.50781-26.01311-27.62743-8.82429-15.16409-31.99971-66.25675-35.92777-79.20657-4.43716-14.62817-8.50556-34.3189-10.79706-52.25699-2.29042-17.9296-3.95849-70.13429-2.42799-75.98733 4.9648-18.98666 39.55226-7.62698 46.40351 15.24046 1.2296 4.10402 1.04419 7.45726-.894 16.16908-2.81549 12.65505-2.19359 22.06714 2.24127 33.92035 3.98586 10.65317 11.996 21.09053 33.66997 43.87261 18.23534 19.16765 18.48996 19.52508 18.48996 25.95587 0 10.43941-3.89025 40.83333-9.20235 71.89656-2.70664 15.82742-4.92116 29.35664-4.92116 30.06495 0 2.07127-3.04688 1.48561-10.62127-2.04156z" transform="matrix(.26458 0 0 .26458 -21.59207 -23.65327)"/>
  <path style="fill:url(#j);fill-opacity:1;stroke-width:1.41235" d="M391.22124 741.36149c-27.55356-2.22381-51.51205-7.33037-74.20029-15.8152-5.02063-1.8776-9.12842-4.26381-9.12842-5.30271 0-2.59725 13.40671-7.75817 27.65197-10.64463 13.91289-2.81911 37.69535-2.09834 51.43968 1.55897 17.37382 4.6231 48.97372 23.1185 51.21021 29.97329.66618 2.04185-23.08468 2.15829-46.97315.23028z" transform="matrix(.26458 0 0 .26458 -21.59207 -23.65327)"/>
  <path style="fill:url(#k);fill-opacity:1;stroke-width:1.41235" d="M467.74941 737.14254c-1.40992-.85296-7.12995-6.15663-12.71116-11.78593-20.21138-20.38546-44.73254-32.95927-73.24713-37.55916-15.13801-2.44202-47.89848-1.23171-56.24421 2.07793-27.54484 10.92332-42.77543 13.73414-58.61256 10.81695-12.74598-2.34779-27.14238-10.04057-36.09754-19.28886-4.22694-4.36529-10.9816-10.07701-15.01035-12.69268-4.02876-2.61568-8.07295-6.15332-8.9871-7.86143-2.72183-5.08578-.77998-15.28065 5.61316-29.46962 7.12189-15.80633 8.88397-24.81678 6.62033-33.85327-1.44435-5.76589-1.10605-8.57544 3.15845-26.23048 4.00129-16.56539 4.80697-22.63678 4.96664-37.4273.17575-16.28123-.0952-18.26359-3.48311-25.48676-4.95574-10.56574-11.38304-17.55481-22.97955-24.98802-21.90728-14.04229-26.54086-24.36166-29.87618-66.53681-2.38062-30.10286-3.466-35.05599-8.76929-40.0185-5.32594-4.98369-9.93141-7.08876-27.07445-12.37516-10.64819-3.28357-15.85221-5.68951-18.90105-8.73834-3.87832-3.87833-4.1409-4.76704-3.35901-11.36885.4665-3.93889 1.85608-8.69987 3.08794-10.57993 3.46535-5.28878 15.4105-12.16663 32.45362-18.68635 20.17293-7.71701 29.4683-13.34099 36.37987-22.01097 6.31706-7.92422 11.83709-11.87071 34.45312-24.63193 17.61789-9.94099 27.00069-17.14751 33.77088-25.93795 9.26046-12.02383 11.54751-27.96913 6.01769-41.95527-4.45405-11.26527-4.46735-29.18419-.0288-38.83966 5.88885-12.81049 16.05169-20.59809 32.8378-25.16301 4.23006-1.15036 17.52484-5.71125 29.54395-10.13533 26.97171-9.92793 39.49918-11.62982 45.59962-6.19483 5.58368 4.9746 5.97073 17.52009.69339 22.47585-1.74778 1.64128-13.6264 8.18051-26.39692 14.53162-37.78174 18.7898-45.6087 28.65957-37.99817 47.9155 1.97662 5.00113 3.93671 4.89774 9.04916-.4773 5.9323-6.237 24.68239-18.4857 50.62564-33.07174 21.89103-12.30777 22.54956-12.81397 25.66705-19.73041 1.7992-3.99163 3.86097-12.66203 4.71066-19.80972.98615-8.29567 2.42768-13.93768 4.14983-16.24204l2.63876-3.53087 33.73892.004c30.90672.004 34.20899.2409 39.33886 2.8247 6.82141 3.43579 12.62491 11.43396 11.25065 15.50523-.52935 1.56817-1.19579 12.38458-1.48102 24.03648-.80036 32.69639-1.9934 34.09505-28.53901 33.45789-27.4551-.659-30.85857 1.87394-47.79937 35.57351-7.26478 14.45152-11.13114 20.28782-18.82518 28.41674-11.05063 11.67521-13.79907 18.27407-11.36936 27.29728 1.88061 6.98402 9.82272 14.84754 19.73858 19.54326 10.31913 4.88667 29.10058 6.11668 41.96923 2.74857 16.35991-4.28185 42.05541-2.05036 55.78736 4.84478 14.8833 7.47325 19.93128 17.83259 14.74179 30.25277-1.75887 4.20958-2.8133 4.9155-8.64941 5.79068-14.75703 2.21295-38.33167-.1981-69.11513-7.06862-35.26913-7.87168-49.97889-9.87047-64.53512-8.76911-64.271 4.86288-109.01531 77.20914-82.32615 133.11165 9.3871 19.66201 32.73626 36.49669 58.53436 42.20308 7.00872 1.55028 16.92963 2.32295 29.45711 2.29421 15.94619-.0366 19.72372.38241 24.24546 2.68923 9.03762 4.61063 13.13584 14.0955 17.69536 40.95384 1.25276 7.37954 3.53044 17.13642 5.0615 21.68199 1.53108 4.54555 4.0244 18.21005 5.54074 30.36555 3.25195 26.06876 7.70459 41.6855 15.17948 53.23905 11.70941 18.09864 25.60641 23.59841 46.12486 18.25403 25.34115-6.60054 49.30153-27.90066 65.37595-58.11743 5.98707-11.25451 6.5951-13.33907 7.57293-25.96269 2.48035-32.021 13.86669-58.27488 40.0931-92.4441 11.45001-14.91773 14.34259-21.54581 12.85753-29.46187-1.35426-7.21879-7.77882-13.16034-26.11622-24.15274-8.85684-5.30925-18.53692-12.16082-21.51129-15.22571-6.01397-6.197-9.36668-14.95961-6.48769-16.95616 1.61889-1.12268 11.10756-.82486 38.45294 1.20691 6.66055.49487 12.86288.23133 15.1089-.642 8.67766-3.37416 11.17686-15.40059 6.22415-29.95121-3.21195-9.43646-2.3532-16.26548 2.81825-22.41141 6.44614-7.6608 15.40938-7.15517 25.17621 1.42022 7.52606 6.60795 14.73576 7.51885 36.1073 4.56185 32.39857-4.4827 41.1516-2.79705 47.79688 9.20467 4.56797 8.25 6.36504 29.28882 5.45092 63.81532-.76645 28.94918-2.68271 43.15681-9.42932 69.91138-27.30066 108.2645-117.56158 198.612-226.36536 226.58247-20.0379 5.15118-27.87224 6.21559-31.15066 4.23222zm174.00403-143.87343c16.07541-8.20106 33.55962-40.19381 30.59691-55.98647-1.42652-7.60397-5.1479-10.4757-13.57513-10.4757h-7.1483l.93048 6.20489c1.24042 8.27163-1.78395 14.42787-12.87914 26.21608-12.35094 13.12239-16.12528 19.15546-16.12528 25.77536 0 8.19593 2.0119 11.00887 7.87389 11.00887 2.72239 0 7.36935-1.23437 10.32657-2.74303z" transform="matrix(.26458 0 0 .26458 -21.59207 -23.65327)"/>
</svg>
