<?xml version="1.0" encoding="UTF-8" standalone="no"?>
<!-- Created with Inkscape (http://www.inkscape.org/) -->

<svg
   inkscape:version="1.1 (1:1.1+202105261518+ce6663b3b7)"
   sodipodi:docname="phx-logo-brushed.svg"
   viewBox="0 0 332.66666 320.66666"
   height="320.66666"
   width="332.66666"
   id="svg2"
   version="1.1"
   xmlns:inkscape="http://www.inkscape.org/namespaces/inkscape"
   xmlns:sodipodi="http://sodipodi.sourceforge.net/DTD/sodipodi-0.dtd"
   xmlns:xlink="http://www.w3.org/1999/xlink"
   xmlns="http://www.w3.org/2000/svg"
   xmlns:svg="http://www.w3.org/2000/svg">
  <sodipodi:namedview
     id="namedview30"
     pagecolor="#ffffff"
     bordercolor="#666666"
     borderopacity="1.0"
     inkscape:pageshadow="2"
     inkscape:pageopacity="0.0"
     inkscape:pagecheckerboard="0"
     showgrid="false"
     inkscape:zoom="1"
     inkscape:cx="635"
     inkscape:cy="153"
     inkscape:window-width="1848"
     inkscape:window-height="1035"
     inkscape:window-x="72"
     inkscape:window-y="27"
     inkscape:window-maximized="1"
     inkscape:current-layer="svg2" />
  <defs
     id="defs6">
    <inkscape:path-effect
       effect="bend_path"
       id="path-effect1718"
       is_visible="true"
       lpeversion="1"
       bendpath="M 744.862,101.0493 H 1241.77"
       prop_scale="1"
       scale_y_rel="false"
       vertical="false"
       hide_knot="false" />
    <inkscape:path-effect
       effect="spiro"
       id="path-effect593"
       is_visible="true"
       lpeversion="1" />
    <inkscape:path-effect
       effect="spiro"
       id="path-effect191"
       is_visible="true"
       lpeversion="1" />
    <linearGradient
       id="linearGradient8824">
      <stop
         style="stop-color:#ffeb26;stop-opacity:1"
         offset="0"
         id="stop8820" />
      <stop
         style="stop-color:#ff9e26;stop-opacity:1"
         offset="1"
         id="stop8822" />
    </linearGradient>
    <radialGradient
       xlink:href="#linearGradient8824"
       id="radialGradient8826"
       cx="165.04586"
       cy="158.63281"
       fx="165.04586"
       fy="158.63281"
       r="110.3818"
       gradientTransform="matrix(1,0,0,1.0154716,0,-2.4543066)"
       gradientUnits="userSpaceOnUse" />
    <filter
       style="color-interpolation-filters:sRGB;"
       id="filter12441"
       x="-0.063053878"
       y="-0.062093195"
       width="1.1623456"
       height="1.1509507">
      <feFlood
         flood-opacity="0.498039"
         flood-color="rgb(0,0,0)"
         result="flood"
         id="feFlood12431" />
      <feComposite
         in="flood"
         in2="SourceGraphic"
         operator="in"
         result="composite1"
         id="feComposite12433" />
      <feGaussianBlur
         in="composite1"
         stdDeviation="2.9"
         result="blur"
         id="feGaussianBlur12435" />
      <feOffset
         dx="4"
         dy="3"
         result="offset"
         id="feOffset12437" />
      <feComposite
         in="SourceGraphic"
         in2="offset"
         operator="over"
         result="fbSourceGraphic"
         id="feComposite12439" />
      <feColorMatrix
         result="fbSourceGraphicAlpha"
         in="fbSourceGraphic"
         values="0 0 0 -1 0 0 0 0 -1 0 0 0 0 -1 0 0 0 0 1 0"
         id="feColorMatrix12461" />
      <feFlood
         id="feFlood12463"
         flood-opacity="0.498039"
         flood-color="rgb(0,0,0)"
         result="flood"
         in="fbSourceGraphic" />
      <feComposite
         in2="fbSourceGraphic"
         id="feComposite12465"
         in="flood"
         operator="in"
         result="composite1" />
      <feGaussianBlur
         id="feGaussianBlur12467"
         in="composite1"
         stdDeviation="2.9"
         result="blur" />
      <feOffset
         id="feOffset12469"
         dx="4"
         dy="3"
         result="offset" />
      <feComposite
         in2="offset"
         id="feComposite12471"
         in="fbSourceGraphic"
         operator="over"
         result="composite2" />
    </filter>
    <filter
       inkscape:label="Film Grain"
       inkscape:menu="Image Effects"
       inkscape:menu-tooltip="Adds a small scale graininess"
       style="color-interpolation-filters:sRGB"
       id="filter882"
       x="0"
       y="0"
       width="1"
       height="1">
      <feTurbulence
         type="turbulence"
         numOctaves="1"
         baseFrequency="0.0027549190424747049 0.65646985007377745"
         seed="0"
         result="result0"
         id="feTurbulence872" />
      <feColorMatrix
         result="result4"
         values="0"
         type="saturate"
         id="feColorMatrix874" />
      <feComposite
         in="SourceGraphic"
         in2="result4"
         operator="arithmetic"
         k1="0.99660003"
         k2="0.025955411"
         k3="-0.048824375"
         result="result2"
         id="feComposite876"
         k4="0.38324828" />
      <feBlend
         result="result5"
         mode="normal"
         in="result2"
         in2="SourceGraphic"
         id="feBlend878" />
      <feComposite
         in="result5"
         in2="SourceGraphic"
         operator="in"
         result="result3"
         id="feComposite880" />
    </filter>
    <radialGradient
       inkscape:collect="always"
       xlink:href="#linearGradient8824"
       id="radialGradient938"
       cx="492.78622"
       cy="156.53314"
       fx="492.78622"
       fy="156.53314"
       r="117.62606"
       gradientTransform="matrix(1.5453846,-1.1677279,0.6396759,0.8465321,-368.88841,599.16369)"
       gradientUnits="userSpaceOnUse" />
    <filter
       inkscape:label="Aluminium Emboss"
       inkscape:menu-tooltip="Satiny aluminium effect with embossing"
       inkscape:menu="Non-Realistic 3D Shaders"
       height="1.1165697"
       y="-0.05828484"
       width="1.1165697"
       x="-0.05828484"
       style="color-interpolation-filters:sRGB"
       id="filter5269">
      <feGaussianBlur
         stdDeviation="5"
         result="result8"
         in="SourceGraphic"
         id="feGaussianBlur5249" />
      <feComposite
         in2="result8"
         operator="xor"
         result="result18"
         id="feComposite5251" />
      <feComposite
         k3="0.5"
         k1="1"
         operator="arithmetic"
         result="result16"
         in2="result18"
         id="feComposite5253" />
      <feComposite
         in2="result8"
         result="result6"
         operator="xor"
         in="result16"
         id="feComposite5255" />
      <feOffset
         result="result17"
         in="result6"
         id="feOffset5257" />
      <feDisplacementMap
         in2="result16"
         in="result17"
         xChannelSelector="A"
         yChannelSelector="A"
         scale="100"
         result="result4"
         id="feDisplacementMap5259" />
      <feComposite
         in2="result4"
         result="result2"
         operator="arithmetic"
         in="result4"
         k3="1"
         id="feComposite5261" />
      <feComposite
         in2="result2"
         result="fbSourceGraphic"
         in="result6"
         operator="in"
         id="feComposite5263" />
      <feComposite
         in2="fbSourceGraphic"
         operator="xor"
         result="result14"
         id="feComposite5265" />
      <feComposite
         result="result15"
         in2="result2"
         operator="in"
         in="result14"
         id="feComposite5267" />
    </filter>
  </defs>
  <g
     id="layer1"
     style="display:inline">
    <rect
       style="opacity:0.96;fill:#008000;fill-opacity:1;stroke-width:0.792473"
       id="rect10376"
       width="402.63922"
       height="353.99738"
       x="-85.690231"
       y="-48.180443" />
  </g>
  <g
     id="g8"
     style="display:inline">
    <path
       style="display:inline;opacity:0.78;fill:#cccccc;stroke-width:0.666667"
       d="M 37.332031,31.923828 H 290.66406 V 158.58984 285.25781 H 37.332031 Z"
       id="path12556"
       sodipodi:insensitive="true" />
    <path
       style="fill:#ffffff;fill-opacity:1;stroke:#030300;stroke-width:18;stroke-miterlimit:4;stroke-dasharray:none;stroke-opacity:1"
       d="M 28.664062,23.257812 V 158.92383 294.58984 H 299.33203 V 23.257812 Z"
       id="path1212"
       sodipodi:insensitive="true" />
    <g
       id="PhX"
       style="opacity:1;fill:url(#radialGradient8826);fill-opacity:1;filter:url(#filter12441)">
      <g
         id="g5776"
         style="fill:url(#radialGradient8826);fill-opacity:1">
        <path
           style="fill:url(#radialGradient8826);fill-opacity:1;stroke-width:0.666667"
           d="m 148.66465,207.59069 v -63 c 5.88666,0.11685 7.68149,0.2566 13.31189,0.45614 0.0231,18.07784 0.0685,36.46603 0.0916,54.54386 7.46332,-10.5699 20.04918,-18.82312 33.40926,-15.81765 14.48282,1.01265 24.64618,16.9049 23.47167,30.71594 0.15836,18.70057 0.31672,37.40114 0.47509,56.10171 -4.20819,-0.52271 -10.49536,1.03356 -13.4262,-0.7665 -0.30505,-17.57018 0.61644,-35.21695 -0.47682,-52.73789 -0.10079,-12.01795 -8.58176,-25.04935 -22.06123,-22.2331 -15.24005,1.37727 -22.6871,18.39152 -21.4619,32.21421 v 43.52325 c -4.17157,-0.52838 -10.43986,1.03997 -13.33333,-0.7665 -2e-5,-20.74449 -5e-5,-41.48898 -7e-5,-62.23347 z"
           id="path5399" />
        <path
           id="path5397"
           style="fill:url(#radialGradient8826);fill-opacity:1;stroke-width:0.666667"
           d="m 79.640625,151.02344 c -8.322478,0.0936 -16.678691,0.57284 -24.976563,0.23437 v 59.66602 59.66601 h 14.667969 v -44.66601 c 16.018469,-0.0245 34.135699,0.68973 46.636719,-11.09766 9.4023,-6.81703 11.67559,-19.05213 12.15625,-30 -0.29339,-13.87155 -10.07544,-27.9478 -23.70508,-31.72265 -8.166818,-1.88232 -16.456817,-2.1737 -24.779295,-2.08008 z m 6.818359,12.13672 c 8.877961,-0.11141 16.607376,1.01601 22.097656,7.17773 7.19947,8.07994 8.06629,23.76623 1.57813,32.42773 -8.38751,11.1971 -23.464051,9.77232 -40.802739,9.82422 -0.03935,-16.23786 -0.0048,-27.84046 0.140625,-48.71289 5.919895,-0.13812 11.659552,-0.64995 16.986328,-0.71679 z" />
      </g>
      <path
         style="fill:url(#radialGradient8826);fill-opacity:1;stroke-width:0.497997"
         d="m 250.80529,47.01392 c 0.22582,0.451878 2.40711,6.13809 4.84734,12.636022 2.44022,6.497932 4.66081,11.74459 4.93465,11.65924 0.27384,-0.08536 0.93737,-1.256816 1.47451,-2.603262 0.83238,-2.086505 0.97356,-3.633899 0.95584,-10.476811 l -0.0208,-8.02873 2.97767,-0.311099 4.57591,-0.311109 h 1.59825 l 0.31753,3.360828 c 1.13982,12.064022 -1.06022,21.293321 -6.29748,26.418372 l -2.19271,2.145718 5.9056,15.500958 c 3.24807,8.525523 5.78515,15.730983 5.52811,15.828993 l -7.77751,2.96591 c -0.38595,0.14718 -2.61137,-5.14317 -5.79913,-13.56779 -2.82363,-7.462283 -5.30403,-13.761007 -5.51203,-13.997157 -0.64939,-0.73731 -3.38522,3.63039 -3.80327,6.071844 -0.53659,3.13375 -0.287,10.301523 0.54905,15.767253 0.37699,2.4646 0.63001,4.54278 0.56227,4.61817 l -9.06939,1.43392 c -0.28942,0.0457 -1.54152,-9.69989 -1.90211,-13.53219 -0.43961,-4.672033 0.5083,-11.244217 2.11528,-14.666017 0.72071,-1.53464 2.76107,-4.288488 4.61903,-6.234221 l 3.32805,-3.485306 -5.4179,-14.152904 c -2.97986,-7.784092 -5.24424,-14.317081 -5.03197,-14.517738 0.21227,-0.200665 2.12715,-1.035261 4.25529,-1.854666 3.48251,-1.340878 3.91039,-1.407682 4.2799,-0.668228 z"
         id="path847" />
    </g>
  </g>
  <path
     id="rect2824"
     style="fill:url(#radialGradient938);fill-rule:evenodd;filter:url(#filter882)"
     d="m 380.06161,237.44373 167.84014,69.8634 67.41199,179.74806 H 380.06161 Z"
     sodipodi:nodetypes="ccccc" />
  <g
     id="g1525"
     inkscape:path-effect="#path-effect1718"
     transform="translate(-276.62381,-86.481783)">
    <path
       d="M 747.288,180.25395 H 1241.67"
       style="fill:none;stroke:#000000;stroke-width:1px;stroke-linecap:butt;stroke-linejoin:miter;stroke-opacity:1"
       id="path1503"
       inkscape:original-d="M 747.288,180.254 H 1241.67" />
    <path
       d="M 747.035,164.41295 H 1241.41"
       style="fill:none;stroke:#000000;stroke-width:1px;stroke-linecap:butt;stroke-linejoin:miter;stroke-opacity:1"
       id="path1505"
       inkscape:original-d="M 747.035,164.413 H 1241.41" />
    <path
       d="M 746.782,148.57195 H 1241.16"
       style="fill:none;stroke:#000000;stroke-width:1px;stroke-linecap:butt;stroke-linejoin:miter;stroke-opacity:1"
       id="path1507"
       inkscape:original-d="M 746.782,148.572 H 1241.16" />
    <path
       d="m 746.53,132.73095 h 494.38"
       style="fill:none;stroke:#000000;stroke-width:1px;stroke-linecap:butt;stroke-linejoin:miter;stroke-opacity:1"
       id="path1509"
       inkscape:original-d="m 746.53,132.731 h 494.38" />
    <path
       d="M 746.277,116.88995 H 1240.66"
       style="fill:none;stroke:#000000;stroke-width:1px;stroke-linecap:butt;stroke-linejoin:miter;stroke-opacity:1"
       id="path1511"
       inkscape:original-d="M 746.277,116.89 H 1240.66" />
    <path
       d="M 746.025,101.04895 H 1240.4"
       style="fill:none;stroke:#000000;stroke-width:1px;stroke-linecap:butt;stroke-linejoin:miter;stroke-opacity:1"
       id="path1513"
       inkscape:original-d="M 746.025,101.049 H 1240.4" />
    <path
       d="M 745.772,85.20825 H 1240.15"
       style="fill:none;stroke:#000000;stroke-width:1px;stroke-linecap:butt;stroke-linejoin:miter;stroke-opacity:1"
       id="path1515"
       inkscape:original-d="M 745.772,85.2083 H 1240.15" />
    <path
       d="M 745.519,69.36735 H 1239.9"
       style="fill:none;stroke:#000000;stroke-width:1px;stroke-linecap:butt;stroke-linejoin:miter;stroke-opacity:1"
       id="path1517"
       inkscape:original-d="M 745.519,69.3674 H 1239.9" />
    <path
       d="M 745.267,53.52645 H 1239.64"
       style="fill:none;stroke:#000000;stroke-width:1px;stroke-linecap:butt;stroke-linejoin:miter;stroke-opacity:1"
       id="path1519"
       inkscape:original-d="M 745.267,53.5265 H 1239.64" />
    <path
       d="M 745.014,37.68555 H 1239.39"
       style="fill:none;stroke:#000000;stroke-width:1px;stroke-linecap:butt;stroke-linejoin:miter;stroke-opacity:1"
       id="path1521"
       inkscape:original-d="M 745.014,37.6856 H 1239.39" />
    <path
       d="M 744.762,21.84465 H 1239.14"
       style="fill:none;stroke:#000000;stroke-width:1px;stroke-linecap:butt;stroke-linejoin:miter;stroke-opacity:1"
       id="path1523"
       inkscape:original-d="M 744.762,21.8447 H 1239.14" />
  </g>
  <g
     id="g4667"
     transform="translate(194.29553,-339.06454)">
    <path
       style="fill:none;fill-rule:evenodd;stroke:#000000"
       d="m 847.441,255.493 c 0,28.083 -11.377,53.537 -29.808,71.971 -18.431,18.434 -43.884,29.815 -71.966,29.819 h -0.016 c -56.214,0 -101.784,-45.567 -101.79,-101.78 v -0.01 c 0,-27.019 10.738,-52.901 29.814,-71.976 19.075,-19.075 44.956,-29.813 71.976,-29.814 h 0.016 c 28.082,0.005 53.535,11.385 71.966,29.819 18.431,18.434 29.808,43.889 29.808,71.971 z"
       id="path4651" />
    <path
       style="fill:none;fill-rule:evenodd;stroke:#000000"
       d="m 864.756,254.552 c 0,25.204 -10.206,48.082 -26.779,64.659 -16.575,16.577 -39.452,26.786 -64.655,26.79 h -0.016 C 722.804,346 681.863,305.062 681.858,254.56 v -0.009 c 0,-24.3 9.663,-47.541 26.785,-64.664 17.122,-17.122 40.364,-26.784 64.663,-26.784 h 0.016 c 25.203,0.003 48.08,10.213 64.654,26.789 16.574,16.577 26.78,39.455 26.78,64.66 z"
       id="path4653" />
    <path
       style="fill:none;fill-rule:evenodd;stroke:#000000"
       d="m 882.072,253.61 c 0,22.326 -9.035,42.629 -23.752,57.348 -14.717,14.719 -35.019,23.757 -57.344,23.76 h -0.014 c -44.792,0 -81.103,-36.31 -81.107,-81.101 v -0.008 c 0,-21.58 8.587,-42.182 23.756,-57.351 15.169,-15.169 35.771,-23.756 57.351,-23.756 h 0.014 c 22.325,0.003 42.626,9.041 57.344,23.76 14.717,14.719 23.752,35.022 23.752,57.348 z"
       id="path4655" />
    <path
       style="fill:none;fill-rule:evenodd;stroke:#000000"
       d="m 899.387,252.668 c 0,19.448 -7.864,37.175 -20.724,50.037 -12.86,12.862 -30.586,20.728 -50.033,20.731 h -0.012 c -39.081,-10e-4 -70.763,-31.681 -70.766,-70.761 v -0.008 c 0,-18.86 7.512,-36.823 20.727,-50.039 13.215,-13.215 31.178,-20.727 50.039,-20.727 h 0.012 c 19.447,0.003 37.173,7.869 50.033,20.73 12.86,12.862 20.724,30.59 20.724,50.037 z"
       id="path4657" />
    <path
       style="fill:none;fill-rule:evenodd;stroke:#000000"
       d="m 916.702,251.727 c 0,16.569 -6.693,31.72 -17.696,42.725 -11.003,11.004 -26.153,17.699 -42.722,17.701 h -0.011 c -33.37,-0.001 -60.421,-27.052 -60.424,-60.421 v -0.006 c 0,-16.142 6.436,-31.465 17.698,-42.727 11.262,-11.262 26.585,-17.698 42.726,-17.699 h 0.011 c 16.568,0.002 31.719,6.697 42.722,17.701 11.003,11.005 17.696,26.156 17.696,42.726 z"
       id="path4659" />
    <path
       style="fill:none;fill-rule:evenodd;stroke:#000000"
       d="m 934.017,250.785 c 0,13.691 -5.521,26.267 -14.667,35.414 -9.146,9.147 -21.722,14.67 -35.412,14.672 h -0.009 c -27.659,-0.002 -50.081,-22.423 -50.083,-50.082 v -0.005 c 0,-13.422 5.36,-26.106 14.669,-35.415 9.309,-9.309 21.992,-14.669 35.414,-14.67 h 0.009 c 13.69,0.002 26.266,5.525 35.412,14.672 9.146,9.147 14.667,21.723 14.667,35.414 z"
       id="path4661" />
    <path
       style="fill:none;fill-rule:evenodd;stroke:#000000"
       d="m 951.333,249.843 c 0,10.813 -4.351,20.813 -11.64,28.103 -7.289,7.29 -17.289,11.641 -28.101,11.642 h -0.007 c -21.949,-0.001 -39.741,-17.794 -39.742,-39.742 v -0.004 c 0,-10.702 4.285,-20.746 11.64,-28.102 7.356,-7.356 17.4,-11.641 28.102,-11.642 h 0.007 c 10.812,10e-4 20.812,4.353 28.101,11.643 7.289,7.289 11.64,17.29 11.64,28.102 z"
       id="path4663" />
    <path
       style="fill:none;fill-rule:evenodd;stroke:#000000"
       d="m 968.648,248.902 c 0,7.934 -3.18,15.358 -8.612,20.791 -5.432,5.432 -12.856,8.612 -20.79,8.613 h -0.006 c -16.237,-0.002 -29.4,-13.165 -29.4,-29.403 V 248.9 c 0,-7.983 3.209,-15.387 8.611,-20.79 5.403,-5.402 12.807,-8.612 20.789,-8.613 h 0.006 c 7.934,10e-4 15.358,3.181 20.79,8.613 5.432,5.433 8.612,12.857 8.612,20.792 z"
       id="path4665" />
  </g>
  <g
     id="g5375"
     transform="matrix(0.58112004,0,0,0.57113824,390.00302,105.87296)"
     style="stroke-width:1.73579;stroke:#e00000;stroke-opacity:1">
    <g
       id="g5331"
       transform="matrix(1.0228416,0,0,1.0000003,-13.950802,-1.0174211e-4)"
       style="stroke-width:1.7163;stroke:#e00000;stroke-opacity:1">
      <g
         id="g5205"
         style="stroke-width:1.7163;filter:url(#filter5269);stroke:#e00000;stroke-opacity:1" />
    </g>
    <g
       id="g5310"
       style="stroke-width:1.73579;stroke:#e00000;stroke-opacity:1">
      <g
         id="g4966"
         style="stroke-width:1.73579;stroke:#e00000;stroke-opacity:1">
        <path
           id="path4964"
           style="fill:none;fill-rule:evenodd;stroke:#abd700;stroke-width:1.73579;stroke-opacity:1"
           d="m 741.957,256.435 c 0,6.419 -2.563,12.488 -7.018,16.943 -4.455,4.455 -10.524,7.018 -16.943,7.019 h -0.005 c -13.231,-0.002 -23.957,-10.729 -23.958,-23.961 v -0.003 c 10e-4,-6.551 2.644,-12.566 7.018,-16.941 4.374,-4.374 10.389,-7.018 16.94,-7.019 h 0.005 c 6.419,10e-4 12.488,2.564 16.943,7.019 4.454,4.455 7.018,10.524 7.018,16.943 z m 4.898,0 c 0,7.783 -3.118,15.072 -8.452,20.406 -5.335,5.335 -12.623,8.453 -20.406,8.454 h -0.005 c -15.937,-0.002 -28.856,-12.922 -28.857,-28.859 v -0.003 c 0,-7.839 3.153,-15.105 8.452,-20.405 5.3,-5.299 12.565,-8.452 20.405,-8.453 h 0.005 c 7.783,0.001 15.071,3.119 20.406,8.454 5.334,5.334 8.452,12.623 8.452,20.406 z m 4.898,0 c 0,9.146 -3.672,17.655 -9.886,23.87 -6.214,6.214 -14.723,9.887 -23.869,9.888 h -0.006 c -18.642,-0.002 -33.754,-15.114 -33.755,-33.756 v -0.004 c 0,-9.127 3.662,-17.643 9.887,-23.868 6.225,-6.225 14.74,-9.887 23.868,-9.888 h 0.006 c 9.146,0.001 17.655,3.674 23.869,9.888 6.214,6.215 9.886,14.724 9.886,23.87 z m 4.899,0 c 0,10.51 -4.228,20.239 -11.321,27.333 -7.094,7.094 -16.823,11.322 -27.332,11.323 h -0.007 C 696.645,295.09 679.34,277.785 679.338,256.437 v -0.004 c 0.001,-10.415 4.172,-20.182 11.322,-27.332 7.15,-7.15 16.916,-11.322 27.332,-11.323 h 0.007 c 10.509,0.001 20.238,4.23 27.332,11.324 7.093,7.094 11.321,16.823 11.321,27.333 z m 4.898,0 c 0,11.873 -4.782,22.822 -12.755,30.796 -7.974,7.974 -18.922,12.757 -30.795,12.759 h -0.008 c -24.052,-0.002 -43.55,-19.5 -43.552,-43.552 v -0.004 c 10e-4,-11.705 4.681,-22.721 12.757,-30.796 8.075,-8.076 19.091,-12.757 30.795,-12.758 H 718 c 11.873,0.001 22.821,4.785 30.794,12.759 7.974,7.974 12.756,18.923 12.756,30.796 z m 4.898,0 c 0,13.236 -5.337,25.406 -14.189,34.259 -8.853,8.854 -21.022,14.192 -34.258,14.194 h -0.009 c -26.757,-10e-4 -48.448,-21.692 -48.45,-48.449 v -0.005 c 0,-12.993 5.191,-25.259 14.191,-34.26 9.001,-9.001 21.267,-14.191 34.259,-14.192 h 0.009 c 13.236,0.001 25.405,5.34 34.257,14.193 8.853,8.854 14.19,21.023 14.19,34.26 z m 4.898,0 c 0,14.6 -5.891,27.989 -15.624,37.723 -9.732,9.733 -23.121,15.626 -37.72,15.628 h -0.009 c -29.463,-10e-4 -53.347,-23.884 -53.349,-53.347 v -0.005 c 0,-14.281 5.7,-27.798 15.625,-37.724 9.926,-9.926 23.443,-15.626 37.724,-15.626 h 0.009 c 14.599,0.001 27.988,5.894 37.72,15.628 9.733,9.734 15.624,23.123 15.624,37.723 z m 4.899,0 c 0,15.963 -6.447,30.573 -17.059,41.186 -10.612,10.613 -25.22,17.061 -41.183,17.064 h -0.01 c -32.168,-0.002 -58.245,-26.078 -58.248,-58.245 v -0.006 c 10e-4,-15.569 6.21,-30.336 17.061,-41.187 10.851,-10.852 25.618,-17.061 41.187,-17.062 h 0.01 c 15.963,0.002 30.571,6.45 41.183,17.064 10.612,10.613 17.059,25.223 17.059,41.186 z m 4.898,0 c 0,17.327 -7.001,33.156 -18.493,44.649 -11.491,11.494 -27.32,18.497 -44.646,18.499 h -0.011 C 683.12,319.582 654.85,291.313 654.847,256.44 v -0.006 c 0,-16.857 6.719,-32.875 18.495,-44.651 11.777,-11.776 27.794,-18.495 44.651,-18.496 h 0.011 c 17.326,0.002 33.154,7.005 44.646,18.499 11.492,11.493 18.493,27.322 18.493,44.649 z m 4.898,0 c 0,18.69 -7.555,35.739 -19.927,48.112 -12.371,12.374 -29.42,19.932 -48.109,19.934 h -0.012 c -37.578,-10e-4 -68.041,-30.463 -68.044,-68.04 v -0.007 c 0,-18.145 7.228,-35.413 19.93,-48.115 12.701,-12.701 29.969,-19.93 48.114,-19.93 h 0.012 c 18.689,0.002 35.738,7.56 48.109,19.933 12.372,12.373 19.927,29.423 19.927,48.113 z m 4.898,0 c 0,20.053 -8.11,38.323 -21.361,51.576 -13.251,13.253 -31.519,21.366 -51.572,21.368 h -0.013 c -40.283,0 -72.939,-32.655 -72.942,-72.937 v -0.008 c 0,-19.433 7.738,-37.952 21.364,-51.578 13.627,-13.627 32.145,-21.365 51.578,-21.366 h 0.013 c 20.053,0.003 38.321,8.116 51.572,21.369 13.251,13.253 21.361,31.522 21.361,51.576 z m 4.899,0 c 0,21.417 -8.665,40.906 -22.796,55.039 -14.13,14.133 -33.619,22.801 -55.035,22.804 h -0.013 c -42.989,-0.001 -77.838,-34.848 -77.842,-77.836 v -0.008 c 0,-20.721 8.248,-40.49 22.8,-55.042 14.552,-14.552 34.32,-22.799 55.042,-22.8 h 0.013 c 21.416,0.003 40.904,8.671 55.035,22.804 14.131,14.132 22.796,33.622 22.796,55.039 z m 4.898,0 c 0,22.78 -9.22,43.49 -24.23,58.502 -15.01,15.013 -35.719,24.236 -58.498,24.239 h -0.014 c -45.694,-10e-4 -82.736,-37.041 -82.74,-82.733 v -0.009 c 0,-22.009 8.757,-43.028 24.234,-58.506 15.477,-15.477 36.496,-24.234 58.506,-24.234 h 0.014 c 22.779,0.003 43.488,9.226 58.498,24.238 15.01,15.013 24.23,35.723 24.23,58.503 z m 4.898,0 c 0,24.144 -9.774,46.073 -25.664,61.966 -15.89,15.892 -37.818,25.67 -61.961,25.673 h -0.015 c -48.399,0 -87.634,-39.233 -87.638,-87.631 v -0.009 c 0,-23.297 9.266,-45.567 25.668,-61.969 16.403,-16.403 38.672,-25.669 61.97,-25.669 h 0.015 c 24.143,0.003 46.071,9.781 61.961,25.673 15.89,15.892 25.664,37.822 25.664,61.966 z m 4.899,0 c 0,25.507 -10.33,48.657 -27.099,65.429 -16.77,16.772 -39.918,27.105 -65.424,27.109 h -0.016 c -51.104,-0.001 -92.532,-41.426 -92.537,-92.529 v -0.009 c 10e-4,-24.587 9.776,-48.106 27.104,-65.434 17.328,-17.328 40.847,-27.103 65.433,-27.104 h 0.016 c 25.506,0.004 48.654,10.337 65.424,27.109 16.769,16.772 27.099,39.922 27.099,65.429 z m 4.898,0 c 0,26.87 -10.884,51.24 -28.533,68.892 -17.649,17.652 -42.018,28.54 -68.887,28.544 h -0.017 c -53.808,0 -97.43,-43.619 -97.435,-97.426 v -0.01 c 0,-25.875 10.285,-50.645 28.538,-68.897 18.253,-18.253 43.023,-28.539 68.897,-28.539 h 0.017 c 26.869,0.004 51.237,10.892 68.887,28.543 17.649,17.652 28.533,42.022 28.533,68.893 z m 4.898,0 c 0,28.234 -11.438,53.824 -29.967,72.355 -18.529,18.532 -44.117,29.975 -72.351,29.979 h -0.016 c -56.514,0 -102.329,-45.811 -102.334,-102.324 v -0.01 c 0,-27.163 10.795,-53.183 29.973,-72.361 19.178,-19.178 45.198,-29.973 72.361,-29.973 h 0.016 c 28.234,0.004 53.822,11.447 72.351,29.978 18.528,18.532 29.967,44.122 29.967,72.356 z m 4.898,0 c 0,29.597 -11.993,56.407 -31.401,75.819 -19.409,19.411 -46.217,31.409 -75.814,31.413 h -0.017 c -59.219,0 -107.227,-48.003 -107.232,-107.221 v -0.011 c 0,-28.451 11.304,-55.721 31.407,-75.825 20.104,-20.103 47.374,-31.407 75.825,-31.407 h 0.017 c 29.597,0.004 56.405,12.002 75.813,31.413 19.409,19.411 31.402,46.221 31.402,75.819 z m -88.1686,-4e-5 a 19.063404,19.063404 0 0 1 -19.06341,19.0634 19.063404,19.063404 0 0 1 -19.0634,-19.0634 19.063404,19.063404 0 0 1 19.0634,-19.0634 19.063404,19.063404 0 0 1 19.06341,19.0634 z m 93.0673,1e-5 A 112.13071,112.13071 0 0 1 717.995,368.56567 112.13071,112.13071 0 0 1 605.86429,256.43497 112.13071,112.13071 0 0 1 717.995,144.30426 112.13071,112.13071 0 0 1 830.1257,256.43497 Z m -85.17202,10e-6 c 0,6.419 -2.62154,12.488 -7.1783,16.943 -4.55676,4.455 -10.76438,7.018 -17.33,7.019 h -0.005 c -13.53322,-0.002 -24.50421,-10.729 -24.50524,-23.961 v -0.003 c 10e-4,-6.55101 2.7044,-12.56601 7.1783,-16.94101 4.47391,-4.374 10.62631,-7.018 17.32694,-7.019 h 0.005 c 6.56562,0.001 12.77324,2.564 17.33,7.019 4.55574,4.455 7.1783,10.524 7.1783,16.94301 z m 5.00988,0 c 0,7.783 -3.18922,15.072 -8.64506,20.406 -5.45686,5.335 -12.91133,8.453 -20.8721,8.454 h -0.005 c -16.30102,-0.002 -29.51511,-12.922 -29.51614,-28.859 v -0.003 c 0,-7.83901 3.22502,-15.10501 8.64506,-20.40501 5.42106,-5.299 12.85201,-8.452 20.87108,-8.453 h 0.005 c 7.96077,0.001 15.41524,3.119 20.8721,8.454 5.45584,5.334 8.64506,12.623 8.64506,20.40601 z m 5.00988,0 c 0,9.146 -3.75588,17.655 -10.11181,23.87 -6.35594,6.214 -15.0593,9.88701 -24.41421,9.88801 h -0.006 c -19.06781,-0.002 -34.52499,-15.11401 -34.52601,-33.75601 v -0.004 c 0,-9.12701 3.74564,-17.64301 10.11283,-23.86801 6.36719,-6.225 15.07669,-9.887 24.41318,-9.888 h 0.006 c 9.35491,10e-4 18.05827,3.674 24.41421,9.888 6.35593,6.215 10.11181,14.724 10.11181,23.87001 z m 5.0109,0 c 0,10.51 -4.32457,20.239 -11.57959,27.333 -7.25604,7.09401 -17.20726,11.32201 -27.95631,11.32301 h -0.007 c -21.8346,-10e-4 -39.53487,-17.30601 -39.53692,-38.65401 v -0.004 c 10e-4,-10.41501 4.2673,-20.18201 11.58062,-27.33201 7.31331,-7.15001 17.30239,-11.32201 27.9563,-11.32301 h 0.007 c 10.74905,0.001 20.70027,4.23 27.95631,11.32401 7.25502,7.094 11.57959,16.823 11.57959,27.33301 z m 5.00988,0 c 0,11.873 -4.89123,22.822 -13.04635,30.796 -8.15614,7.97401 -19.3542,12.75701 -31.4984,12.75901 h -0.008 c -24.60138,-0.002 -44.54475,-19.50001 -44.54679,-43.55201 v -0.004 c 10e-4,-11.70501 4.78792,-22.72101 13.04839,-30.79601 8.25944,-8.07601 19.52707,-12.75701 31.4984,-12.75801 h 0.008 c 12.1442,10e-4 23.34226,4.785 31.49738,12.75901 8.15614,7.974 13.04737,18.923 13.04737,30.79601 z m 5.00988,0 c 0,13.236 -5.45891,25.406 -14.5131,34.25901 -9.05522,8.854 -21.50218,14.192 -35.04051,14.194 h -0.009 c -27.36817,-10e-4 -49.55463,-21.69201 -49.55667,-48.44901 v -0.005 c 0,-12.99301 5.30957,-25.25901 14.51514,-34.26002 9.2066,-9.001 21.75278,-14.191 35.04153,-14.192 h 0.009 c 13.53833,0.001 25.98529,5.34 35.03948,14.193 9.05522,8.85401 14.51413,21.02301 14.51413,34.26002 z m 5.00987,0 c 0,14.6 -6.02556,27.989 -15.98087,37.72301 -9.9543,9.733 -23.64912,15.626 -38.58159,15.628 h -0.009 c -30.13599,-0.001 -54.56553,-23.88401 -54.56758,-53.34701 v -0.005 c 0,-14.28101 5.8302,-27.79801 15.9819,-37.72402 10.15273,-9.926 23.97848,-15.626 38.58568,-15.626 h 0.009 c 14.93247,0.001 28.62729,5.894 38.58159,15.628 9.95531,9.73401 15.98087,23.12301 15.98087,37.72302 z m 5.01091,0 c 0,15.963 -6.59426,30.573 -17.44866,41.18601 -10.85439,10.613 -25.79606,17.061 -42.12368,17.064 h -0.0102 c -32.90277,-0.002 -59.57541,-26.07801 -59.57848,-58.24501 v -0.006 c 10e-4,-15.56901 6.35185,-30.33601 17.4507,-41.18702 11.09885,-10.852 26.20316,-17.061 42.12778,-17.062 h 0.0102 c 16.32762,0.002 31.26929,6.45 42.12368,17.064 10.8544,10.61301 17.44866,25.22301 17.44866,41.18602 z m 5.00987,0 c 0,17.327 -7.16091,33.15601 -18.91541,44.64901 -11.75347,11.494 -27.94403,18.497 -45.66578,18.499 h -0.0113 c -35.66956,-10e-4 -64.58529,-28.27 -64.58836,-63.14301 v -0.006 c 0,-16.85701 6.87247,-32.87501 18.91746,-44.65102 12.046,-11.776 28.42886,-18.495 45.6709,-18.496 h 0.0113 c 17.72175,0.002 33.91129,7.005 45.66578,18.499 11.7545,11.49301 18.91541,27.32201 18.91541,44.64902 z m 5.00988,0 c 0,18.69 -7.72757,35.73901 -20.38216,48.11201 -12.65358,12.374 -30.092,19.93201 -49.20789,19.93401 h -0.0123 c -38.43634,-10e-4 -69.59517,-30.46301 -69.59824,-68.04002 v -0.007 c 0,-18.14501 7.3931,-35.41302 20.38524,-48.11502 12.99111,-12.701 30.65354,-19.93001 49.213,-19.93001 h 0.0123 c 19.11589,0.002 36.55431,7.56001 49.20789,19.93301 12.65459,12.373 20.38216,29.42301 20.38216,48.11302 z m 5.00988,0 c 0,20.053 -8.29525,38.32301 -21.84892,51.57601 -13.55367,13.253 -32.23894,21.36601 -52.74999,21.36801 h -0.0133 c -41.20313,0 -74.60505,-32.65501 -74.60812,-72.93702 v -0.008 c 0,-19.43301 7.91475,-37.95202 21.85199,-51.57802 13.93827,-13.627 32.87925,-21.36501 52.75613,-21.36601 h 0.0133 c 20.51105,0.003 39.19632,8.11601 52.74999,21.36901 13.55367,13.253 21.84892,31.52201 21.84892,51.57602 z m 5.0109,0 c 0,21.417 -8.86292,40.90601 -23.3167,55.03901 C 762.29596,325.607 742.3618,334.275 720.45663,334.278 h -0.0133 c -43.97094,-0.001 -79.61594,-34.84801 -79.62004,-77.83602 v -0.008 c 0,-20.72101 8.4364,-40.49002 23.32079,-55.04202 14.88439,-14.55201 35.10393,-22.79901 56.29925,-22.80001 h 0.0133 c 21.90517,0.003 41.83831,8.671 56.29208,22.80401 14.45378,14.132 23.3167,33.62201 23.3167,55.03902 z m 5.00988,0 c 0,22.78 -9.4306,43.49001 -24.78345,58.50201 C 764.93899,329.95 743.75696,339.173 720.45765,339.176 h -0.0143 c -46.73772,-10e-4 -84.62582,-37.04101 -84.62991,-82.73302 v -0.009 c 0,-22.00901 8.95702,-43.02802 24.78754,-58.50602 15.83052,-15.47701 37.32963,-24.23401 59.84237,-24.23401 h 0.0143 c 23.29931,0.003 44.48134,9.226 59.83419,24.23801 15.35285,15.013 24.78345,35.72301 24.78345,58.50302 z m 5.00988,0 c 0,24.144 -9.99726,46.07301 -26.25021,61.96601 C 767.58201,334.293 745.15314,344.071 720.45867,344.074 h -0.0153 c -49.50451,0 -89.6357,-39.23301 -89.63979,-87.63102 v -0.009 c 0,-23.29701 9.47765,-45.56702 26.2543,-61.96902 16.77767,-16.40301 39.55533,-25.66901 63.38549,-25.66901 h 0.0153 c 24.69447,0.003 47.12334,9.781 63.37629,25.67301 16.25295,15.892 26.25021,37.82201 26.25021,61.96602 z m 5.0109,0 c 0,25.507 -10.56596,48.65701 -27.71799,65.42901 C 770.22503,338.636 746.54829,348.969 720.4597,348.973 h -0.0164 c -52.2713,-0.001 -94.64558,-41.42601 -94.65069,-92.52902 v -0.009 c 10e-4,-24.58701 9.9993,-48.10602 27.7231,-65.43402 17.72379,-17.32801 41.78001,-27.10301 66.92759,-27.10401 h 0.0164 c 26.08859,0.004 49.76533,10.337 66.91838,27.10901 17.15203,16.772 27.71799,39.92201 27.71799,65.42902 z m 5.00988,0 c 0,26.87 -11.13261,51.24001 -29.18474,68.89202 -18.05213,17.652 -42.97776,28.54 -70.46049,28.544 h -0.0174 c -55.03706,0 -99.65546,-43.61901 -99.66057,-97.42602 v -0.01 c 0,-25.87501 10.51992,-50.64502 29.18985,-68.89703 18.66993,-18.253 44.00572,-28.539 70.47072,-28.539 h 0.0174 c 27.48273,0.004 52.40733,10.892 70.46049,28.543 18.05213,17.65201 29.18474,42.02202 29.18474,68.89303 z m 5.00987,0 c 0,28.234 -11.69926,53.82401 -30.65149,72.35502 -18.95223,18.532 -45.1247,29.97501 -74.00361,29.97901 h -0.0164 c -57.80487,0 -104.66636,-45.81102 -104.67147,-102.32403 v -0.01 c 0,-27.16301 11.04158,-53.18302 30.65763,-72.36103 19.61606,-19.178 46.2304,-29.97301 74.01384,-29.97301 h 0.0164 c 28.87891,0.004 55.05138,11.44701 74.00361,29.97801 18.95121,18.53201 30.65149,44.12202 30.65149,72.35603 z m 5.00988,0 c 0,29.597 -12.26694,56.40701 -32.11825,75.81902 -19.85233,19.411 -47.27267,31.40901 -77.54571,31.41301 h -0.0174 c -60.57165,0 -109.67623,-48.00302 -109.68135,-107.22103 v -0.011 c 0,-28.45101 11.5622,-55.72102 32.12439,-75.82503 20.56321,-20.103 48.4561,-31.40701 77.55696,-31.40701 h 0.0174 c 30.27304,0.004 57.69338,12.00201 77.54469,31.41301 19.85233,19.41101 32.11927,46.22102 32.11927,75.81903 z" />
      </g>
    </g>
  </g>
</svg>
